<svg width="100%" height="100%" viewBox="-100 -159 500 500" fill="none" xmlns="http://www.w3.org/2000/svg">
<g>
<path d="M271.68 94.4872C267.421 93.6947 263.761 97.1352 263.762 101.395C263.763 104.234 265.41 106.808 267.959 108.041C276.785 112.313 284.503 116.475 291.636 120.34C291.954 120.513 292.271 120.685 292.587 120.856C299.35 124.522 305.605 127.912 311.791 130.854C324.753 137.018 337.427 141.218 353.936 141.902C357.158 142.035 360.453 141.787 363.561 140.788C369.747 138.799 374.54 135.546 377.562 132.042C380.567 128.558 381.891 124.732 380.9 121.646C379.895 118.51 376.603 116.412 371.015 116.185C365.42 115.958 357.383 117.585 346.569 122.038C342.117 123.871 337.371 123.521 332.178 121.811C326.975 120.098 321.378 117.039 315.25 113.517C314.29 112.966 313.317 112.403 312.331 111.833C300.766 105.141 287.414 97.4148 271.68 94.4872Z" fill="#F9DC93" stroke="black"/>
<path d="M212.536 140.002C212.555 134.203 217.271 129.517 223.07 129.536L294.295 129.769C300.094 129.788 304.78 134.504 304.761 140.303C304.742 146.102 300.026 150.788 294.227 150.769L223.002 150.536C217.203 150.517 212.517 145.801 212.536 140.002Z" fill="#F9DC93" stroke="black"/>
<path d="M70 62.0181C126.12 55.5145 163.835 53.159 210.622 56.5337C241.503 58.7612 270.547 82.5104 270.994 113.469C271.129 122.776 268.832 131.917 262.516 150H70V62.0181Z" fill="#F9DC93"/>
<path fill-rule="evenodd" clip-rule="evenodd" d="M69.8849 61.0247L69 61.1273V151H263.225L263.46 150.33L263.575 150C263.612 149.892 263.65 149.784 263.688 149.676L263.696 149.653C263.655 149.768 263.615 149.884 263.575 150H262.516H70V62.0181C126.12 55.5145 163.835 53.1589 210.622 56.5337C241.503 58.7612 270.547 82.5104 270.994 113.469C271.068 118.586 270.407 123.653 268.747 130.184H269.779C271.409 123.709 272.069 118.613 271.994 113.455C271.538 81.8388 241.942 57.7902 210.694 55.5363C163.818 52.1552 126.033 54.5178 69.8849 61.0247ZM269.524 131.179L269.419 131.578L269.339 131.879C269.366 131.778 269.392 131.678 269.419 131.578C269.454 131.444 269.489 131.311 269.524 131.179ZM268.903 133.467L269.136 132.629C269.06 132.906 268.982 133.185 268.903 133.467ZM268.868 133.592L268.833 133.718L268.812 133.793L268.553 134.696C268.641 134.392 268.727 134.091 268.812 133.793C268.831 133.726 268.85 133.659 268.868 133.592ZM268.318 135.5L268.067 136.347C268.023 136.493 267.979 136.639 267.934 136.786C267.905 136.881 267.877 136.976 267.847 137.072L267.563 138C267.659 137.687 267.754 137.378 267.847 137.072C267.877 136.976 267.905 136.881 267.934 136.786C267.979 136.639 268.023 136.493 268.067 136.347C268.152 136.062 268.236 135.78 268.318 135.5ZM267.029 139.704L266.942 139.977L266.872 140.193C266.925 140.029 266.977 139.866 267.029 139.704ZM263.274 147.815L263.282 147.793C263.361 147.564 263.439 147.337 263.516 147.112C263.436 147.345 263.355 147.579 263.274 147.815ZM265.63 140.788C265.612 140.846 265.593 140.903 265.574 140.961L265.63 140.788ZM265.79 140.294C265.837 140.147 265.884 139.999 265.931 139.853C265.952 139.787 265.973 139.722 265.994 139.656C265.927 139.868 265.859 140.08 265.79 140.294Z" fill="black"/>
<path d="M10.4723 134.354C4.34903 136.04 0.752464 142.371 2.4391 148.495C4.12574 154.618 10.4569 158.215 16.5801 156.528L85.2483 137.613C91.3716 135.927 94.9681 129.595 93.2815 123.472C91.5948 117.349 85.2637 113.752 79.1405 115.439L10.4723 134.354Z" fill="#F9DC93" stroke="black"/>
<path d="M152.732 50.9123C155.383 46.8133 151.777 41.5492 146.997 42.54L114.129 49.353C110.283 50.1503 108.488 54.606 110.708 57.8466L125.348 79.2196C127.567 82.4602 132.371 82.3966 134.504 79.0983L152.732 50.9123Z" fill="#F9DC93" stroke="black"/>
<path d="M142.094 57.6355C145.368 53.4099 141.299 47.4689 136.176 48.9955L121.455 53.382C117.881 54.4469 116.381 58.6844 118.488 61.761L123.8 69.516C125.907 72.5926 130.401 72.7246 132.685 69.7769L142.094 57.6355Z" fill="#FFC0CB" stroke="#FFC0CB"/>
<path d="M58.2971 17.4118C57.4728 12.3618 50.8037 11.0751 48.1599 15.456L31.0134 43.8688C29.0369 47.1438 30.9245 51.3863 34.6804 52.1109L57.1727 56.4505C60.9287 57.1751 64.259 53.9394 63.6428 50.1641L58.2971 17.4118Z" fill="#F9DC93" stroke="black"/>
<path d="M6 89.5C6 121.809 35.3253 148 71.5 148C107.675 148 137 121.809 137 89.5C137 57.1913 107.675 31 71.5 31C35.3253 31 6 57.1913 6 89.5Z" fill="#F9DC93"/>
<path fill-rule="evenodd" clip-rule="evenodd" d="M115 134.506C103.324 143.544 88.1043 149 71.5 149C34.8823 149 5 122.464 5 89.5C5 56.5358 34.8823 30 71.5 30C90.5234 30 107.729 37.1618 119.871 48.6662L118.729 48.9669C106.811 37.8922 90.0569 31 71.5 31C35.3253 31 6 57.1913 6 89.5C6 121.809 35.3253 148 71.5 148C88.1954 148 103.432 142.421 115 133.237V134.506ZM138 89.5C138 84.8535 137.406 80.3347 136.284 76H136L135.447 76.781C136.464 80.8758 137 85.132 137 89.5H138ZM120.921 49.6843L120 48.7887C120.615 49.3748 121.217 49.9722 121.806 50.5803L120.921 49.6843ZM121.806 50.5803C122.098 50.8846 122.333 51.1312 122.548 51.3603C122.303 51.0984 122.055 50.8384 121.806 50.5803ZM122.548 51.3603C122.781 51.6099 123.012 51.8613 123.241 52.1145C123 51.8479 122.786 51.6149 122.548 51.3603ZM123.5 52.4028C123.414 52.3065 123.328 52.2103 123.241 52.1145C123.323 52.2059 123.409 52.3013 123.5 52.4028ZM127.788 57.7937L127.462 57.3501C127.15 56.9147 126.829 56.4779 126.5 56.0374L127.462 57.3501C127.658 57.6219 127.85 57.8932 128.039 58.1646L129 59.5816C128.688 59.107 128.368 58.6357 128.039 58.1646L127.788 57.7937ZM132.124 65L131.337 63.5C131.873 64.485 132.379 65.4853 132.855 66.5L132.124 65ZM134.907 71.5L134.351 70C134.734 70.9883 135.088 71.9886 135.413 73L134.907 71.5Z" fill="black"/>
<path d="M61.9211 160.362C60.3078 154.505 63.748 148.449 69.605 146.836L138.273 127.921C144.13 126.308 150.186 129.748 151.799 135.605C153.413 141.462 149.973 147.518 144.116 149.131L75.4473 168.046C69.5903 169.659 63.5345 166.219 61.9211 160.362Z" fill="#F9DC93"/>
<path d="M115.5 133L69.3395 145.872C62.95 147.632 59.1971 154.238 60.9571 160.628C62.717 167.017 69.3234 170.77 75.7129 169.01L144.381 150.095L141 150L75.4473 168.046C69.5903 169.659 63.5345 166.219 61.9211 160.362C60.3078 154.505 63.748 148.449 69.605 146.836L115 134.5L115.5 133Z" fill="black"/>
<circle cx="97" cy="96" r="6.5" fill="black" stroke="black"/>
<circle cx="22" cy="79" r="6.5" fill="black" stroke="black"/>
<path d="M43.2985 107.65C47.8171 108.652 52.3584 106.055 53.3286 101.679L52.3523 101.463C51.5155 105.237 47.5589 107.57 43.515 106.674C39.471 105.777 36.8711 101.991 37.7078 98.2164L36.7315 98C35.7614 102.376 38.7799 106.648 43.2985 107.65Z" fill="black"/>
<path d="M58.6668 110.912C63.1936 111.876 67.7131 109.242 68.6468 104.858L67.6687 104.65C66.8634 108.431 62.9263 110.797 58.8751 109.934C54.8238 109.071 52.1924 105.307 52.9978 101.525L52.0197 101.317C51.086 105.701 54.14 109.948 58.6668 110.912Z" fill="black"/>
<path d="M52.6169 102.65C52.3897 102.754 52.1212 102.674 51.9876 102.463L48.7328 97.3278C48.4853 96.9373 48.8548 96.4489 49.2979 96.581L58.0874 99.2C58.5305 99.3321 58.5724 99.9431 58.1515 100.134L52.6169 102.65Z" fill="#FFC0CB" stroke="black"/>
<animateTransform attributeName="transform" type="translate" dur="20s" repeatCount="indefinite"
      values="0,0; 100,0; -50,0; 0,0" calcMode="spline"
      keyTimes="0; 0.5; 0.75; 1 "
      keySplines=".5 0 .5 1; .5 0 .5 1; .5 0 .5 1;"/>
</g>
</svg>
