<svg width="100%" height="100%" viewBox="0 0 445 470" fill="none" xmlns="http://www.w3.org/2000/svg">
<g id="Component 5">
<path id="Vector 1" d="M4.87143 76.4001C-2.939 119.975 1.5048 142.223 14.2787 179.81C39.9517 256.141 83.4676 255.495 173.261 236.038C173.376 236.013 173.493 235.998 173.611 235.993C190.17 235.308 217.33 223.256 238.252 191.781C239.024 190.62 238.372 189.054 237.008 188.764L231.912 187.683C230.587 187.401 229.919 185.913 230.589 184.736L242.113 164.508C242.618 163.623 242.376 162.499 241.551 161.9L234.419 156.721C233.582 156.113 233.347 154.967 233.877 154.078L241.847 140.723C242.46 139.695 242.039 138.361 240.945 137.872L234.706 135.084C233.721 134.644 233.263 133.503 233.669 132.504L241.88 112.325C242.415 111.01 241.447 109.571 240.027 109.571H235.485C234.189 109.571 233.236 108.358 233.542 107.099L236.575 94.6249C236.881 93.3658 235.927 92.1524 234.632 92.1524H228.369C227.15 92.1524 226.214 91.0716 226.389 89.8655L228.903 72.525C229.078 71.3189 228.142 70.2381 226.924 70.2381H219.057C217.953 70.2381 217.057 69.3427 217.057 68.2381V57.0667C217.057 55.9621 216.162 55.0667 215.057 55.0667H205.291C204.187 55.0667 203.291 54.1712 203.291 53.0667V43.3355C203.291 42.1148 202.207 41.1788 201 41.3568L186.939 43.4294C185.6 43.6269 184.455 42.4638 184.674 41.1274L185.968 33.2282C186.168 32.0107 185.228 30.9048 183.995 30.9048H168.558C167.783 30.9048 167.078 30.4577 166.748 29.7571L161.724 19.0925C161.279 18.1479 160.182 17.7046 159.206 18.0747L148.093 22.2869C147.018 22.6945 145.821 22.1133 145.476 21.016L143.595 15.0269C143.241 13.8999 141.993 13.3236 140.905 13.7852L133.837 16.7857C132.968 17.1549 131.958 16.865 131.417 16.0906L123.807 5.20567C122.687 3.60251 120.168 4.39552 120.168 6.35158V13.8671C120.168 15.4259 118.464 16.3855 117.131 15.5772L106.49 9.12381C105.797 8.7032 104.918 8.74314 104.265 9.22491L94.6915 16.2931C93.8363 16.9244 92.6366 16.7765 91.9604 15.9563L86.982 9.9179C86.2969 9.08695 85.0769 8.94767 84.2222 9.60282L68.7904 21.4312C67.7382 22.2377 66.2068 21.8159 65.7159 20.5845L62.6214 12.8218C61.9669 11.1798 59.6602 11.132 58.9381 12.7454L52.0948 28.0354C51.4967 29.3717 49.7127 29.6337 48.7557 28.5257L41.9828 20.6841C40.8696 19.3952 38.7577 19.9987 38.4935 21.6811L36.2027 36.2679C35.9267 38.0255 33.6654 38.5749 32.6138 37.1399L31.6575 35.8351C30.5148 34.2757 28.0444 35.084 28.0444 37.0173V51.8227C28.0444 53.3114 26.4761 54.2783 25.146 53.6096L20.8832 51.4666C19.5531 50.7979 17.9849 51.7648 17.9849 53.2535V75.392C17.9849 76.7391 16.6802 77.7009 15.3935 77.3026L7.42558 74.8362C6.2823 74.4823 5.08258 75.2221 4.87143 76.4001Z" fill="#CF7C41" stroke="black"/>
<path id="Body" d="M165.773 259.093C168.01 254.749 169.758 248.67 170.478 240.767C193.422 223.156 206.323 194.633 200.928 160.676C200.908 106.058 158.655 61.7439 106.478 61.7159C79.1432 56.2782 56.7379 69.665 40.5797 90.0323C24.4172 110.405 14.4404 137.828 11.9312 160.661C8.73924 189.708 23.4488 221.254 49.9287 240.757C49.9574 248.865 51.3653 255.087 53.493 259.523C55.6398 263.999 58.5422 266.697 61.532 267.611C64.5492 268.534 67.5626 267.609 69.7905 265.037C71.9069 262.594 73.3023 258.688 73.4201 253.485C83.4921 257.252 94.5508 259.475 106.411 259.716C121.075 260.393 134.985 258.164 147.428 253.49C147.474 258.53 148.635 262.304 150.481 264.656C152.438 267.151 155.158 268.022 157.974 267.07C160.744 266.135 163.521 263.467 165.773 259.093Z" fill="#F5C9AA" stroke="black"/>
<path id="Right_paw" d="M159.437 170C152.687 194.93 138.603 187.944 137.437 170" stroke="black"/>
<path id="Left_paw" d="M50.5 170.5C62.5 195.5 75.5 188.5 72.5 170.5" stroke="black"/>
<path id="Left_eye" d="M71 103.5C71 107.642 67.6421 111 63.5 111C59.3579 111 56 107.642 56 103.5C56 99.3579 59.3579 96 63.5 96C67.6421 96 71 99.3579 71 103.5Z" fill="black"/>
<circle id="Right_eye" cx="148.5" cy="103.5" r="7.5" fill="black"/>
<g id="Nose">
<path d="M97.5 134.399C101.067 140.053 104.905 140.36 109.928 135.504C105.848 131.3 103.226 130.574 97.5 134.399Z" fill="black"/>
<path d="M91.5 119.5C93.5245 126.224 95.4682 131.179 97.5 134.399M121.5 119.5C116.972 126.99 113.199 132.342 109.928 135.504M97.5 134.399C101.067 140.053 104.905 140.36 109.928 135.504M97.5 134.399C103.226 130.574 105.848 131.3 109.928 135.504" stroke="black"/>
</g>
<g id="Left_ear">
<path d="M60 53C47 32 43.5 60.0001 43.5 60.0001H47.5H52.6716C53.202 60.0001 53.7107 59.7893 54.0858 59.4143L57 56.5L60 53Z" fill="#F5C9AA"/>
<path d="M43.5 60.0001C43.5 60.0001 47 32 60 53M43.5 60.0001H47.5H52.6716C53.202 60.0001 53.7107 59.7893 54.0858 59.4143L57 56.5L60 53M43.5 60.0001L41.5 64M60 53L67 54.5" stroke="black"/>
</g>
<g id="Right_ear">
<path d="M144 52.81C160.726 31.1925 163.155 59.3699 160.5 59.81H157.106C156.711 59.81 156.327 59.9268 155.988 60.1283C154.536 60.9899 150.5 63.0906 150.5 59.81C150.5 57.2978 149.119 56.5606 148.092 56.3597C147.421 56.2285 146.731 55.9956 146.286 55.4764L144 52.81Z" fill="#F5C9AA"/>
<path d="M160.5 59.81C163.155 59.3699 160.726 31.1925 144 52.81M160.5 59.81H157.106C156.711 59.81 156.327 59.9268 155.988 60.1283C154.536 60.9899 150.5 63.0906 150.5 59.81C150.5 57.2978 149.119 56.5606 148.092 56.3597C147.421 56.2285 146.731 55.9956 146.286 55.4764L144 52.81M160.5 59.81L162.5 63.81M144 52.81L137 54.3099" stroke="black"/>
</g>
<circle id="Ellipse 1" cx="60.5" cy="101.5" r="2.5" fill="white"/>
<path id="Ellipse 2" d="M65 104C65 104.552 64.5523 105 64 105C63.4477 105 63 104.552 63 104C63 103.448 63.4477 103 64 103C64.5523 103 65 103.448 65 104Z" fill="white"/>
<circle id="Ellipse 3" cx="145.5" cy="101.5" r="2.5" fill="white"/>
<path id="Ellipse 4" d="M150 104C150 104.552 149.552 105 149 105C148.448 105 148 104.552 148 104C148 103.448 148.448 103 149 103C149.552 103 150 103.448 150 104Z" fill="white"/>
</g>
</svg>
