<svg width="400" height="400" viewBox="0 0 400 400" fill="none" xmlns="http://www.w3.org/2000/svg">
<rect width="400" height="400" fill="white"/>
<path d="M47.4962 123.453C37.1083 180.429 42.9035 209.328 59.6857 258.284C93.2878 357.332 150.247 356.478 267.793 331.223C267.907 331.199 268.023 331.184 268.139 331.179C289.928 330.309 325.791 314.508 353.255 273.114C354.029 271.948 353.378 270.369 352.009 270.081L343.679 268.329C342.35 268.049 341.68 266.553 342.357 265.375L358.101 237.979C358.612 237.09 358.367 235.959 357.535 235.359L347.331 228.013C346.486 227.405 346.249 226.25 346.786 225.359L357.831 207.008C358.452 205.977 358.028 204.636 356.928 204.148L347.614 200.022C346.624 199.584 346.163 198.436 346.574 197.434L357.868 169.917C358.408 168.601 357.44 167.158 356.017 167.158H348.385C347.088 167.158 346.134 165.941 346.443 164.681L350.771 147.035C351.08 145.775 350.126 144.558 348.829 144.558H339.142C337.923 144.558 336.987 143.476 337.163 142.269L340.651 118.416C340.827 117.209 339.892 116.127 338.672 116.127H327.05C325.945 116.127 325.05 115.231 325.05 114.127V98.4434C325.05 97.3388 324.155 96.4434 323.05 96.4434H309.036C307.931 96.4434 307.036 95.5479 307.036 94.4434V80.5315C307.036 79.3118 305.953 78.3762 304.747 78.5526L284.802 81.4672C283.462 81.6631 282.318 80.4983 282.539 79.1621L284.48 67.4219C284.681 66.2037 283.741 65.0958 282.507 65.0958H261.185C260.413 65.0958 259.71 64.6515 259.379 63.9542L252.396 49.2599C251.95 48.3211 250.859 47.8805 249.886 48.2461L234.181 54.148C233.108 54.5511 231.917 53.9722 231.57 52.8798L228.712 43.857C228.357 42.7352 227.114 42.1612 226.03 42.6177L215.676 46.9752C214.81 47.3397 213.807 47.0523 213.266 46.2844L201.892 30.1543C200.767 28.5591 198.257 29.355 198.257 31.3069V44.0633C198.257 45.6187 196.56 46.5788 195.227 45.7773L179.996 36.6202C179.306 36.2052 178.434 36.2447 177.785 36.7203L164.438 46.4891C163.586 47.1131 162.395 46.9663 161.719 46.154L154.445 37.4069C153.761 36.5839 152.55 36.4456 151.697 37.0933L130.366 53.3032C129.315 54.1017 127.793 53.6815 127.3 52.457L122.406 40.2855C121.749 38.651 119.453 38.6031 118.728 40.2087L108.776 62.2541C108.176 63.5826 106.402 63.844 105.445 62.745L95.0633 50.8287C93.9481 49.5485 91.8456 50.1526 91.58 51.8295L88.1467 73.5042C87.8692 75.2562 85.6175 75.8066 84.563 74.3801L81.3083 69.9771C80.1616 68.4258 77.7 69.2369 77.7 71.166V93.2119C77.7 94.6976 76.1375 95.6646 74.8079 95.0019L67.4279 91.3237C66.0982 90.661 64.5357 91.628 64.5357 93.1137V123.627C64.5357 124.972 63.2348 125.934 61.949 125.539L50.0476 121.887C48.9066 121.537 47.7103 122.279 47.4962 123.453Z" fill="#CF7C41" stroke="black"/>
<path d="M56.2702 233.402C52.0829 271.179 71.3444 312.163 105.994 337.539C106.052 348.009 107.896 356.078 110.693 361.86C113.53 367.723 117.391 371.312 121.425 372.535C125.51 373.773 129.591 372.524 132.589 369.091C135.361 365.919 137.182 360.931 137.412 354.367C150.506 359.166 164.862 361.996 180.244 362.306C199.296 363.178 217.382 360.341 233.593 354.376C233.723 360.716 235.238 365.529 237.656 368.585C240.302 371.928 244.009 373.113 247.84 371.83C251.581 370.577 255.273 367.029 258.244 361.311C261.183 355.652 263.471 347.77 264.424 337.559C294.468 314.63 311.349 277.547 304.289 233.433C304.247 162.409 248.829 104.774 180.374 104.719C144.452 97.6481 115.025 115.107 93.8361 141.586C72.6394 168.075 59.5604 203.719 56.2702 233.402Z" fill="#F5C9AA" stroke="black" stroke-width="2"/>
<path d="M249.646 245.558C240.813 277.902 222.382 268.839 220.856 245.558" stroke="black" stroke-width="2"/>
<path d="M107.086 246.206C122.79 278.641 139.802 269.559 135.877 246.206" stroke="black" stroke-width="2"/>
<path d="M133.914 159.281C133.914 164.655 129.519 169.011 124.099 169.011C118.678 169.011 114.284 164.655 114.284 159.281C114.284 153.907 118.678 149.55 124.099 149.55C129.519 149.55 133.914 153.907 133.914 159.281Z" fill="black"/>
<ellipse cx="235.333" cy="159.281" rx="9.81481" ry="9.73048" fill="black"/>
<path d="M168.593 199.369C173.261 206.704 178.284 207.102 184.856 200.803C179.517 195.348 176.086 194.407 168.593 199.369Z" fill="black"/>
<path d="M160.741 180.039C163.39 188.763 165.934 195.191 168.593 199.369M200 180.039C194.075 189.757 189.137 196.7 184.856 200.803M168.593 199.369C173.261 206.704 178.284 207.102 184.856 200.803M168.593 199.369C176.086 194.407 179.517 195.348 184.856 200.803" stroke="black"/>
<path d="M119.519 93.7621C102.506 66.5167 97.9259 102.844 97.9259 102.844H103.16H110.189C110.716 102.844 111.223 102.636 111.597 102.264L115.593 98.303L119.519 93.7621Z" fill="#F5C9AA"/>
<path d="M97.9259 102.844C97.9259 102.844 102.506 66.5167 119.519 93.7621M97.9259 102.844H103.16H110.189C110.716 102.844 111.223 102.636 111.597 102.264L115.593 98.303L119.519 93.7621M97.9259 102.844L95.3086 108.033M119.519 93.7621L128.679 95.7082" stroke="black"/>
<path d="M229.444 93.5155C251.333 65.469 254.512 102.026 251.037 102.597H246.404C246.012 102.597 245.629 102.713 245.293 102.915C243.552 103.96 237.951 106.98 237.951 102.597C237.951 99.0518 235.813 98.2314 234.458 98.0674C233.783 97.9856 233.102 97.7456 232.657 97.2313L229.444 93.5155Z" fill="#F5C9AA"/>
<path d="M251.037 102.597C254.512 102.026 251.333 65.469 229.444 93.5155M251.037 102.597H246.404C246.012 102.597 245.629 102.713 245.293 102.915C243.552 103.96 237.951 106.98 237.951 102.597C237.951 99.0518 235.813 98.2314 234.458 98.0674C233.783 97.9856 233.102 97.7456 232.657 97.2313L229.444 93.5155M251.037 102.597L253.654 107.787M229.444 93.5155L220.284 95.4616" stroke="black"/>
<ellipse cx="120.173" cy="156.686" rx="3.27161" ry="3.24349" fill="white"/>
<path d="M126.062 159.929C126.062 160.646 125.476 161.227 124.753 161.227C124.03 161.227 123.444 160.646 123.444 159.929C123.444 159.213 124.03 158.632 124.753 158.632C125.476 158.632 126.062 159.213 126.062 159.929Z" fill="white"/>
<ellipse cx="231.407" cy="156.686" rx="3.27161" ry="3.24349" fill="white"/>
<path d="M237.296 159.929C237.296 160.646 236.71 161.227 235.988 161.227C235.265 161.227 234.679 160.646 234.679 159.929C234.679 159.213 235.265 158.632 235.988 158.632C236.71 158.632 237.296 159.213 237.296 159.929Z" fill="white"/>
</svg>
