<svg width="100%" height="100%" viewBox="300 300 1000 1000" fill="none" xmlns="http://www.w3.org/2000/svg">
<g id="Sun fish">
<g id="Tail">
<g filter="url(#filter0_i_174_60)">
<path d="M170.125 181.967C171.611 183.886 171.517 186.45 169.837 188.201C148.59 210.348 14.6704 348.713 48 282.672C84.1712 211 -7.41477 67.9831 51.1282 83.9915C102.769 98.1127 157.855 166.127 170.125 181.967Z" fill="#89C9F6"/>
</g>
<path d="M169.476 187.855C158.852 198.929 120.071 239.046 88.1156 268.137C80.1273 275.41 72.57 281.989 65.9886 287.252C59.3991 292.521 53.8152 296.448 49.7677 298.438C47.7312 299.439 46.1551 299.912 45.0634 299.875C44.5306 299.857 44.1481 299.719 43.877 299.495C43.6072 299.272 43.3956 298.922 43.2842 298.381C43.0551 297.269 43.2778 295.486 44.118 292.891C44.9517 290.317 46.369 287.013 48.4464 282.897C57.5543 264.85 58.6016 242.356 56.0128 219.085C53.4233 195.807 47.1857 171.676 41.6587 150.326L41.6112 150.143C38.864 139.531 36.2965 129.613 34.438 120.819C32.5678 111.969 31.4233 104.291 31.5281 98.2115C31.6332 92.1119 32.9935 87.7578 35.9802 85.3842C38.9585 83.0172 43.7269 82.486 50.9963 84.4738C76.6903 91.4998 103.296 111.958 125.046 132.696C146.78 153.421 163.602 174.363 169.73 182.273C171.069 184.002 170.979 186.288 169.476 187.855Z" stroke="#1C8FE2"/>
</g>
<g id="Upper_fin">
<g filter="url(#filter1_i_174_60)">
<path d="M95.643 24.1058C95.0138 16.4648 102.723 10.9023 109.041 15.2465C126.9 27.5276 141.43 48.0432 162.744 89.585C166.129 96.1837 161.308 104 153.891 104H105.117C99.1769 104 94.5573 98.8455 95.1025 92.9302C97.4714 67.2268 97.6717 48.7397 95.643 24.1058Z" fill="#89C9F6"/>
</g>
<path d="M108.757 15.6585C126.504 27.8621 140.987 48.2739 162.299 89.8133C165.512 96.0757 160.938 103.5 153.891 103.5H105.117C99.4766 103.5 95.0817 98.6038 95.6004 92.9761C97.9717 67.2462 98.1726 48.7299 96.1413 24.0647C95.8416 20.4255 97.5273 17.297 100.019 15.5945C102.5 13.899 105.782 13.6125 108.757 15.6585Z" stroke="#1C8FE2"/>
</g>
<g id="Lower_fin">
<g filter="url(#filter2_i_174_60)">
<path d="M124.23 369.041C118.504 377.172 106.004 372.177 106.384 362.239C107.482 333.501 104.753 310.488 96.3372 280.055C94.5393 273.554 99.377 267.038 106.122 267.076L156.606 267.356C163.197 267.393 167.953 273.704 166.065 280.019C155.088 316.732 143.821 341.222 124.23 369.041Z" fill="#89C9F6"/>
</g>
<path d="M106.883 362.258C107.984 333.466 105.248 310.401 96.8191 279.922C95.1067 273.73 99.7165 267.54 106.12 267.576L156.603 267.856C162.867 267.891 167.377 273.886 165.586 279.876C154.621 316.547 143.376 340.986 123.821 368.753C121.107 372.607 116.806 373.352 113.198 371.95C109.583 370.544 106.702 366.993 106.883 362.258Z" stroke="#1C8FE2"/>
</g>
<g id="Body">
<g filter="url(#filter3_i_174_60)">
<path d="M97.075 101.59C100.58 91.14 108.531 82.7397 118.799 78.7333C210.574 42.9238 300.706 37.8795 333.96 82.9027C335.106 84.4543 336.06 86.1651 336.865 87.9181C355.734 129.007 349.547 152.731 351 176C352.438 199.033 351.382 227.988 335.102 268.528C330.144 280.873 318.583 289.167 305.417 291.075C218.846 303.616 211.98 302.793 125.152 286.473C111.325 283.873 99.6888 274.228 95.2813 260.866C76.2832 203.272 75.6057 165.604 97.075 101.59Z" fill="#71BFF7"/>
</g>
<path d="M350.038 176.652C339.852 183.311 332.318 180.152 326.5 169M349.968 175.497C344.964 178.895 340.811 179.758 337.292 178.67C333.629 177.536 330.339 174.196 327.387 168.537L325.613 169.463C328.661 175.304 332.283 179.214 336.701 180.58C340.754 181.834 345.217 180.872 350.105 177.798C351.371 200.429 349.982 228.791 334.174 268.155C329.363 280.135 318.125 288.223 305.274 290.085C261.974 296.358 238.7 299.272 215.41 298.597C192.114 297.922 168.775 293.655 125.337 285.49C111.844 282.954 100.517 273.547 96.2309 260.553C86.7514 231.815 81.8642 208.113 82.0029 183.641C82.1416 159.167 87.3078 133.858 98.0231 101.908C101.434 91.7367 109.173 83.5626 119.162 79.6649C164.974 61.7897 210.326 51.6146 248.328 51.5057C286.365 51.3967 316.809 61.3653 333.155 83.4968C334.251 84.9808 335.173 86.629 335.957 88.3354C350.348 119.674 350.063 140.723 349.811 159.43C349.737 164.921 349.665 170.21 349.968 175.497Z" stroke="#1C8FE2" stroke-width="2"/>
</g>
<g id="Eye">
<circle id="left_eye" cx="293" cy="147" r="8" fill="black"/>
<g id="left_eye_reflection">
<circle id="big" cx="289.479" cy="145.439" r="2.5" fill="white"/>
<path id="small" d="M293.979 147.939C293.979 148.492 293.532 148.939 292.979 148.939C292.427 148.939 291.979 148.492 291.979 147.939C291.979 147.387 292.427 146.939 292.979 146.939C293.532 146.939 293.979 147.387 293.979 147.939Z" fill="white"/>
</g>
</g>
<g id="Middle_fin">
<g filter="url(#filter4_i_174_60)">
<path d="M213.015 171.838C215.093 174.822 213.392 178.955 209.815 179.613L181.201 184.872C187.471 174.292 171.591 165.432 192.426 150.581C194.586 149.042 197.574 149.666 199.09 151.843L213.015 171.838Z" fill="#89C9F6"/>
</g>
<path d="M209.725 179.121L182.133 184.193C183.307 181.759 183.424 179.407 183.167 177.084C183.027 175.814 182.774 174.544 182.523 173.281L182.505 173.191C182.246 171.892 181.992 170.598 181.849 169.274C181.565 166.643 181.727 163.915 183.212 160.94C184.702 157.953 187.548 154.673 192.716 150.989C194.634 149.622 197.311 150.164 198.68 152.129L212.604 172.123C214.475 174.809 212.944 178.529 209.725 179.121Z" stroke="#1C8FE2"/>
</g>
<animateTransform attributeName="transform" type="translate" dur="10s" repeatCount="indefinite"
      values="0,0; 1000,1000; 200,550; 1200,550" calcMode="spline"
      keyTimes="0; 0.5; 0.85; 1 "
      keySplines=".5 0 .5 1; .5 0 .5 1; .5 0 .5 1;"
      /> 

</g>
<defs>
<filter id="filter0_i_174_60" x="31.0215" y="82.7518" width="145.151" height="217.626" filterUnits="userSpaceOnUse" color-interpolation-filters="sRGB">
<feFlood flood-opacity="0" result="BackgroundImageFix"/>
<feBlend mode="normal" in="SourceGraphic" in2="BackgroundImageFix" result="shape"/>
<feColorMatrix in="SourceAlpha" type="matrix" values="0 0 0 0 0 0 0 0 0 0 0 0 0 0 0 0 0 0 127 0" result="hardAlpha"/>
<feOffset dx="5"/>
<feGaussianBlur stdDeviation="5"/>
<feComposite in2="hardAlpha" operator="arithmetic" k2="-1" k3="1"/>
<feColorMatrix type="matrix" values="0 0 0 0 0.110187 0 0 0 0 0.560784 0 0 0 0 0.88708 0 0 0 1 0"/>
<feBlend mode="normal" in2="shape" result="effect1_innerShadow_174_60"/>
</filter>
<filter id="filter1_i_174_60" x="90.0588" y="13.7222" width="73.7876" height="94.2778" filterUnits="userSpaceOnUse" color-interpolation-filters="sRGB">
<feFlood flood-opacity="0" result="BackgroundImageFix"/>
<feBlend mode="normal" in="SourceGraphic" in2="BackgroundImageFix" result="shape"/>
<feColorMatrix in="SourceAlpha" type="matrix" values="0 0 0 0 0 0 0 0 0 0 0 0 0 0 0 0 0 0 127 0" result="hardAlpha"/>
<feOffset dx="-5" dy="4"/>
<feGaussianBlur stdDeviation="5"/>
<feComposite in2="hardAlpha" operator="arithmetic" k2="-1" k3="1"/>
<feColorMatrix type="matrix" values="0 0 0 0 0.110187 0 0 0 0 0.560784 0 0 0 0 0.88708 0 0 0 1 0"/>
<feBlend mode="normal" in2="shape" result="effect1_innerShadow_174_60"/>
</filter>
<filter id="filter2_i_174_60" x="90.9591" y="263.076" width="75.5231" height="110.03" filterUnits="userSpaceOnUse" color-interpolation-filters="sRGB">
<feFlood flood-opacity="0" result="BackgroundImageFix"/>
<feBlend mode="normal" in="SourceGraphic" in2="BackgroundImageFix" result="shape"/>
<feColorMatrix in="SourceAlpha" type="matrix" values="0 0 0 0 0 0 0 0 0 0 0 0 0 0 0 0 0 0 127 0" result="hardAlpha"/>
<feOffset dx="-5" dy="-4"/>
<feGaussianBlur stdDeviation="5"/>
<feComposite in2="hardAlpha" operator="arithmetic" k2="-1" k3="1"/>
<feColorMatrix type="matrix" values="0 0 0 0 0.110187 0 0 0 0 0.560784 0 0 0 0 0.88708 0 0 0 1 0"/>
<feBlend mode="normal" in2="shape" result="effect1_innerShadow_174_60"/>
</filter>
<filter id="filter3_i_174_60" x="81" y="40.5049" width="270.463" height="259.188" filterUnits="userSpaceOnUse" color-interpolation-filters="sRGB">
<feFlood flood-opacity="0" result="BackgroundImageFix"/>
<feBlend mode="normal" in="SourceGraphic" in2="BackgroundImageFix" result="shape"/>
<feColorMatrix in="SourceAlpha" type="matrix" values="0 0 0 0 0 0 0 0 0 0 0 0 0 0 0 0 0 0 127 0" result="hardAlpha"/>
<feOffset dy="-10"/>
<feGaussianBlur stdDeviation="5"/>
<feComposite in2="hardAlpha" operator="arithmetic" k2="-1" k3="1"/>
<feColorMatrix type="matrix" values="0 0 0 0 0.110187 0 0 0 0 0.560784 0 0 0 0 0.88708 0 0 0 0.6 0"/>
<feBlend mode="normal" in2="shape" result="effect1_innerShadow_174_60"/>
</filter>
<filter id="filter4_i_174_60" x="181.201" y="143.73" width="35.7146" height="41.1423" filterUnits="userSpaceOnUse" color-interpolation-filters="sRGB">
<feFlood flood-opacity="0" result="BackgroundImageFix"/>
<feBlend mode="normal" in="SourceGraphic" in2="BackgroundImageFix" result="shape"/>
<feColorMatrix in="SourceAlpha" type="matrix" values="0 0 0 0 0 0 0 0 0 0 0 0 0 0 0 0 0 0 127 0" result="hardAlpha"/>
<feOffset dx="3" dy="-6"/>
<feGaussianBlur stdDeviation="3.5"/>
<feComposite in2="hardAlpha" operator="arithmetic" k2="-1" k3="1"/>
<feColorMatrix type="matrix" values="0 0 0 0 0.110187 0 0 0 0 0.560784 0 0 0 0 0.88708 0 0 0 1 0"/>
<feBlend mode="normal" in2="shape" result="effect1_innerShadow_174_60"/>
</filter>
</defs>
</svg>
