<svg width="100%" height="100%" viewBox="0 0 400 400" fill="none" xmlns="http://www.w3.org/2000/svg">
<g id="Bear">
<g id="Bear_2">
<g id="Body">
<path fill-rule="evenodd" clip-rule="evenodd" d="M214.776 310.285C211.866 310.133 209.369 309.545 206.21 308.157C208.327 309.26 210.573 309.962 212.865 310.312C213.434 310.322 214.074 310.312 214.776 310.285ZM256.72 301.884C256.708 301.922 256.693 301.971 256.674 302.03C256.735 301.945 256.761 301.864 256.751 301.787C256.751 301.787 256.74 301.82 256.72 301.884ZM126.465 292.671C126.464 292.929 126.774 293.867 127.351 295.35L126.465 292.671Z" fill="#82583A"/>
<path d="M267.415 365.205C267.733 365.149 268.036 365.014 268.291 364.816C307.81 334.066 325.956 294.337 329.25 260.435C444.016 -89.8319 -113.508 -14.6159 107.235 331.886C107.439 332.43 114.074 333.144 121.81 333.198C124.799 333.219 127.952 333.142 130.962 332.919C135.842 332.557 140.346 331.811 143.164 330.477L135.79 314.095C131.797 305.917 128.768 298.992 127.351 295.35C126.774 293.867 126.464 292.929 126.465 292.671L127.351 295.35L135.79 314.095C146.535 336.103 164.266 367.184 176.382 367.778C181.32 367.948 185.633 368.042 189.601 367.982C193.331 367.925 196.756 367.732 200.109 367.339C203.663 366.922 207.137 366.28 210.807 365.336C211.335 365.2 211.791 364.858 211.98 364.346C214.007 358.858 212.228 343.492 210.722 330.477C209.368 318.78 208.233 308.981 210.278 309.952C210.747 310.175 211.641 310.289 212.865 310.312C210.573 309.962 208.327 309.26 206.21 308.157C204.542 298.805 223.878 301.69 221.269 309.742C222.219 309.633 223.206 309.511 224.219 309.378C237.477 307.633 255.347 303.894 256.674 302.03L256.72 301.884L256.751 301.787C256.761 301.864 256.735 301.945 256.674 302.03C255.654 305.291 244.735 340.624 243.566 363.389C243.514 364.384 244.226 365.246 245.211 365.402C248.441 365.911 251.159 366.209 253.664 366.322C256.27 366.44 258.644 366.358 261.12 366.108C263.097 365.909 265.138 365.602 267.415 365.205Z" fill="#82583A"/>
<path d="M221.269 309.742C223.878 301.69 204.542 298.805 206.21 308.157C209.369 309.545 211.866 310.133 214.776 310.285C216.585 310.214 218.805 310.023 221.269 309.742Z" fill="black"/>
<path d="M109.608 233.184C114.211 253.671 119.929 274.114 126.465 292.671M326.878 227.867C329.262 239.736 330.476 247.819 329.25 260.435M329.25 260.435C325.956 294.337 307.81 334.066 268.291 364.816C268.036 365.014 267.733 365.149 267.415 365.205C265.138 365.602 263.097 365.909 261.12 366.108M329.25 260.435C444.016 -89.8319 -113.508 -14.6159 107.235 331.886C107.439 332.43 114.074 333.144 121.81 333.198M126.465 292.671L127.351 295.35M126.465 292.671C126.464 292.929 126.774 293.867 127.351 295.35M256.751 301.787C256.761 301.864 256.735 301.945 256.674 302.03M256.751 301.787C256.751 301.787 256.74 301.82 256.72 301.884M256.751 301.787L256.72 301.884M177.06 168.047C179.018 162.963 179.167 158.623 178.132 155.086M268.578 173.364C276.373 134.814 322.132 159.739 294.338 186.325C316.37 250.465 284.509 285.692 239.766 296.327C237.297 302.348 231.226 307.222 224.219 309.378M178.132 155.086C172.537 135.966 132.356 140.281 156.384 177.02C109.608 262.761 181.127 294.333 193.33 292.671C195.564 302.15 200.603 305.234 206.21 308.157M178.132 155.086C205.014 145.485 219.803 145.445 245.868 151.431M206.21 308.157C204.542 298.805 223.878 301.69 221.269 309.742M206.21 308.157C209.369 309.545 211.866 310.133 214.776 310.285M206.21 308.157C208.327 309.261 210.573 309.962 212.865 310.312M221.124 310.139C221.178 310.005 221.227 309.873 221.269 309.742M221.124 310.139C218.654 310.302 216.631 310.382 214.776 310.285M221.124 310.139C218.402 310.643 215.601 310.729 212.865 310.312M221.124 310.139C222.17 309.946 223.204 309.69 224.219 309.378M127.351 295.35C128.768 298.992 131.797 305.917 135.79 314.095M127.351 295.35L135.79 314.095M256.674 302.03C255.654 305.291 244.735 340.624 243.566 363.389C243.515 364.384 244.226 365.246 245.211 365.402C248.441 365.911 251.159 366.209 253.664 366.322M256.674 302.03C256.693 301.971 256.708 301.922 256.72 301.884M256.674 302.03C255.347 303.894 237.477 307.633 224.219 309.378M256.674 302.03L256.72 301.884M221.269 309.742C218.805 310.023 216.585 310.214 214.776 310.285M221.269 309.742C222.219 309.633 223.206 309.511 224.219 309.378M214.776 310.285C214.074 310.312 213.434 310.322 212.865 310.312M212.865 310.312C211.641 310.289 210.747 310.175 210.278 309.952C208.233 308.981 209.368 318.78 210.722 330.477C212.228 343.492 214.007 358.858 211.98 364.346C211.791 364.858 211.335 365.2 210.807 365.336C207.137 366.28 203.663 366.922 200.109 367.339M121.81 333.198C121.446 330.247 120.914 328.494 118.421 324.907M121.81 333.198C124.799 333.219 127.952 333.142 130.962 332.919M130.962 332.919C135.842 332.557 140.346 331.811 143.164 330.477L135.79 314.095M130.962 332.919C130.153 328.848 129.374 327.109 127.351 324.907M189.601 367.982C185.633 368.042 181.32 367.948 176.382 367.778C164.266 367.184 146.535 336.103 135.79 314.095M189.601 367.982C189.351 364.793 189.702 362.416 187.229 360.134M189.601 367.982C193.331 367.925 196.756 367.732 200.109 367.339M200.109 367.339C200.266 364.405 199.949 362.822 198.753 360.134M253.664 366.322C252.152 362.544 252.042 360.52 253.664 357.143M253.664 366.322C256.27 366.44 258.644 366.358 261.12 366.108M261.12 366.108C259.863 362.986 259.765 361.796 262.137 358.14" stroke="black" stroke-width="2" stroke-linecap="round"/>
</g>
<g id="Eyes">
<ellipse id="eye" cx="7.29307" cy="6.84398" rx="7.29307" ry="6.84398" transform="matrix(0.995801 0.0915409 -0.0946493 0.995511 169.882 248.111)" fill="black"/>
<g id="eye_reflection">
<ellipse id="big" cx="2.27908" cy="2.13875" rx="2.27908" ry="2.13875" transform="matrix(0.995801 0.0915409 -0.0946493 0.995511 171.359 251.631)" fill="white"/>
</g>
<g id="eye_reflection_2">
<ellipse id="eye_2" cx="7.29307" cy="6.84398" rx="7.29307" ry="6.84398" transform="matrix(0.995801 0.0915409 -0.0946493 0.995511 251.642 254.984)" fill="black"/>
<g id="eye_reflection_3">
<ellipse id="big_2" cx="2.27908" cy="2.13875" rx="2.27908" ry="2.13875" transform="matrix(0.995801 0.0915409 -0.0946493 0.995511 253.12 258.505)" fill="white"/>
</g>
</g>
</g>
</g>
</g>
</svg>
