<svg width="100%" height="100%" viewBox="0 0 400 400" fill="none" xmlns="http://www.w3.org/2000/svg">
<path d="M270.753 352.418C309.753 338.418 334.753 272.418 285.253 231.918C327.753 201.918 322.753 142.918 305.253 117.418C313.253 39.9177 302.253 12.9177 239.753 80.2457C229 76.1315 217.584 73.9177 205.753 73.9177C192.257 73.9177 179.3 76.7985 167.253 82.095C110.253 7.91769 104.753 39.9177 96.7532 114.918C62.7531 158.418 92.7531 231.918 133.753 237.918C136.86 294.684 153.467 347.141 169.253 359.418C178.753 363.918 179.753 346.418 180.753 339.918C184.253 353.918 190.253 367.918 201.253 354.918L207.753 339.918C212.739 341.365 220.361 341.19 226.253 339.918C220.753 347.918 222.185 353.245 232.253 354.918C244.499 356.173 264.753 354.572 270.753 352.418Z" fill="#F6D278"/>
<path d="M226.253 339.918C229.753 337.918 234.665 337.159 238.253 337.918C236.941 325.109 242.253 307.918 249.753 306.418M226.253 339.918C220.753 347.918 222.185 353.245 232.253 354.918C244.499 356.173 264.753 354.572 270.753 352.418C309.753 338.418 334.753 272.418 285.253 231.918C327.753 201.918 322.753 142.918 305.253 117.418C313.253 39.9177 302.253 12.9177 239.753 80.2457C229 76.1315 217.584 73.9177 205.753 73.9177C192.257 73.9177 179.3 76.7985 167.253 82.095C110.253 7.91769 104.753 39.9177 96.7532 114.918C62.7531 158.418 92.7531 231.918 133.753 237.918C136.86 294.684 153.467 347.141 169.253 359.418C178.753 363.918 179.753 346.418 180.753 339.918M226.253 339.918C220.361 341.19 212.739 341.365 207.753 339.918M207.753 339.918L201.253 354.918C190.253 367.918 184.253 353.918 180.753 339.918M207.753 339.918L216.253 306.418M180.753 339.918C180.753 319.418 179.753 332.418 180.753 310.418" stroke="#82583A"/>
<ellipse cx="9.96833" cy="10.2952" rx="9.96833" ry="10.2952" transform="matrix(0.999963 0.00857745 -0.00804145 0.999968 128.919 169.88)" fill="black"/>
<ellipse cx="3.1151" cy="3.21724" rx="3.1151" ry="3.21724" transform="matrix(0.999963 0.00857745 -0.00804145 0.999968 131.344 174.97)" fill="white"/>
<ellipse cx="9.96833" cy="10.2952" rx="9.96833" ry="10.2952" transform="matrix(0.999963 0.00857745 -0.00804145 0.999968 241.062 169.88)" fill="black"/>
<ellipse cx="3.1151" cy="3.21724" rx="3.1151" ry="3.21724" transform="matrix(0.999963 0.00857745 -0.00804145 0.999968 243.488 174.97)" fill="white"/>
<path d="M252.158 181.479C252.152 182.19 251.59 182.761 250.901 182.755C250.213 182.749 249.66 182.168 249.666 181.458C249.671 180.747 250.234 180.176 250.922 180.181C251.61 180.187 252.163 180.768 252.158 181.479Z" fill="white"/>
<ellipse cx="3.1151" cy="3.21724" rx="3.1151" ry="3.21724" transform="matrix(0.999963 0.00857745 -0.00804145 0.999968 131.344 174.97)" fill="white"/>
<ellipse cx="9.96833" cy="10.2952" rx="9.96833" ry="10.2952" transform="matrix(0.999963 0.00857745 -0.00804145 0.999968 241.062 169.88)" fill="black"/>
<ellipse cx="3.1151" cy="3.21724" rx="3.1151" ry="3.21724" transform="matrix(0.999963 0.00857745 -0.00804145 0.999968 243.488 174.97)" fill="white"/>
<path d="M195.821 187.926V193.717M195.821 193.717C206.412 205.299 212.642 193.717 212.642 193.717M195.821 193.717C186.475 205.942 177.753 193.717 177.753 193.717" stroke="#82583A" stroke-linecap="round"/>
<path d="M191.654 188.006L193.188 189.402C194.565 190.655 196.682 190.611 198.004 189.303L199.415 187.907C201.638 185.708 200.078 181.918 196.95 181.918L194.005 181.918C190.807 181.918 189.287 185.853 191.654 188.006Z" fill="#FFC0CB" stroke="#82583A"/>
<path d="M118.172 63.8418C118.515 60.6446 122.299 59.1385 124.746 61.2256L148.894 81.8286C151.185 83.7836 150.576 87.4741 147.777 88.588L120.242 99.547C117.444 100.661 114.465 98.3988 114.786 95.4039L118.172 63.8418Z" fill="#FFC0CB"/>
<path d="M288.302 57.9806C290.912 56.1878 294.471 57.9943 294.565 61.1593L295.547 94.3447C295.637 97.3794 292.446 99.404 289.739 98.03L261.391 83.6426C258.684 82.2685 258.434 78.4976 260.937 76.7786L288.302 57.9806Z" fill="#FFC0CB"/>
</svg>
