<svg width="100%" height="100%" viewBox="0 0 400 400" fill="none" xmlns="http://www.w3.org/2000/svg">
<g id="clownfishes">
<path id="fins" d="M149.761 120.752L149.5 120.326L149.761 120.753L149.761 120.753L149.761 120.753L149.758 120.754L149.749 120.76L149.714 120.782L149.578 120.864C149.46 120.936 149.29 121.039 149.079 121.166C148.658 121.419 148.076 121.766 147.432 122.142C146.15 122.889 144.597 123.763 143.579 124.228C141.95 124.971 140.342 124.367 138.871 123.364C137.731 122.586 136.575 121.5 135.445 120.437C135.121 120.133 134.799 119.83 134.48 119.537C133.012 118.189 131.609 117.048 130.24 116.61C129.571 116.396 128.925 116.356 128.287 116.535C127.647 116.715 126.971 117.128 126.265 117.89C124.828 119.443 124.416 120.775 124.514 121.935C124.614 123.121 125.254 124.232 126.136 125.316C126.696 126.005 127.308 126.633 127.911 127.251C128.275 127.625 128.636 127.995 128.98 128.373C129.42 128.857 129.823 129.346 130.117 129.838C130.41 130.328 130.616 130.855 130.616 131.409C130.616 131.972 130.374 132.555 130.053 133.117C129.726 133.689 129.279 134.302 128.795 134.934C128.614 135.171 128.427 135.412 128.238 135.655C127.401 136.731 126.517 137.869 125.844 139.059C125.021 140.517 124.572 141.961 124.885 143.357C125.195 144.741 126.287 146.214 128.855 147.66C129.774 148.178 130.565 148.376 131.257 148.363C131.946 148.35 132.574 148.127 133.169 147.74C134.384 146.948 135.415 145.502 136.428 143.886C136.637 143.553 136.846 143.211 137.055 142.869C137.832 141.599 138.616 140.316 139.459 139.379C140.001 138.777 140.601 138.274 141.285 138.004C141.986 137.726 142.742 137.705 143.549 138.013C146.305 139.062 150.531 141.746 153.278 143.584C153.442 143.694 153.604 143.877 153.627 144.143C153.647 144.38 153.544 144.574 153.46 144.695C153.296 144.934 153.007 145.171 152.736 145.382C152.622 145.471 152.503 145.562 152.381 145.655C151.867 146.045 151.306 146.473 150.868 146.972C150.336 147.578 150.089 148.178 150.288 148.829C150.502 149.53 151.273 150.455 153.245 151.564C155.231 152.681 156.359 152.866 156.976 152.713C157.509 152.581 157.792 152.148 157.932 151.433C158.041 150.873 158.039 150.264 158.037 149.703C158.036 149.534 158.035 149.369 158.038 149.212C158.04 149.05 158.047 148.889 158.063 148.746C158.079 148.612 158.108 148.448 158.179 148.302C158.256 148.144 158.424 147.939 158.721 147.911C158.964 147.889 159.165 148.004 159.289 148.092C163.52 151.086 171.067 155.797 176.2 158.042C176.411 158.134 176.657 158.29 176.764 158.571C176.879 158.872 176.774 159.146 176.665 159.323C176.556 159.5 176.395 159.662 176.232 159.805C176.064 159.953 175.865 160.106 175.654 160.261C175.495 160.378 175.329 160.498 175.159 160.619C174.397 161.164 173.564 161.76 173.012 162.44C172.682 162.845 172.494 163.233 172.464 163.608C172.436 163.966 172.546 164.386 172.961 164.882C173.825 165.914 175.908 167.151 180.154 168.524C184.398 169.897 186.815 170.067 188.138 169.67C188.773 169.479 189.138 169.163 189.355 168.792C189.58 168.406 189.675 167.909 189.669 167.318C189.659 166.415 189.425 165.435 189.201 164.499C189.124 164.175 189.047 163.857 188.982 163.549C188.864 162.991 188.771 162.413 188.852 161.96C188.895 161.72 188.995 161.463 189.213 161.27C189.435 161.074 189.714 161 190 161C198.273 161 206.158 157.743 211.972 152.637C217.787 147.53 221.5 140.605 221.5 133.283C221.5 128.733 219.317 122.482 215.573 116.631C211.833 110.787 206.585 105.42 200.536 102.593L200.165 102.419L200.262 102.021C200.485 101.114 200.75 100.221 201.009 99.3625C201.033 99.2831 201.056 99.204 201.08 99.1252C201.314 98.349 201.539 97.6057 201.722 96.8949C202.131 95.3091 202.305 93.9964 201.991 92.9772C201.696 92.0209 200.934 91.2213 199.177 90.7423C197.394 90.2562 194.653 90.1244 190.545 90.4979C184.943 91.0071 181.939 91.909 180.482 92.9154C179.771 93.4067 179.467 93.8959 179.37 94.3461C179.271 94.8057 179.37 95.3122 179.634 95.8677C180.114 96.8751 181.047 97.8658 181.876 98.7464C181.984 98.8604 182.089 98.9725 182.192 99.0826C182.61 99.5309 183.019 99.9867 183.21 100.374C183.303 100.564 183.405 100.855 183.293 101.157C183.172 101.485 182.878 101.632 182.628 101.698C178.563 102.771 172.991 105.685 168.399 108.36C166.111 109.693 164.08 110.957 162.621 111.889C161.892 112.355 161.306 112.737 160.902 113.003C160.701 113.136 160.545 113.239 160.439 113.31L160.32 113.39L160.29 113.41L160.282 113.415L160.28 113.416L160.28 113.416C160.28 113.416 160.28 113.417 160 113.002L160.28 113.417L159.5 113.943L149.761 120.752ZM149.761 120.752L150.599 120.238L149.691 119.864L149.691 119.864L149.69 119.864L149.69 119.864L149.686 119.862L149.668 119.854C149.659 119.851 149.648 119.846 149.635 119.84C149.622 119.834 149.607 119.828 149.59 119.82C149.521 119.789 149.419 119.742 149.292 119.678C149.038 119.551 148.685 119.362 148.292 119.111C147.499 118.606 146.582 117.877 145.982 116.953C145.393 116.047 145.109 114.961 145.544 113.671C145.989 112.353 147.206 110.753 149.791 108.907C152.378 107.059 154.234 106.476 155.546 106.539C156.821 106.6 157.673 107.275 158.266 108.207C158.869 109.155 159.183 110.344 159.342 111.324C159.421 111.809 159.461 112.233 159.481 112.534C159.49 112.684 159.495 112.803 159.498 112.884C159.499 112.924 159.499 112.955 159.5 112.975L159.5 112.997L159.5 113.002L159.5 113.002V113.002L149.761 120.752Z" fill="#FFA500" stroke="black"/>
<path id="body" d="M221.5 133.283C221.5 147.957 208.142 160.5 191.573 160.5C180.416 160.5 171.709 156.165 164.142 151.176C161.75 149.6 159.49 147.971 157.298 146.391C156.008 145.461 154.742 144.549 153.487 143.674C150.119 141.327 146.855 139.272 143.549 138.013C142.742 137.705 141.986 137.726 141.285 138.004C140.601 138.275 140.001 138.777 139.459 139.379C138.616 140.316 137.832 141.599 137.055 142.869C136.846 143.212 136.637 143.553 136.428 143.886C135.415 145.502 134.384 146.948 133.169 147.74C132.574 148.127 131.946 148.35 131.257 148.363C130.565 148.376 129.774 148.178 128.855 147.661C126.287 146.214 125.195 144.741 124.885 143.357C124.572 141.961 125.021 140.517 125.844 139.06C126.517 137.869 127.401 136.731 128.238 135.655C128.427 135.412 128.614 135.171 128.795 134.934C129.279 134.302 129.726 133.689 130.053 133.117C130.374 132.555 130.616 131.972 130.616 131.409C130.616 130.856 130.41 130.328 130.117 129.838C129.823 129.346 129.42 128.857 128.98 128.373C128.636 127.995 128.275 127.625 127.911 127.251C127.308 126.633 126.696 126.005 126.136 125.316C125.254 124.232 124.614 123.121 124.514 121.935C124.416 120.775 124.828 119.443 126.265 117.89C126.971 117.128 127.647 116.715 128.287 116.535C128.925 116.356 129.571 116.396 130.24 116.61C131.609 117.048 133.012 118.189 134.48 119.537C134.799 119.83 135.121 120.133 135.445 120.437C136.575 121.5 137.731 122.587 138.871 123.364C140.342 124.367 141.95 124.971 143.579 124.228C146.869 122.727 150.294 120.478 153.87 117.971C154.977 117.194 156.099 116.393 157.236 115.581C159.786 113.76 162.417 111.88 165.157 110.085C173.078 104.896 181.781 100.5 191.573 100.5C199.758 100.5 207.236 105.799 212.698 112.619C218.162 119.443 221.5 127.656 221.5 133.283Z" fill="#FFA500" stroke="black"/>
<path id="color" d="M191.872 100.51C194.34 100.596 195.85 100.859 198.269 101.678C191.896 112.97 188.818 122.235 189.016 131.321C189.214 140.376 192.663 149.181 199.2 159.571C196.438 160.196 194.691 160.425 191.878 160.493C185.737 148.206 182.86 138.81 182.942 129.708C183.023 120.611 186.059 111.744 191.872 100.51ZM157.413 115.54L157.703 115.334L166.638 109.234C161.726 118.901 160.069 125.953 160.388 132.247C160.724 138.859 163.24 144.576 166.291 151.507L166.313 151.557L166.313 151.558C166.507 151.997 166.702 152.442 166.9 152.892C165.325 151.911 163.948 151.034 162.609 150.148C162.609 150.148 162.608 150.148 162.608 150.148C162.607 150.147 162.606 150.146 162.605 150.146C162.602 150.144 162.6 150.142 162.597 150.14L162.596 150.139L162.597 150.139L162.591 150.136C160.216 148.564 157.953 146.957 154.909 144.681C152.41 138.684 151.215 134.221 151.222 130.089C151.23 125.97 152.432 122.128 154.829 117.373C155.68 116.773 156.542 116.16 157.413 115.54L157.413 115.54Z" fill="white" stroke="black"/>
<g id="Left_eye">
<circle id="eye" cx="207" cy="131" r="3" fill="black"/>
<g id="eye_reflection">
<circle id="big" cx="205.68" cy="130.415" r="0.9375" fill="white"/>
<path id="small" d="M207.367 131.352C207.367 131.559 207.199 131.727 206.992 131.727C206.785 131.727 206.617 131.559 206.617 131.352C206.617 131.145 206.785 130.977 206.992 130.977C207.199 130.977 207.367 131.145 207.367 131.352Z" fill="white"/>
</g>
</g>
<path id="Vector 7" d="M153 110.5C154.307 112.121 156.147 114.102 156 116M150.5 114.5C152.59 115.014 154.319 117.636 153.5 118M196.5 95.5C197.018 98.0733 196.651 99.2616 195 101M191.5 95.5C192.326 97.6052 192.212 98.5427 191.5 100M187 96.5C188.199 98.0941 188.317 98.8303 188 100M153 148.5C154.299 148.093 154.719 147.642 155 146.5M156.5 147.5C156.328 148.697 156.019 149.255 155 150M180 161C180.223 162.576 179.518 163.795 178 164.5M182.5 162C182.99 163.927 182.751 165.287 181.5 166.5M185.5 163C186.516 164.675 186.099 166.047 185.5 167.5M219 143.5C216.67 143.664 215.981 142.958 214.5 141" stroke="black" stroke-width="0.7" stroke-linecap="round"/>
<g id="Group 3">
<path id="fins_2" d="M210.761 218.97L210.5 218.544L210.761 218.97L210.761 218.97L210.761 218.971L210.758 218.972L210.749 218.978L210.714 218.999L210.578 219.082C210.46 219.154 210.29 219.257 210.079 219.383C209.658 219.637 209.076 219.984 208.432 220.36C207.15 221.107 205.597 221.981 204.579 222.445C202.95 223.188 201.342 222.585 199.871 221.582C198.731 220.804 197.575 219.717 196.445 218.655C196.121 218.35 195.799 218.048 195.48 217.755C194.012 216.406 192.609 215.265 191.24 214.827C190.571 214.614 189.925 214.574 189.287 214.753C188.647 214.933 187.971 215.346 187.265 216.108C185.828 217.66 185.416 218.992 185.514 220.153C185.614 221.339 186.254 222.449 187.136 223.533C187.696 224.222 188.308 224.85 188.911 225.469C189.275 225.842 189.636 226.213 189.98 226.59C190.42 227.075 190.823 227.564 191.117 228.055C191.41 228.546 191.616 229.073 191.616 229.627C191.616 230.189 191.374 230.773 191.053 231.335C190.726 231.906 190.279 232.52 189.795 233.152C189.614 233.389 189.427 233.629 189.238 233.873C188.401 234.948 187.517 236.086 186.844 237.277C186.021 238.735 185.572 240.178 185.885 241.574C186.195 242.958 187.287 244.431 189.855 245.878C190.774 246.396 191.565 246.594 192.257 246.581C192.946 246.568 193.574 246.345 194.169 245.957C195.384 245.165 196.415 243.719 197.428 242.104C197.637 241.77 197.846 241.429 198.055 241.087C198.832 239.817 199.616 238.534 200.459 237.597C201.001 236.994 201.601 236.492 202.285 236.221C202.986 235.944 203.742 235.923 204.549 236.23C207.305 237.28 211.531 239.964 214.278 241.802C214.442 241.912 214.604 242.094 214.627 242.36C214.647 242.598 214.544 242.791 214.46 242.913C214.296 243.151 214.007 243.388 213.736 243.6C213.622 243.689 213.503 243.779 213.381 243.872C212.867 244.263 212.306 244.69 211.868 245.189C211.336 245.796 211.089 246.395 211.288 247.047C211.502 247.747 212.273 248.673 214.245 249.782C216.231 250.899 217.359 251.083 217.976 250.93C218.509 250.798 218.792 250.366 218.932 249.65C219.041 249.09 219.039 248.481 219.037 247.92C219.036 247.751 219.035 247.587 219.038 247.43C219.04 247.267 219.047 247.107 219.063 246.964C219.079 246.83 219.108 246.665 219.179 246.52C219.256 246.362 219.424 246.156 219.721 246.129C219.964 246.106 220.165 246.222 220.289 246.309C224.52 249.304 232.067 254.014 237.2 256.259C237.411 256.352 237.657 256.508 237.764 256.788C237.879 257.089 237.774 257.363 237.665 257.54C237.556 257.717 237.395 257.879 237.232 258.023C237.064 258.171 236.865 258.324 236.654 258.479C236.495 258.596 236.329 258.715 236.159 258.837C235.397 259.382 234.564 259.978 234.012 260.657C233.682 261.063 233.494 261.45 233.464 261.825C233.436 262.184 233.546 262.604 233.961 263.099C234.825 264.132 236.908 265.368 241.154 266.742C245.398 268.115 247.815 268.284 249.138 267.887C249.773 267.696 250.138 267.381 250.355 267.009C250.58 266.624 250.675 266.127 250.669 265.535C250.659 264.632 250.425 263.653 250.201 262.716C250.124 262.393 250.047 262.075 249.982 261.766C249.864 261.208 249.771 260.631 249.852 260.177C249.895 259.937 249.995 259.681 250.213 259.488C250.435 259.291 250.714 259.218 251 259.218C259.273 259.218 267.158 255.96 272.972 250.854C278.787 245.748 282.5 238.822 282.5 231.5C282.5 226.951 280.317 220.699 276.573 214.848C272.833 209.005 267.585 203.638 261.536 200.81L261.165 200.637L261.262 200.238C261.485 199.332 261.75 198.438 262.009 197.58C262.033 197.501 262.056 197.422 262.08 197.343C262.314 196.567 262.539 195.823 262.722 195.112C263.131 193.527 263.305 192.214 262.991 191.195C262.696 190.238 261.934 189.439 260.177 188.96C258.394 188.474 255.653 188.342 251.545 188.715C245.943 189.225 242.939 190.126 241.482 191.133C240.771 191.624 240.467 192.113 240.37 192.564C240.271 193.023 240.37 193.53 240.634 194.085C241.114 195.093 242.047 196.083 242.876 196.964C242.984 197.078 243.089 197.19 243.192 197.3C243.61 197.748 244.019 198.204 244.21 198.592C244.303 198.781 244.405 199.073 244.293 199.375C244.172 199.702 243.878 199.849 243.628 199.915C239.563 200.989 233.991 203.903 229.399 206.578C227.111 207.91 225.08 209.175 223.621 210.107C222.892 210.572 222.306 210.955 221.902 211.22C221.701 211.353 221.545 211.457 221.439 211.527L221.32 211.607L221.29 211.627L221.282 211.632L221.28 211.634L221.28 211.634C221.28 211.634 221.28 211.634 221 211.22L221.28 211.634L220.5 212.16L210.761 218.97ZM210.761 218.97L211.599 218.456L210.691 218.082L210.691 218.082L210.69 218.081L210.69 218.081L210.686 218.08L210.668 218.072C210.659 218.068 210.648 218.063 210.635 218.058C210.622 218.052 210.607 218.045 210.59 218.038C210.521 218.006 210.419 217.959 210.292 217.896C210.038 217.769 209.685 217.579 209.292 217.329C208.499 216.824 207.582 216.095 206.982 215.171C206.393 214.264 206.109 213.179 206.544 211.889C206.989 210.571 208.206 208.971 210.791 207.124C213.378 205.276 215.234 204.694 216.546 204.756C217.821 204.817 218.673 205.493 219.266 206.424C219.869 207.373 220.183 208.562 220.342 209.542C220.421 210.027 220.461 210.45 220.481 210.751C220.49 210.902 220.495 211.021 220.498 211.102C220.499 211.142 220.499 211.173 220.5 211.193L220.5 211.214L220.5 211.219L220.5 211.22V211.22L210.761 218.97Z" fill="#FFA500" stroke="black"/>
<path id="body_2" d="M282.5 231.5C282.5 246.175 269.142 258.718 252.573 258.718C241.416 258.718 232.709 254.382 225.142 249.394C222.75 247.817 220.49 246.188 218.298 244.608C217.008 243.679 215.742 242.766 214.487 241.892C211.119 239.545 207.855 237.489 204.549 236.23C203.742 235.923 202.986 235.944 202.285 236.221C201.601 236.492 201.001 236.994 200.459 237.597C199.616 238.534 198.832 239.817 198.055 241.087C197.846 241.429 197.637 241.77 197.428 242.104C196.415 243.719 195.384 245.165 194.169 245.957C193.574 246.345 192.946 246.568 192.257 246.581C191.565 246.594 190.774 246.396 189.855 245.878C187.287 244.431 186.195 242.958 185.885 241.574C185.572 240.178 186.021 238.735 186.844 237.277C187.517 236.086 188.401 234.949 189.238 233.873C189.427 233.629 189.614 233.389 189.795 233.152C190.279 232.52 190.726 231.906 191.053 231.335C191.374 230.773 191.616 230.189 191.616 229.627C191.616 229.073 191.41 228.546 191.117 228.055C190.823 227.564 190.42 227.075 189.98 226.591C189.636 226.213 189.275 225.843 188.911 225.469C188.308 224.85 187.696 224.222 187.136 223.533C186.254 222.449 185.614 221.339 185.514 220.153C185.416 218.992 185.828 217.66 187.265 216.108C187.971 215.346 188.647 214.933 189.287 214.753C189.925 214.574 190.571 214.614 191.24 214.827C192.609 215.265 194.012 216.406 195.48 217.755C195.799 218.048 196.121 218.35 196.445 218.655C197.575 219.717 198.731 220.804 199.871 221.582C201.342 222.585 202.95 223.188 204.579 222.445C207.869 220.945 211.294 218.696 214.87 216.188C215.977 215.412 217.099 214.611 218.236 213.798C220.786 211.977 223.417 210.098 226.157 208.303C234.078 203.114 242.781 198.718 252.573 198.718C260.758 198.718 268.236 204.016 273.698 210.837C279.162 217.66 282.5 225.873 282.5 231.5Z" fill="#FFA500" stroke="black"/>
<path id="color_2" d="M252.872 198.727C255.34 198.813 256.85 199.076 259.269 199.895C252.896 211.188 249.818 220.452 250.016 229.539C250.214 238.593 253.663 247.399 260.2 257.788C257.438 258.413 255.691 258.643 252.878 258.711C246.737 246.423 243.86 237.028 243.942 227.925C244.023 218.829 247.059 209.962 252.872 198.727ZM218.413 213.758L218.703 213.551L227.638 207.451C222.726 217.118 221.069 224.17 221.388 230.464C221.724 237.076 224.24 242.794 227.291 249.725L227.313 249.774L227.313 249.775C227.507 250.215 227.702 250.659 227.9 251.109C226.325 250.129 224.948 249.252 223.609 248.365C223.609 248.365 223.608 248.365 223.608 248.365C223.607 248.365 223.606 248.364 223.605 248.363C223.602 248.361 223.6 248.359 223.597 248.357L223.596 248.357L223.597 248.357L223.591 248.353C221.216 246.781 218.953 245.174 215.909 242.898C213.41 236.901 212.215 232.438 212.222 228.306C212.23 224.187 213.432 220.345 215.829 215.59C216.68 214.991 217.542 214.378 218.413 213.758L218.413 213.758Z" fill="white" stroke="black"/>
<g id="Left_eye_2">
<circle id="eye_2" cx="268" cy="229.218" r="3" fill="black"/>
<g id="eye_reflection_2">
<circle id="big_2" cx="266.68" cy="228.632" r="0.9375" fill="white"/>
<path id="small_2" d="M268.367 229.57C268.367 229.777 268.199 229.945 267.992 229.945C267.785 229.945 267.617 229.777 267.617 229.57C267.617 229.363 267.785 229.195 267.992 229.195C268.199 229.195 268.367 229.363 268.367 229.57Z" fill="white"/>
</g>
</g>
<path id="Vector 8" d="M214 208.718C215.307 210.339 217.147 212.319 217 214.218M211.5 212.718C213.59 213.232 215.319 215.854 214.5 216.218M257.5 193.718C258.018 196.291 257.651 197.479 256 199.218M252.5 193.718C253.326 195.823 253.212 196.76 252.5 198.218M248 194.718C249.199 196.312 249.317 197.048 249 198.218M214 246.718C215.299 246.311 215.719 245.86 216 244.718M217.5 245.718C217.328 246.915 217.019 247.472 216 248.218M241 259.218C241.223 260.793 240.518 262.012 239 262.718M243.5 260.218C243.99 262.145 243.751 263.504 242.5 264.718M246.5 261.218C247.516 262.892 247.099 264.264 246.5 265.718M280 241.718C277.67 241.882 276.981 241.175 275.5 239.218" stroke="black" stroke-width="0.7" stroke-linecap="round"/>
</g>
<g id="Group 4">
<path id="fins_3" d="M265.761 57.97L265.5 57.5438L265.761 57.97L265.761 57.9701L265.761 57.9705L265.758 57.972L265.749 57.9775L265.714 57.9992L265.578 58.082C265.46 58.1536 265.29 58.2568 265.079 58.3834C264.658 58.6367 264.076 58.9839 263.432 59.3596C262.15 60.1069 260.597 60.9809 259.579 61.4453C257.95 62.1883 256.342 61.5846 254.871 60.5815C253.731 59.804 252.575 58.7174 251.445 57.6546C251.121 57.3501 250.799 57.0476 250.48 56.7549C249.012 55.4064 247.609 54.2651 246.24 53.8274C245.571 53.6135 244.925 53.5736 244.287 53.7528C243.647 53.9327 242.971 54.3456 242.265 55.1079C240.828 56.6601 240.416 57.9922 240.514 59.1527C240.614 60.3385 241.254 61.4492 242.136 62.5331C242.696 63.222 243.308 63.8503 243.911 64.4688C244.275 64.8425 244.636 65.2126 244.98 65.5904C245.42 66.0746 245.823 66.5638 246.117 67.0552C246.41 67.5458 246.616 68.073 246.616 68.6267C246.616 69.1892 246.374 69.7725 246.053 70.3346C245.726 70.9063 245.279 71.5197 244.795 72.1519C244.614 72.3889 244.427 72.6292 244.238 72.8728C243.401 73.9485 242.517 75.0862 241.844 76.277C241.021 77.7346 240.572 79.1781 240.885 80.5743C241.195 81.9584 242.287 83.4312 244.855 84.878C245.774 85.3957 246.565 85.5937 247.257 85.5808C247.946 85.5679 248.574 85.3449 249.169 84.957C250.384 84.165 251.415 82.7192 252.428 81.1036C252.637 80.7703 252.846 80.429 253.055 80.0868C253.832 78.8166 254.616 77.5339 255.459 76.5965C256.001 75.9941 256.601 75.492 257.285 75.2213C257.986 74.9439 258.742 74.9228 259.549 75.2302C262.305 76.2799 266.531 78.9635 269.278 80.802C269.442 80.9119 269.604 81.0944 269.627 81.3602C269.647 81.5977 269.544 81.7912 269.46 81.9126C269.296 82.1511 269.007 82.3882 268.736 82.5995C268.622 82.6887 268.503 82.7794 268.381 82.8721C267.867 83.263 267.306 83.6902 266.868 84.1891C266.336 84.7957 266.089 85.3952 266.288 86.0466C266.502 86.7473 267.273 87.6725 269.245 88.7817C271.231 89.8987 272.359 90.0832 272.976 89.9305C273.509 89.7983 273.792 89.3659 273.932 88.6504C274.041 88.0901 274.039 87.481 274.037 86.9201C274.036 86.7514 274.035 86.587 274.038 86.4296C274.04 86.2671 274.047 86.1069 274.063 85.9638C274.079 85.8296 274.108 85.6654 274.179 85.5199C274.256 85.3616 274.424 85.1562 274.721 85.1288C274.964 85.1063 275.165 85.2219 275.289 85.3094C279.52 88.3035 287.067 93.0145 292.2 95.2594C292.411 95.3517 292.657 95.5079 292.764 95.7884C292.879 96.0895 292.774 96.3634 292.665 96.5402C292.556 96.717 292.395 96.8794 292.232 97.0228C292.064 97.1708 291.865 97.324 291.654 97.4789C291.495 97.5959 291.329 97.7151 291.159 97.8367C290.397 98.382 289.564 98.9778 289.012 99.6574C288.682 100.063 288.494 100.45 288.464 100.825C288.436 101.184 288.546 101.604 288.961 102.099C289.825 103.132 291.908 104.368 296.154 105.742C300.398 107.115 302.815 107.284 304.138 106.887C304.773 106.696 305.138 106.381 305.355 106.009C305.58 105.624 305.675 105.127 305.669 104.535C305.659 103.632 305.425 102.653 305.201 101.716C305.124 101.393 305.047 101.075 304.982 100.766C304.864 100.208 304.771 99.631 304.852 99.1773C304.895 98.9372 304.995 98.6809 305.213 98.4879C305.435 98.2911 305.714 98.2175 306 98.2175C314.273 98.2175 322.158 94.9601 327.972 89.8544C333.787 84.7477 337.5 77.8223 337.5 70.5003C337.5 65.951 335.317 59.6993 331.573 53.8483C327.833 48.0046 322.585 42.638 316.536 39.8103L316.165 39.6366L316.262 39.2382C316.485 38.3318 316.75 37.4381 317.009 36.5801C317.033 36.5006 317.056 36.4215 317.08 36.3428C317.314 35.5665 317.539 34.8233 317.722 34.1124C318.131 32.5266 318.305 31.2139 317.991 30.1948C317.696 29.2384 316.934 28.4388 315.177 27.9598C313.394 27.4738 310.653 27.3419 306.545 27.7154C300.943 28.2247 297.939 29.1265 296.482 30.133C295.771 30.6242 295.467 31.1134 295.37 31.5636C295.271 32.0232 295.37 32.5298 295.634 33.0852C296.114 34.0927 297.047 35.0833 297.876 35.9639C297.984 36.0779 298.089 36.19 298.192 36.3001C298.61 36.7484 299.019 37.2043 299.21 37.5915C299.303 37.7815 299.405 38.0729 299.293 38.3749C299.172 38.702 298.878 38.8492 298.628 38.9152C294.563 39.989 288.991 42.9028 284.399 45.5775C282.111 46.9101 280.08 48.1749 278.621 49.1066C277.892 49.5723 277.306 49.9547 276.902 50.2203C276.701 50.3532 276.545 50.4568 276.439 50.5272L276.32 50.6072L276.29 50.6274L276.282 50.6325L276.28 50.6337L276.28 50.634C276.28 50.634 276.28 50.634 276 50.2196L276.28 50.634L275.5 51.1603L265.761 57.97ZM265.761 57.97L266.599 57.456L265.691 57.0816L265.691 57.0816L265.69 57.0815L265.69 57.0814L265.686 57.0798L265.668 57.0719C265.659 57.0682 265.648 57.0635 265.635 57.0577C265.622 57.052 265.607 57.0453 265.59 57.0375C265.521 57.0065 265.419 56.9591 265.292 56.8958C265.038 56.769 264.685 56.5791 264.292 56.3289C263.499 55.8237 262.582 55.0945 261.982 54.1706C261.393 53.2644 261.109 52.1786 261.544 50.889C261.989 49.5706 263.206 47.9705 265.791 46.1242C268.378 44.2762 270.234 43.6935 271.546 43.7562C272.821 43.8171 273.673 44.4929 274.266 45.4244C274.869 46.3729 275.183 47.5617 275.342 48.5418C275.421 49.0269 275.461 49.4501 275.481 49.7512C275.49 49.9015 275.495 50.0208 275.498 50.1015C275.499 50.1419 275.499 50.1725 275.5 50.1925L275.5 50.2144L275.5 50.2192L275.5 50.2196V50.2199L265.761 57.97Z" fill="#FFA500" stroke="black"/>
<path id="body_3" d="M337.5 70.5004C337.5 85.1748 324.142 97.7175 307.573 97.7175C296.416 97.7175 287.709 93.3821 280.142 88.394C277.75 86.8174 275.49 85.1882 273.298 83.6082C272.008 82.6788 270.742 81.7664 269.487 80.8918C266.119 78.5447 262.855 76.4892 259.549 75.2303C258.742 74.9229 257.986 74.9439 257.285 75.2214C256.601 75.492 256.001 75.9942 255.459 76.5966C254.616 77.534 253.832 78.8167 253.055 80.0869C252.846 80.4291 252.637 80.7703 252.428 81.1037C251.415 82.7193 250.384 84.1651 249.169 84.9571C248.574 85.3449 247.946 85.568 247.257 85.5809C246.565 85.5937 245.774 85.3958 244.855 84.8781C242.287 83.4312 241.195 81.9585 240.885 80.5744C240.572 79.1782 241.021 77.7347 241.844 76.2771C242.517 75.0863 243.401 73.9486 244.238 72.8728C244.427 72.6293 244.614 72.389 244.795 72.1519C245.279 71.5197 245.726 70.9063 246.053 70.3347C246.374 69.7726 246.616 69.1893 246.616 68.6268C246.616 68.0731 246.41 67.5459 246.117 67.0552C245.823 66.5639 245.42 66.0747 244.98 65.5905C244.636 65.2127 244.275 64.8425 243.911 64.4688C243.308 63.8504 242.696 63.2221 242.136 62.5332C241.254 61.4493 240.614 60.3386 240.514 59.1528C240.416 57.9923 240.828 56.6602 242.265 55.108C242.971 54.3456 243.647 53.9328 244.287 53.7529C244.925 53.5736 245.571 53.6136 246.24 53.8274C247.609 54.2652 249.012 55.4065 250.48 56.755C250.799 57.0477 251.121 57.3502 251.445 57.6547C252.575 58.7175 253.731 59.8041 254.871 60.5816C256.342 61.5846 257.95 62.1884 259.579 61.4454C262.869 59.945 266.294 57.6957 269.87 55.1882C270.977 54.4117 272.099 53.6107 273.236 52.7982C275.786 50.9772 278.417 49.0978 281.157 47.3026C289.078 42.1137 297.781 37.7175 307.573 37.7175C315.758 37.7175 323.236 43.0164 328.698 49.8369C334.162 56.6602 337.5 64.8735 337.5 70.5004Z" fill="#FFA500" stroke="black"/>
<path id="color_3" d="M307.872 37.7272C310.34 37.8134 311.85 38.0762 314.269 38.8954C307.896 50.1878 304.818 59.4523 305.016 68.5386C305.214 77.5932 308.663 86.3988 315.2 96.7883C312.438 97.4132 310.691 97.6429 307.878 97.7108C301.737 85.423 298.86 76.0277 298.942 66.9251C299.023 57.8288 302.059 48.9616 307.872 37.7272ZM273.413 52.7575L273.703 52.5515L282.638 46.4512C277.726 56.1183 276.069 63.1702 276.388 69.4645C276.724 76.0761 279.24 81.7937 282.291 88.7246L282.313 88.7741L282.313 88.7753C282.507 89.2148 282.702 89.6593 282.9 90.1094C281.325 89.1285 279.948 88.2518 278.609 87.3652C278.609 87.3652 278.608 87.3652 278.608 87.3652C278.607 87.3645 278.606 87.3639 278.605 87.3632C278.602 87.3612 278.6 87.3591 278.597 87.357L278.596 87.357L278.597 87.357L278.591 87.3532C276.216 85.7813 273.953 84.1744 270.909 81.898C268.41 75.9013 267.215 71.4383 267.222 67.3064C267.23 63.1874 268.432 59.3455 270.829 54.5901C271.68 53.9908 272.542 53.3778 273.413 52.758L273.413 52.7575Z" fill="white" stroke="black"/>
<g id="Left_eye_3">
<circle id="eye_3" cx="323" cy="68.2175" r="3" fill="black"/>
<g id="eye_reflection_3">
<circle id="big_3" cx="321.68" cy="67.6322" r="0.9375" fill="white"/>
<path id="small_3" d="M323.367 68.5697C323.367 68.7768 323.199 68.9447 322.992 68.9447C322.785 68.9447 322.617 68.7768 322.617 68.5697C322.617 68.3626 322.785 68.1947 322.992 68.1947C323.199 68.1947 323.367 68.3626 323.367 68.5697Z" fill="white"/>
</g>
</g>
<path id="Vector 8_2" d="M269 47.7175C270.307 49.339 272.147 51.3191 272 53.2175M266.5 51.7175C268.59 52.2318 270.319 54.8537 269.5 55.2175M312.5 32.7175C313.018 35.2909 312.651 36.4791 311 38.2175M307.5 32.7175C308.326 34.8228 308.212 35.7602 307.5 37.2175M303 33.7175C304.199 35.3116 304.317 36.0478 304 37.2175M269 85.7175C270.299 85.3109 270.719 84.8597 271 83.7175M272.5 84.7175C272.328 85.9146 272.019 86.4724 271 87.2175M296 98.2175C296.223 99.7934 295.518 101.012 294 101.718M298.5 99.2175C298.99 101.145 298.751 102.504 297.5 103.718M301.5 100.218C302.516 101.892 302.099 103.264 301.5 104.718M335 80.7175C332.67 80.8818 331.981 80.1752 330.5 78.2175" stroke="black" stroke-width="0.7" stroke-linecap="round"/>
<g id="Group 3_2">
<path id="fins_4" d="M308.761 151.97L308.5 151.544L308.761 151.97L308.761 151.97L308.761 151.971L308.758 151.972L308.749 151.978L308.714 151.999L308.578 152.082C308.46 152.154 308.29 152.257 308.079 152.383C307.658 152.637 307.076 152.984 306.432 153.36C305.15 154.107 303.597 154.981 302.579 155.445C300.95 156.188 299.342 155.585 297.871 154.582C296.731 153.804 295.575 152.717 294.445 151.655C294.121 151.35 293.799 151.048 293.48 150.755C292.012 149.406 290.609 148.265 289.24 147.827C288.571 147.614 287.925 147.574 287.287 147.753C286.647 147.933 285.971 148.346 285.265 149.108C283.828 150.66 283.416 151.992 283.514 153.153C283.614 154.339 284.254 155.449 285.136 156.533C285.696 157.222 286.308 157.85 286.911 158.469C287.275 158.842 287.636 159.213 287.98 159.59C288.42 160.075 288.823 160.564 289.117 161.055C289.41 161.546 289.616 162.073 289.616 162.627C289.616 163.189 289.374 163.773 289.053 164.335C288.726 164.906 288.279 165.52 287.795 166.152C287.614 166.389 287.427 166.629 287.238 166.873C286.401 167.948 285.517 169.086 284.844 170.277C284.021 171.735 283.572 173.178 283.885 174.574C284.195 175.958 285.287 177.431 287.855 178.878C288.774 179.396 289.565 179.594 290.257 179.581C290.946 179.568 291.574 179.345 292.169 178.957C293.384 178.165 294.415 176.719 295.428 175.104C295.637 174.77 295.846 174.429 296.055 174.087C296.832 172.817 297.616 171.534 298.459 170.597C299.001 169.994 299.601 169.492 300.285 169.221C300.986 168.944 301.742 168.923 302.549 169.23C305.305 170.28 309.531 172.964 312.278 174.802C312.442 174.912 312.604 175.094 312.627 175.36C312.647 175.598 312.544 175.791 312.46 175.913C312.296 176.151 312.007 176.388 311.736 176.6C311.622 176.689 311.503 176.779 311.381 176.872C310.867 177.263 310.306 177.69 309.868 178.189C309.336 178.796 309.089 179.395 309.288 180.047C309.502 180.747 310.273 181.673 312.245 182.782C314.231 183.899 315.359 184.083 315.976 183.93C316.509 183.798 316.792 183.366 316.932 182.65C317.041 182.09 317.039 181.481 317.037 180.92C317.036 180.751 317.035 180.587 317.038 180.43C317.04 180.267 317.047 180.107 317.063 179.964C317.079 179.83 317.108 179.665 317.179 179.52C317.256 179.362 317.424 179.156 317.721 179.129C317.964 179.106 318.165 179.222 318.289 179.309C322.52 182.304 330.067 187.014 335.2 189.259C335.411 189.352 335.657 189.508 335.764 189.788C335.879 190.089 335.774 190.363 335.665 190.54C335.556 190.717 335.395 190.879 335.232 191.023C335.064 191.171 334.865 191.324 334.654 191.479C334.495 191.596 334.329 191.715 334.159 191.837C333.397 192.382 332.564 192.978 332.012 193.657C331.682 194.063 331.494 194.45 331.464 194.825C331.436 195.184 331.546 195.604 331.961 196.099C332.825 197.132 334.908 198.368 339.154 199.742C343.398 201.115 345.815 201.284 347.138 200.887C347.773 200.696 348.138 200.381 348.355 200.009C348.58 199.624 348.675 199.127 348.669 198.535C348.659 197.632 348.425 196.653 348.201 195.716C348.124 195.393 348.047 195.075 347.982 194.766C347.864 194.208 347.771 193.631 347.852 193.177C347.895 192.937 347.995 192.681 348.213 192.488C348.435 192.291 348.714 192.218 349 192.218C357.273 192.218 365.158 188.96 370.972 183.854C376.787 178.748 380.5 171.822 380.5 164.5C380.5 159.951 378.317 153.699 374.573 147.848C370.833 142.005 365.585 136.638 359.536 133.81L359.165 133.637L359.262 133.238C359.485 132.332 359.75 131.438 360.009 130.58C360.033 130.501 360.056 130.422 360.08 130.343C360.314 129.567 360.539 128.823 360.722 128.112C361.131 126.527 361.305 125.214 360.991 124.195C360.696 123.238 359.934 122.439 358.177 121.96C356.394 121.474 353.653 121.342 349.545 121.715C343.943 122.225 340.939 123.126 339.482 124.133C338.771 124.624 338.467 125.113 338.37 125.564C338.271 126.023 338.37 126.53 338.634 127.085C339.114 128.093 340.047 129.083 340.876 129.964C340.984 130.078 341.089 130.19 341.192 130.3C341.61 130.748 342.019 131.204 342.21 131.592C342.303 131.781 342.405 132.073 342.293 132.375C342.172 132.702 341.878 132.849 341.628 132.915C337.563 133.989 331.991 136.903 327.399 139.578C325.111 140.91 323.08 142.175 321.621 143.107C320.892 143.572 320.306 143.955 319.902 144.22C319.701 144.353 319.545 144.457 319.439 144.527L319.32 144.607L319.29 144.627L319.282 144.632L319.28 144.634L319.28 144.634C319.28 144.634 319.28 144.634 319 144.22L319.28 144.634L318.5 145.16L308.761 151.97ZM308.761 151.97L309.599 151.456L308.691 151.082L308.691 151.082L308.69 151.081L308.69 151.081L308.686 151.08L308.668 151.072C308.659 151.068 308.648 151.063 308.635 151.058C308.622 151.052 308.607 151.045 308.59 151.038C308.521 151.006 308.419 150.959 308.292 150.896C308.038 150.769 307.685 150.579 307.292 150.329C306.499 149.824 305.582 149.095 304.982 148.171C304.393 147.264 304.109 146.179 304.544 144.889C304.989 143.571 306.206 141.971 308.791 140.124C311.378 138.276 313.234 137.694 314.546 137.756C315.821 137.817 316.673 138.493 317.266 139.424C317.869 140.373 318.183 141.562 318.342 142.542C318.421 143.027 318.461 143.45 318.481 143.751C318.49 143.902 318.495 144.021 318.498 144.102C318.499 144.142 318.499 144.173 318.5 144.193L318.5 144.214L318.5 144.219L318.5 144.22V144.22L308.761 151.97Z" fill="#FFA500" stroke="black"/>
<path id="body_4" d="M380.5 164.5C380.5 179.175 367.142 191.718 350.573 191.718C339.416 191.718 330.709 187.382 323.142 182.394C320.75 180.817 318.49 179.188 316.298 177.608C315.008 176.679 313.742 175.766 312.487 174.892C309.119 172.545 305.855 170.489 302.549 169.23C301.742 168.923 300.986 168.944 300.285 169.221C299.601 169.492 299.001 169.994 298.459 170.597C297.616 171.534 296.832 172.817 296.055 174.087C295.846 174.429 295.637 174.77 295.428 175.104C294.415 176.719 293.384 178.165 292.169 178.957C291.574 179.345 290.946 179.568 290.257 179.581C289.565 179.594 288.774 179.396 287.855 178.878C285.287 177.431 284.195 175.958 283.885 174.574C283.572 173.178 284.021 171.735 284.844 170.277C285.517 169.086 286.401 167.949 287.238 166.873C287.427 166.629 287.614 166.389 287.795 166.152C288.279 165.52 288.726 164.906 289.053 164.335C289.374 163.773 289.616 163.189 289.616 162.627C289.616 162.073 289.41 161.546 289.117 161.055C288.823 160.564 288.42 160.075 287.98 159.591C287.636 159.213 287.275 158.843 286.911 158.469C286.308 157.85 285.696 157.222 285.136 156.533C284.254 155.449 283.614 154.339 283.514 153.153C283.416 151.992 283.828 150.66 285.265 149.108C285.971 148.346 286.647 147.933 287.287 147.753C287.925 147.574 288.571 147.614 289.24 147.827C290.609 148.265 292.012 149.406 293.48 150.755C293.799 151.048 294.121 151.35 294.445 151.655C295.575 152.717 296.731 153.804 297.871 154.582C299.342 155.585 300.95 156.188 302.579 155.445C305.869 153.945 309.294 151.696 312.87 149.188C313.977 148.412 315.099 147.611 316.236 146.798C318.786 144.977 321.417 143.098 324.157 141.303C332.078 136.114 340.781 131.718 350.573 131.718C358.758 131.718 366.236 137.016 371.698 143.837C377.162 150.66 380.5 158.873 380.5 164.5Z" fill="#FFA500" stroke="black"/>
<path id="color_4" d="M350.872 131.727C353.34 131.813 354.85 132.076 357.269 132.895C350.896 144.188 347.818 153.452 348.016 162.539C348.214 171.593 351.663 180.399 358.2 190.788C355.438 191.413 353.691 191.643 350.878 191.711C344.737 179.423 341.86 170.028 341.942 160.925C342.023 151.829 345.059 142.962 350.872 131.727ZM316.413 146.758L316.703 146.551L325.638 140.451C320.726 150.118 319.069 157.17 319.388 163.464C319.724 170.076 322.24 175.794 325.291 182.725L325.313 182.774L325.313 182.775C325.507 183.215 325.702 183.659 325.9 184.109C324.325 183.129 322.948 182.252 321.609 181.365C321.609 181.365 321.608 181.365 321.608 181.365C321.607 181.365 321.606 181.364 321.605 181.363C321.602 181.361 321.6 181.359 321.597 181.357L321.596 181.357L321.597 181.357L321.591 181.353C319.216 179.781 316.953 178.174 313.909 175.898C311.41 169.901 310.215 165.438 310.222 161.306C310.23 157.187 311.432 153.345 313.829 148.59C314.68 147.991 315.542 147.378 316.413 146.758L316.413 146.758Z" fill="white" stroke="black"/>
<g id="Left_eye_4">
<circle id="eye_4" cx="366" cy="162.218" r="3" fill="black"/>
<g id="eye_reflection_4">
<circle id="big_4" cx="364.68" cy="161.632" r="0.9375" fill="white"/>
<path id="small_4" d="M366.367 162.57C366.367 162.777 366.199 162.945 365.992 162.945C365.785 162.945 365.617 162.777 365.617 162.57C365.617 162.363 365.785 162.195 365.992 162.195C366.199 162.195 366.367 162.363 366.367 162.57Z" fill="white"/>
</g>
</g>
<path id="Vector 8_3" d="M312 141.718C313.307 143.339 315.147 145.319 315 147.218M309.5 145.718C311.59 146.232 313.319 148.854 312.5 149.218M355.5 126.718C356.018 129.291 355.651 130.479 354 132.218M350.5 126.718C351.326 128.823 351.212 129.76 350.5 131.218M346 127.718C347.199 129.312 347.317 130.048 347 131.218M312 179.718C313.299 179.311 313.719 178.86 314 177.718M315.5 178.718C315.328 179.915 315.019 180.472 314 181.218M339 192.218C339.223 193.793 338.518 195.012 337 195.718M341.5 193.218C341.99 195.145 341.751 196.504 340.5 197.718M344.5 194.218C345.516 195.892 345.099 197.264 344.5 198.718M378 174.718C375.67 174.882 374.981 174.175 373.5 172.218" stroke="black" stroke-width="0.7" stroke-linecap="round"/>
<g id="Group 3_3">
<path id="fins_5" d="M305.761 296.97L305.5 296.544L305.761 296.97L305.761 296.97L305.761 296.971L305.758 296.972L305.749 296.978L305.714 296.999L305.578 297.082C305.46 297.154 305.29 297.257 305.079 297.383C304.658 297.637 304.076 297.984 303.432 298.36C302.15 299.107 300.597 299.981 299.579 300.445C297.95 301.188 296.342 300.585 294.871 299.582C293.731 298.804 292.575 297.717 291.445 296.655C291.121 296.35 290.799 296.048 290.48 295.755C289.012 294.406 287.609 293.265 286.24 292.827C285.571 292.614 284.925 292.574 284.287 292.753C283.647 292.933 282.971 293.346 282.265 294.108C280.828 295.66 280.416 296.992 280.514 298.153C280.614 299.339 281.254 300.449 282.136 301.533C282.696 302.222 283.308 302.85 283.911 303.469C284.275 303.842 284.636 304.213 284.98 304.59C285.42 305.075 285.823 305.564 286.117 306.055C286.41 306.546 286.616 307.073 286.616 307.627C286.616 308.189 286.374 308.773 286.053 309.335C285.726 309.906 285.279 310.52 284.795 311.152C284.614 311.389 284.427 311.629 284.238 311.873C283.401 312.948 282.517 314.086 281.844 315.277C281.021 316.735 280.572 318.178 280.885 319.574C281.195 320.958 282.287 322.431 284.855 323.878C285.774 324.396 286.565 324.594 287.257 324.581C287.946 324.568 288.574 324.345 289.169 323.957C290.384 323.165 291.415 321.719 292.428 320.104C292.637 319.77 292.846 319.429 293.055 319.087C293.832 317.817 294.616 316.534 295.459 315.597C296.001 314.994 296.601 314.492 297.285 314.221C297.986 313.944 298.742 313.923 299.549 314.23C302.305 315.28 306.531 317.964 309.278 319.802C309.442 319.912 309.604 320.094 309.627 320.36C309.647 320.598 309.544 320.791 309.46 320.913C309.296 321.151 309.007 321.388 308.736 321.6C308.622 321.689 308.503 321.779 308.381 321.872C307.867 322.263 307.306 322.69 306.868 323.189C306.336 323.796 306.089 324.395 306.288 325.047C306.502 325.747 307.273 326.673 309.245 327.782C311.231 328.899 312.359 329.083 312.976 328.93C313.509 328.798 313.792 328.366 313.932 327.65C314.041 327.09 314.039 326.481 314.037 325.92C314.036 325.751 314.035 325.587 314.038 325.43C314.04 325.267 314.047 325.107 314.063 324.964C314.079 324.83 314.108 324.665 314.179 324.52C314.256 324.362 314.424 324.156 314.721 324.129C314.964 324.106 315.165 324.222 315.289 324.309C319.52 327.304 327.067 332.014 332.2 334.259C332.411 334.352 332.657 334.508 332.764 334.788C332.879 335.089 332.774 335.363 332.665 335.54C332.556 335.717 332.395 335.879 332.232 336.023C332.064 336.171 331.865 336.324 331.654 336.479C331.495 336.596 331.329 336.715 331.159 336.837C330.397 337.382 329.564 337.978 329.012 338.657C328.682 339.063 328.494 339.45 328.464 339.825C328.436 340.184 328.546 340.604 328.961 341.099C329.825 342.132 331.908 343.368 336.154 344.742C340.398 346.115 342.815 346.284 344.138 345.887C344.773 345.696 345.138 345.381 345.355 345.009C345.58 344.624 345.675 344.127 345.669 343.535C345.659 342.632 345.425 341.653 345.201 340.716C345.124 340.393 345.047 340.075 344.982 339.766C344.864 339.208 344.771 338.631 344.852 338.177C344.895 337.937 344.995 337.681 345.213 337.488C345.435 337.291 345.714 337.218 346 337.218C354.273 337.218 362.158 333.96 367.972 328.854C373.787 323.748 377.5 316.822 377.5 309.5C377.5 304.951 375.317 298.699 371.573 292.848C367.833 287.005 362.585 281.638 356.536 278.81L356.165 278.637L356.262 278.238C356.485 277.332 356.75 276.438 357.009 275.58C357.033 275.501 357.056 275.422 357.08 275.343C357.314 274.567 357.539 273.823 357.722 273.112C358.131 271.527 358.305 270.214 357.991 269.195C357.696 268.238 356.934 267.439 355.177 266.96C353.394 266.474 350.653 266.342 346.545 266.715C340.943 267.225 337.939 268.126 336.482 269.133C335.771 269.624 335.467 270.113 335.37 270.564C335.271 271.023 335.37 271.53 335.634 272.085C336.114 273.093 337.047 274.083 337.876 274.964C337.984 275.078 338.089 275.19 338.192 275.3C338.61 275.748 339.019 276.204 339.21 276.592C339.303 276.781 339.405 277.073 339.293 277.375C339.172 277.702 338.878 277.849 338.628 277.915C334.563 278.989 328.991 281.903 324.399 284.578C322.111 285.91 320.08 287.175 318.621 288.107C317.892 288.572 317.306 288.955 316.902 289.22C316.701 289.353 316.545 289.457 316.439 289.527L316.32 289.607L316.29 289.627L316.282 289.632L316.28 289.634L316.28 289.634C316.28 289.634 316.28 289.634 316 289.22L316.28 289.634L315.5 290.16L305.761 296.97ZM305.761 296.97L306.599 296.456L305.691 296.082L305.691 296.082L305.69 296.081L305.69 296.081L305.686 296.08L305.668 296.072C305.659 296.068 305.648 296.063 305.635 296.058C305.622 296.052 305.607 296.045 305.59 296.038C305.521 296.006 305.419 295.959 305.292 295.896C305.038 295.769 304.685 295.579 304.292 295.329C303.499 294.824 302.582 294.095 301.982 293.171C301.393 292.264 301.109 291.179 301.544 289.889C301.989 288.571 303.206 286.971 305.791 285.124C308.378 283.276 310.234 282.694 311.546 282.756C312.821 282.817 313.673 283.493 314.266 284.424C314.869 285.373 315.183 286.562 315.342 287.542C315.421 288.027 315.461 288.45 315.481 288.751C315.49 288.902 315.495 289.021 315.498 289.102C315.499 289.142 315.499 289.173 315.5 289.193L315.5 289.214L315.5 289.219L315.5 289.22V289.22L305.761 296.97Z" fill="#FFA500" stroke="black"/>
<path id="body_5" d="M377.5 309.5C377.5 324.175 364.142 336.718 347.573 336.718C336.416 336.718 327.709 332.382 320.142 327.394C317.75 325.817 315.49 324.188 313.298 322.608C312.008 321.679 310.742 320.766 309.487 319.892C306.119 317.545 302.855 315.489 299.549 314.23C298.742 313.923 297.986 313.944 297.285 314.221C296.601 314.492 296.001 314.994 295.459 315.597C294.616 316.534 293.832 317.817 293.055 319.087C292.846 319.429 292.637 319.77 292.428 320.104C291.415 321.719 290.384 323.165 289.169 323.957C288.574 324.345 287.946 324.568 287.257 324.581C286.565 324.594 285.774 324.396 284.855 323.878C282.287 322.431 281.195 320.958 280.885 319.574C280.572 318.178 281.021 316.735 281.844 315.277C282.517 314.086 283.401 312.949 284.238 311.873C284.427 311.629 284.614 311.389 284.795 311.152C285.279 310.52 285.726 309.906 286.053 309.335C286.374 308.773 286.616 308.189 286.616 307.627C286.616 307.073 286.41 306.546 286.117 306.055C285.823 305.564 285.42 305.075 284.98 304.591C284.636 304.213 284.275 303.843 283.911 303.469C283.308 302.85 282.696 302.222 282.136 301.533C281.254 300.449 280.614 299.339 280.514 298.153C280.416 296.992 280.828 295.66 282.265 294.108C282.971 293.346 283.647 292.933 284.287 292.753C284.925 292.574 285.571 292.614 286.24 292.827C287.609 293.265 289.012 294.406 290.48 295.755C290.799 296.048 291.121 296.35 291.445 296.655C292.575 297.717 293.731 298.804 294.871 299.582C296.342 300.585 297.95 301.188 299.579 300.445C302.869 298.945 306.294 296.696 309.87 294.188C310.977 293.412 312.099 292.611 313.236 291.798C315.786 289.977 318.417 288.098 321.157 286.303C329.078 281.114 337.781 276.718 347.573 276.718C355.758 276.718 363.236 282.016 368.698 288.837C374.162 295.66 377.5 303.873 377.5 309.5Z" fill="#FFA500" stroke="black"/>
<path id="color_5" d="M347.872 276.727C350.34 276.813 351.85 277.076 354.269 277.895C347.896 289.188 344.818 298.452 345.016 307.539C345.214 316.593 348.663 325.399 355.2 335.788C352.438 336.413 350.691 336.643 347.878 336.711C341.737 324.423 338.86 315.028 338.942 305.925C339.023 296.829 342.059 287.962 347.872 276.727ZM313.413 291.758L313.703 291.551L322.638 285.451C317.726 295.118 316.069 302.17 316.388 308.464C316.724 315.076 319.24 320.794 322.291 327.725L322.313 327.774L322.313 327.775C322.507 328.215 322.702 328.659 322.9 329.109C321.325 328.129 319.948 327.252 318.609 326.365C318.609 326.365 318.608 326.365 318.608 326.365C318.607 326.365 318.606 326.364 318.605 326.363C318.602 326.361 318.6 326.359 318.597 326.357L318.596 326.357L318.597 326.357L318.591 326.353C316.216 324.781 313.953 323.174 310.909 320.898C308.41 314.901 307.215 310.438 307.222 306.306C307.23 302.187 308.432 298.345 310.829 293.59C311.68 292.991 312.542 292.378 313.413 291.758L313.413 291.758Z" fill="white" stroke="black"/>
<g id="Left_eye_5">
<circle id="eye_5" cx="363" cy="307.218" r="3" fill="black"/>
<g id="eye_reflection_5">
<circle id="big_5" cx="361.68" cy="306.632" r="0.9375" fill="white"/>
<path id="small_5" d="M363.367 307.57C363.367 307.777 363.199 307.945 362.992 307.945C362.785 307.945 362.617 307.777 362.617 307.57C362.617 307.363 362.785 307.195 362.992 307.195C363.199 307.195 363.367 307.363 363.367 307.57Z" fill="white"/>
</g>
</g>
<path id="Vector 8_4" d="M309 286.718C310.307 288.339 312.147 290.319 312 292.218M306.5 290.718C308.59 291.232 310.319 293.854 309.5 294.218M352.5 271.718C353.018 274.291 352.651 275.479 351 277.218M347.5 271.718C348.326 273.823 348.212 274.76 347.5 276.218M343 272.718C344.199 274.312 344.317 275.048 344 276.218M309 324.718C310.299 324.311 310.719 323.86 311 322.718M312.5 323.718C312.328 324.915 312.019 325.472 311 326.218M336 337.218C336.223 338.793 335.518 340.012 334 340.718M338.5 338.218C338.99 340.145 338.751 341.504 337.5 342.718M341.5 339.218C342.516 340.892 342.099 342.264 341.5 343.718M375 319.718C372.67 319.882 371.981 319.175 370.5 317.218" stroke="black" stroke-width="0.7" stroke-linecap="round"/>
<g id="Group 3_4">
<path id="fins_6" d="M134.761 302.97L134.5 302.544L134.761 302.97L134.761 302.97L134.761 302.971L134.758 302.972L134.749 302.978L134.714 302.999L134.578 303.082C134.46 303.154 134.29 303.257 134.079 303.383C133.658 303.637 133.076 303.984 132.432 304.36C131.15 305.107 129.597 305.981 128.579 306.445C126.95 307.188 125.342 306.585 123.871 305.582C122.731 304.804 121.575 303.717 120.445 302.655C120.121 302.35 119.799 302.048 119.48 301.755C118.012 300.406 116.609 299.265 115.24 298.827C114.571 298.614 113.925 298.574 113.287 298.753C112.647 298.933 111.971 299.346 111.265 300.108C109.828 301.66 109.416 302.992 109.514 304.153C109.614 305.339 110.254 306.449 111.136 307.533C111.696 308.222 112.308 308.85 112.911 309.469C113.275 309.842 113.636 310.213 113.98 310.59C114.42 311.075 114.823 311.564 115.117 312.055C115.41 312.546 115.616 313.073 115.616 313.627C115.616 314.189 115.374 314.773 115.053 315.335C114.726 315.906 114.279 316.52 113.795 317.152C113.614 317.389 113.427 317.629 113.238 317.873C112.401 318.948 111.517 320.086 110.844 321.277C110.021 322.735 109.572 324.178 109.885 325.574C110.195 326.958 111.287 328.431 113.855 329.878C114.774 330.396 115.565 330.594 116.257 330.581C116.946 330.568 117.574 330.345 118.169 329.957C119.384 329.165 120.415 327.719 121.428 326.104C121.637 325.77 121.846 325.429 122.055 325.087C122.832 323.817 123.616 322.534 124.459 321.597C125.001 320.994 125.601 320.492 126.285 320.221C126.986 319.944 127.742 319.923 128.549 320.23C131.305 321.28 135.531 323.964 138.278 325.802C138.442 325.912 138.604 326.094 138.627 326.36C138.647 326.598 138.544 326.791 138.46 326.913C138.296 327.151 138.007 327.388 137.736 327.6C137.622 327.689 137.503 327.779 137.381 327.872C136.867 328.263 136.306 328.69 135.868 329.189C135.336 329.796 135.089 330.395 135.288 331.047C135.502 331.747 136.273 332.673 138.245 333.782C140.231 334.899 141.359 335.083 141.976 334.93C142.509 334.798 142.792 334.366 142.932 333.65C143.041 333.09 143.039 332.481 143.037 331.92C143.036 331.751 143.035 331.587 143.038 331.43C143.04 331.267 143.047 331.107 143.063 330.964C143.079 330.83 143.108 330.665 143.179 330.52C143.256 330.362 143.424 330.156 143.721 330.129C143.964 330.106 144.165 330.222 144.289 330.309C148.52 333.304 156.067 338.014 161.2 340.259C161.411 340.352 161.657 340.508 161.764 340.788C161.879 341.089 161.774 341.363 161.665 341.54C161.556 341.717 161.395 341.879 161.232 342.023C161.064 342.171 160.865 342.324 160.654 342.479C160.495 342.596 160.329 342.715 160.159 342.837C159.397 343.382 158.564 343.978 158.012 344.657C157.682 345.063 157.494 345.45 157.464 345.825C157.436 346.184 157.546 346.604 157.961 347.099C158.825 348.132 160.908 349.368 165.154 350.742C169.398 352.115 171.815 352.284 173.138 351.887C173.773 351.696 174.138 351.381 174.355 351.009C174.58 350.624 174.675 350.127 174.669 349.535C174.659 348.632 174.425 347.653 174.201 346.716C174.124 346.393 174.047 346.075 173.982 345.766C173.864 345.208 173.771 344.631 173.852 344.177C173.895 343.937 173.995 343.681 174.213 343.488C174.435 343.291 174.714 343.218 175 343.218C183.273 343.218 191.158 339.96 196.972 334.854C202.787 329.748 206.5 322.822 206.5 315.5C206.5 310.951 204.317 304.699 200.573 298.848C196.833 293.005 191.585 287.638 185.536 284.81L185.165 284.637L185.262 284.238C185.485 283.332 185.75 282.438 186.009 281.58C186.033 281.501 186.056 281.422 186.08 281.343C186.314 280.567 186.539 279.823 186.722 279.112C187.131 277.527 187.305 276.214 186.991 275.195C186.696 274.238 185.934 273.439 184.177 272.96C182.394 272.474 179.653 272.342 175.545 272.715C169.943 273.225 166.939 274.126 165.482 275.133C164.771 275.624 164.467 276.113 164.37 276.564C164.271 277.023 164.37 277.53 164.634 278.085C165.114 279.093 166.047 280.083 166.876 280.964C166.984 281.078 167.089 281.19 167.192 281.3C167.61 281.748 168.019 282.204 168.21 282.592C168.303 282.781 168.405 283.073 168.293 283.375C168.172 283.702 167.878 283.849 167.628 283.915C163.563 284.989 157.991 287.903 153.399 290.578C151.111 291.91 149.08 293.175 147.621 294.107C146.892 294.572 146.306 294.955 145.902 295.22C145.701 295.353 145.545 295.457 145.439 295.527L145.32 295.607L145.29 295.627L145.282 295.632L145.28 295.634L145.28 295.634C145.28 295.634 145.28 295.634 145 295.22L145.28 295.634L144.5 296.16L134.761 302.97ZM134.761 302.97L135.599 302.456L134.691 302.082L134.691 302.082L134.69 302.081L134.69 302.081L134.686 302.08L134.668 302.072C134.659 302.068 134.648 302.063 134.635 302.058C134.622 302.052 134.607 302.045 134.59 302.038C134.521 302.006 134.419 301.959 134.292 301.896C134.038 301.769 133.685 301.579 133.292 301.329C132.499 300.824 131.582 300.095 130.982 299.171C130.393 298.264 130.109 297.179 130.544 295.889C130.989 294.571 132.206 292.971 134.791 291.124C137.378 289.276 139.234 288.694 140.546 288.756C141.821 288.817 142.673 289.493 143.266 290.424C143.869 291.373 144.183 292.562 144.342 293.542C144.421 294.027 144.461 294.45 144.481 294.751C144.49 294.902 144.495 295.021 144.498 295.102C144.499 295.142 144.499 295.173 144.5 295.193L144.5 295.214L144.5 295.219L144.5 295.22V295.22L134.761 302.97Z" fill="#FFA500" stroke="black"/>
<path id="body_6" d="M206.5 315.5C206.5 330.175 193.142 342.718 176.573 342.718C165.416 342.718 156.709 338.382 149.142 333.394C146.75 331.817 144.49 330.188 142.298 328.608C141.008 327.679 139.742 326.766 138.487 325.892C135.119 323.545 131.855 321.489 128.549 320.23C127.742 319.923 126.986 319.944 126.285 320.221C125.601 320.492 125.001 320.994 124.459 321.597C123.616 322.534 122.832 323.817 122.055 325.087C121.846 325.429 121.637 325.77 121.428 326.104C120.415 327.719 119.384 329.165 118.169 329.957C117.574 330.345 116.946 330.568 116.257 330.581C115.565 330.594 114.774 330.396 113.855 329.878C111.287 328.431 110.195 326.958 109.885 325.574C109.572 324.178 110.021 322.735 110.844 321.277C111.517 320.086 112.401 318.949 113.238 317.873C113.427 317.629 113.614 317.389 113.795 317.152C114.279 316.52 114.726 315.906 115.053 315.335C115.374 314.773 115.616 314.189 115.616 313.627C115.616 313.073 115.41 312.546 115.117 312.055C114.823 311.564 114.42 311.075 113.98 310.591C113.636 310.213 113.275 309.843 112.911 309.469C112.308 308.85 111.696 308.222 111.136 307.533C110.254 306.449 109.614 305.339 109.514 304.153C109.416 302.992 109.828 301.66 111.265 300.108C111.971 299.346 112.647 298.933 113.287 298.753C113.925 298.574 114.571 298.614 115.24 298.827C116.609 299.265 118.012 300.406 119.48 301.755C119.799 302.048 120.121 302.35 120.445 302.655C121.575 303.717 122.731 304.804 123.871 305.582C125.342 306.585 126.95 307.188 128.579 306.445C131.869 304.945 135.294 302.696 138.87 300.188C139.977 299.412 141.099 298.611 142.236 297.798C144.786 295.977 147.417 294.098 150.157 292.303C158.078 287.114 166.781 282.718 176.573 282.718C184.758 282.718 192.236 288.016 197.698 294.837C203.162 301.66 206.5 309.873 206.5 315.5Z" fill="#FFA500" stroke="black"/>
<path id="color_6" d="M176.872 282.727C179.34 282.813 180.85 283.076 183.269 283.895C176.896 295.188 173.818 304.452 174.016 313.539C174.214 322.593 177.663 331.399 184.2 341.788C181.438 342.413 179.691 342.643 176.878 342.711C170.737 330.423 167.86 321.028 167.942 311.925C168.023 302.829 171.059 293.962 176.872 282.727ZM142.413 297.758L142.703 297.551L151.638 291.451C146.726 301.118 145.069 308.17 145.388 314.464C145.724 321.076 148.24 326.794 151.291 333.725L151.313 333.774L151.313 333.775C151.507 334.215 151.702 334.659 151.9 335.109C150.325 334.129 148.948 333.252 147.609 332.365C147.609 332.365 147.608 332.365 147.608 332.365C147.607 332.365 147.606 332.364 147.605 332.363C147.602 332.361 147.6 332.359 147.597 332.357L147.596 332.357L147.597 332.357L147.591 332.353C145.216 330.781 142.953 329.174 139.909 326.898C137.41 320.901 136.215 316.438 136.222 312.306C136.23 308.187 137.432 304.345 139.829 299.59C140.68 298.991 141.542 298.378 142.413 297.758L142.413 297.758Z" fill="white" stroke="black"/>
<g id="Left_eye_6">
<circle id="eye_6" cx="192" cy="313.218" r="3" fill="black"/>
<g id="eye_reflection_6">
<circle id="big_6" cx="190.68" cy="312.632" r="0.9375" fill="white"/>
<path id="small_6" d="M192.367 313.57C192.367 313.777 192.199 313.945 191.992 313.945C191.785 313.945 191.617 313.777 191.617 313.57C191.617 313.363 191.785 313.195 191.992 313.195C192.199 313.195 192.367 313.363 192.367 313.57Z" fill="white"/>
</g>
</g>
<path id="Vector 8_5" d="M138 292.718C139.307 294.339 141.147 296.319 141 298.218M135.5 296.718C137.59 297.232 139.319 299.854 138.5 300.218M181.5 277.718C182.018 280.291 181.651 281.479 180 283.218M176.5 277.718C177.326 279.823 177.212 280.76 176.5 282.218M172 278.718C173.199 280.312 173.317 281.048 173 282.218M138 330.718C139.299 330.311 139.719 329.86 140 328.718M141.5 329.718C141.328 330.915 141.019 331.472 140 332.218M165 343.218C165.223 344.793 164.518 346.012 163 346.718M167.5 344.218C167.99 346.145 167.751 347.504 166.5 348.718M170.5 345.218C171.516 346.892 171.099 348.264 170.5 349.718M204 325.718C201.67 325.882 200.981 325.175 199.5 323.218" stroke="black" stroke-width="0.7" stroke-linecap="round"/>
<g id="Group 3_5">
<path id="fins_7" d="M63.7614 204.97L63.5 204.544L63.7613 204.97L63.7612 204.97L63.7606 204.971L63.7582 204.972L63.7491 204.978L63.7136 204.999L63.5779 205.082C63.4601 205.154 63.2898 205.257 63.0794 205.383C62.6585 205.637 62.0765 205.984 61.4319 206.36C60.15 207.107 58.5974 207.981 57.5789 208.445C55.9496 209.188 54.3419 208.585 52.8713 207.582C51.7313 206.804 50.5753 205.717 49.4446 204.655C49.1207 204.35 48.7989 204.048 48.4801 203.755C47.0117 202.406 45.6091 201.265 44.2397 200.827C43.5707 200.614 42.9252 200.574 42.2873 200.753C41.6468 200.933 40.9714 201.346 40.2653 202.108C38.8276 203.66 38.4156 204.992 38.5138 206.153C38.6141 207.339 39.254 208.449 40.1357 209.533C40.6961 210.222 41.3083 210.85 41.911 211.469C42.2752 211.842 42.6359 212.213 42.9796 212.59C43.4201 213.075 43.8229 213.564 44.1168 214.055C44.4103 214.546 44.6161 215.073 44.6161 215.627C44.6161 216.189 44.3743 216.773 44.0529 217.335C43.7261 217.906 43.2787 218.52 42.7951 219.152C42.6137 219.389 42.4269 219.629 42.2376 219.873C41.4013 220.948 40.5169 222.086 39.8442 223.277C39.0209 224.735 38.5717 226.178 38.8847 227.574C39.1951 228.958 40.2866 230.431 42.8552 231.878C43.7742 232.396 44.5654 232.594 45.2565 232.581C45.9456 232.568 46.5742 232.345 47.1692 231.957C48.3842 231.165 49.4148 229.719 50.4282 228.104C50.6374 227.77 50.846 227.429 51.0553 227.087C51.832 225.817 52.6163 224.534 53.459 223.597C54.0006 222.994 54.601 222.492 55.2849 222.221C55.9859 221.944 56.7423 221.923 57.5494 222.23C60.3055 223.28 64.531 225.964 67.2781 227.802C67.4423 227.912 67.6039 228.094 67.6266 228.36C67.6468 228.598 67.5441 228.791 67.4604 228.913C67.2961 229.151 67.0071 229.388 66.7363 229.6C66.622 229.689 66.5028 229.779 66.3809 229.872C65.867 230.263 65.3056 230.69 64.8682 231.189C64.3363 231.796 64.0889 232.395 64.2878 233.047C64.5017 233.747 65.2732 234.673 67.2451 235.782C69.2308 236.899 70.3589 237.083 70.9757 236.93C71.5093 236.798 71.7919 236.366 71.9317 235.65C72.0411 235.09 72.0388 234.481 72.0366 233.92C72.036 233.751 72.0353 233.587 72.0378 233.43C72.0403 233.267 72.0466 233.107 72.0632 232.964C72.0788 232.83 72.1077 232.665 72.1789 232.52C72.2563 232.362 72.4238 232.156 72.7207 232.129C72.964 232.106 73.1651 232.222 73.2888 232.309C77.5196 235.304 85.0675 240.014 90.2004 242.259C90.4114 242.352 90.6568 242.508 90.7641 242.788C90.8792 243.089 90.7738 243.363 90.6647 243.54C90.5555 243.717 90.3946 243.879 90.232 244.023C90.0642 244.171 89.8647 244.324 89.6542 244.479C89.4951 244.596 89.3286 244.715 89.1586 244.837C88.3969 245.382 87.5645 245.978 87.0115 246.657C86.6818 247.063 86.4941 247.45 86.4643 247.825C86.4358 248.184 86.546 248.604 86.961 249.099C87.8252 250.132 89.9081 251.368 94.1539 252.742C98.3976 254.115 100.815 254.284 102.138 253.887C102.773 253.696 103.138 253.381 103.355 253.009C103.58 252.624 103.675 252.127 103.669 251.535C103.659 250.632 103.425 249.653 103.201 248.716C103.124 248.393 103.047 248.075 102.982 247.766C102.864 247.208 102.771 246.631 102.852 246.177C102.895 245.937 102.995 245.681 103.213 245.488C103.435 245.291 103.714 245.218 104 245.218C112.273 245.218 120.158 241.96 125.972 236.854C131.787 231.748 135.5 224.822 135.5 217.5C135.5 212.951 133.317 206.699 129.573 200.848C125.833 195.005 120.585 189.638 114.536 186.81L114.165 186.637L114.262 186.238C114.485 185.332 114.75 184.438 115.009 183.58C115.033 183.501 115.056 183.422 115.08 183.343C115.314 182.567 115.539 181.823 115.722 181.112C116.131 179.527 116.305 178.214 115.991 177.195C115.696 176.238 114.934 175.439 113.177 174.96C111.394 174.474 108.653 174.342 104.545 174.715C98.9433 175.225 95.9391 176.126 94.4818 177.133C93.7705 177.624 93.4666 178.113 93.3699 178.564C93.2712 179.023 93.3695 179.53 93.6341 180.085C94.1141 181.093 95.0471 182.083 95.8765 182.964C95.9838 183.078 96.0894 183.19 96.1921 183.3C96.6102 183.748 97.0194 184.204 97.2099 184.592C97.3034 184.781 97.4049 185.073 97.293 185.375C97.1718 185.702 96.8776 185.849 96.6277 185.915C92.5633 186.989 86.9911 189.903 82.3986 192.578C80.1107 193.91 78.0799 195.175 76.6211 196.107C75.8919 196.572 75.3058 196.955 74.9024 197.22C74.7007 197.353 74.5447 197.457 74.4393 197.527L74.3197 197.607L74.2895 197.627L74.2821 197.632L74.2802 197.634L74.2798 197.634C74.2798 197.634 74.2797 197.634 74 197.22L74.2797 197.634L73.5 198.16L63.7614 204.97ZM63.7614 204.97L64.5994 204.456L63.6909 204.082L63.6908 204.082L63.6905 204.081L63.6903 204.081L63.6865 204.08L63.6679 204.072C63.6594 204.068 63.6485 204.063 63.6354 204.058C63.6225 204.052 63.6073 204.045 63.5902 204.038C63.5212 204.006 63.4194 203.959 63.2925 203.896C63.0382 203.769 62.6847 203.579 62.2922 203.329C61.4993 202.824 60.5823 202.095 59.9817 201.171C59.3927 200.264 59.1095 199.179 59.5441 197.889C59.9885 196.571 61.2058 194.971 63.7906 193.124C66.3779 191.276 68.2339 190.694 69.5465 190.756C70.8212 190.817 71.673 191.493 72.2656 192.424C72.869 193.373 73.1829 194.562 73.3424 195.542C73.4214 196.027 73.4609 196.45 73.4806 196.751C73.4904 196.902 73.4953 197.021 73.4977 197.102C73.4989 197.142 73.4994 197.173 73.4997 197.193L73.5 197.214L73.5 197.219L73.5 197.22V197.22L63.7614 204.97Z" fill="#FFA500" stroke="black"/>
<path id="body_7" d="M135.5 217.5C135.5 232.175 122.142 244.718 105.573 244.718C94.4165 244.718 85.7091 240.382 78.1418 235.394C75.75 233.817 73.4896 232.188 71.2976 230.608C70.0082 229.679 68.7423 228.766 67.4873 227.892C64.1192 225.545 60.8547 223.489 57.5494 222.23C56.7423 221.923 55.9859 221.944 55.2849 222.221C54.601 222.492 54.0006 222.994 53.459 223.597C52.6163 224.534 51.832 225.817 51.0553 227.087C50.846 227.429 50.6374 227.77 50.4282 228.104C49.4148 229.719 48.3842 231.165 47.1692 231.957C46.5742 232.345 45.9456 232.568 45.2565 232.581C44.5654 232.594 43.7742 232.396 42.8552 231.878C40.2866 230.431 39.1951 228.958 38.8847 227.574C38.5717 226.178 39.0209 224.735 39.8442 223.277C40.5169 222.086 41.4013 220.949 42.2376 219.873C42.4269 219.629 42.6137 219.389 42.7951 219.152C43.2787 218.52 43.7261 217.906 44.0529 217.335C44.3743 216.773 44.6161 216.189 44.6161 215.627C44.6161 215.073 44.4103 214.546 44.1168 214.055C43.8229 213.564 43.4201 213.075 42.9796 212.591C42.6359 212.213 42.2752 211.843 41.911 211.469C41.3083 210.85 40.6961 210.222 40.1357 209.533C39.254 208.449 38.6141 207.339 38.5138 206.153C38.4156 204.992 38.8276 203.66 40.2653 202.108C40.9714 201.346 41.6468 200.933 42.2873 200.753C42.9252 200.574 43.5707 200.614 44.2397 200.827C45.6091 201.265 47.0117 202.406 48.4801 203.755C48.7989 204.048 49.1207 204.35 49.4446 204.655C50.5753 205.717 51.7313 206.804 52.8713 207.582C54.3419 208.585 55.9496 209.188 57.5789 208.445C60.8692 206.945 64.2939 204.696 67.8697 202.188C68.9772 201.412 70.0985 200.611 71.2362 199.798C73.7857 197.977 76.4172 196.098 79.1574 194.303C87.0778 189.114 95.7812 184.718 105.573 184.718C113.758 184.718 121.236 190.016 126.698 196.837C132.162 203.66 135.5 211.873 135.5 217.5Z" fill="#FFA500" stroke="black"/>
<path id="color_7" d="M105.872 184.727C108.34 184.813 109.85 185.076 112.269 185.895C105.896 197.188 102.818 206.452 103.016 215.539C103.214 224.593 106.663 233.399 113.2 243.788C110.438 244.413 108.691 244.643 105.878 244.711C99.7368 232.423 96.8602 223.028 96.9418 213.925C97.0233 204.829 100.059 195.962 105.872 184.727ZM71.4132 199.758L71.7028 199.551L80.6382 193.451C75.7256 203.118 74.0693 210.17 74.3885 216.464C74.7237 223.076 77.2402 228.794 80.2907 235.725L80.3125 235.774L80.3131 235.775C80.5065 236.215 80.7021 236.659 80.8996 237.109C79.325 236.129 77.9481 235.252 76.6086 234.365C76.6085 234.365 76.6085 234.365 76.6085 234.365C76.6075 234.365 76.6065 234.364 76.6055 234.363C76.6025 234.361 76.5995 234.359 76.5965 234.357L76.5965 234.357L76.5965 234.357L76.5908 234.353C74.2165 232.781 71.9528 231.174 68.9088 228.898C66.4101 222.901 65.2151 218.438 65.2224 214.306C65.2297 210.187 66.4323 206.345 68.8288 201.59C69.6801 200.991 70.5415 200.378 71.4126 199.758L71.4132 199.758Z" fill="white" stroke="black"/>
<g id="Left_eye_7">
<circle id="eye_7" cx="121" cy="215.218" r="3" fill="black"/>
<g id="eye_reflection_7">
<circle id="big_7" cx="119.68" cy="214.632" r="0.9375" fill="white"/>
<path id="small_7" d="M121.367 215.57C121.367 215.777 121.199 215.945 120.992 215.945C120.785 215.945 120.617 215.777 120.617 215.57C120.617 215.363 120.785 215.195 120.992 215.195C121.199 215.195 121.367 215.363 121.367 215.57Z" fill="white"/>
</g>
</g>
<path id="Vector 8_6" d="M67 194.718C68.3066 196.339 70.1466 198.319 70 200.218M64.5 198.718C66.5904 199.232 68.3186 201.854 67.5 202.218M110.5 179.718C111.018 182.291 110.651 183.479 109 185.218M105.5 179.718C106.326 181.823 106.212 182.76 105.5 184.218M101 180.718C102.199 182.312 102.317 183.048 102 184.218M67 232.718C68.299 232.311 68.7186 231.86 69 230.718M70.5 231.718C70.3284 232.915 70.0192 233.472 69 234.218M94 245.218C94.2229 246.793 93.518 248.012 92 248.718M96.5 246.218C96.9899 248.145 96.7508 249.504 95.5 250.718M99.5 247.218C100.516 248.892 100.099 250.264 99.5 251.718M133 227.718C130.67 227.882 129.981 227.175 128.5 225.218" stroke="black" stroke-width="0.7" stroke-linecap="round"/>
<g id="Group 3_6">
<path id="fins_8" d="M60.7614 45.97L60.5 45.5438L60.7613 45.97L60.7612 45.9701L60.7606 45.9705L60.7582 45.972L60.7491 45.9775L60.7136 45.9992L60.5779 46.082C60.4601 46.1536 60.2898 46.2568 60.0794 46.3834C59.6585 46.6367 59.0765 46.9839 58.4319 47.3596C57.15 48.1069 55.5974 48.9809 54.5789 49.4453C52.9496 50.1883 51.3419 49.5846 49.8713 48.5815C48.7313 47.804 47.5753 46.7174 46.4446 45.6546C46.1207 45.3501 45.7989 45.0476 45.4801 44.7549C44.0117 43.4064 42.6091 42.2651 41.2397 41.8274C40.5707 41.6135 39.9252 41.5736 39.2873 41.7528C38.6468 41.9327 37.9714 42.3456 37.2653 43.1079C35.8276 44.6601 35.4156 45.9922 35.5138 47.1527C35.6141 48.3385 36.254 49.4492 37.1357 50.5331C37.6961 51.222 38.3083 51.8503 38.911 52.4688C39.2752 52.8425 39.6359 53.2126 39.9796 53.5904C40.4201 54.0746 40.8229 54.5638 41.1168 55.0552C41.4103 55.5458 41.6161 56.073 41.6161 56.6267C41.6161 57.1892 41.3743 57.7725 41.0529 58.3346C40.7261 58.9063 40.2787 59.5197 39.7951 60.1519C39.6137 60.3889 39.4269 60.6292 39.2376 60.8728C38.4013 61.9485 37.5169 63.0862 36.8442 64.277C36.0209 65.7346 35.5717 67.1781 35.8847 68.5743C36.1951 69.9584 37.2866 71.4312 39.8552 72.878C40.7742 73.3957 41.5654 73.5937 42.2565 73.5808C42.9456 73.5679 43.5742 73.3449 44.1692 72.957C45.3842 72.165 46.4148 70.7192 47.4282 69.1036C47.6374 68.7703 47.846 68.429 48.0553 68.0868C48.832 66.8166 49.6163 65.5339 50.459 64.5965C51.0006 63.9941 51.601 63.492 52.2849 63.2213C52.9859 62.9439 53.7423 62.9228 54.5494 63.2302C57.3055 64.2799 61.531 66.9635 64.2781 68.802C64.4423 68.9119 64.6039 69.0944 64.6266 69.3602C64.6468 69.5977 64.5441 69.7912 64.4604 69.9126C64.2961 70.1511 64.0071 70.3882 63.7363 70.5995C63.622 70.6887 63.5028 70.7794 63.3809 70.8721C62.867 71.263 62.3056 71.6902 61.8682 72.1891C61.3363 72.7957 61.0889 73.3952 61.2878 74.0466C61.5017 74.7473 62.2732 75.6725 64.2451 76.7817C66.2308 77.8987 67.3589 78.0832 67.9757 77.9305C68.5093 77.7983 68.7919 77.3659 68.9317 76.6504C69.0411 76.0901 69.0388 75.481 69.0366 74.9201C69.036 74.7514 69.0353 74.587 69.0378 74.4296C69.0403 74.2671 69.0466 74.1069 69.0632 73.9638C69.0788 73.8296 69.1077 73.6654 69.1789 73.5199C69.2563 73.3616 69.4238 73.1562 69.7207 73.1288C69.964 73.1063 70.1651 73.2219 70.2888 73.3094C74.5196 76.3035 82.0675 81.0145 87.2004 83.2594C87.4114 83.3517 87.6568 83.5079 87.7641 83.7884C87.8792 84.0895 87.7738 84.3634 87.6647 84.5402C87.5555 84.717 87.3946 84.8794 87.232 85.0228C87.0642 85.1708 86.8647 85.324 86.6542 85.4789C86.4951 85.5959 86.3286 85.7151 86.1586 85.8367C85.3969 86.382 84.5645 86.9778 84.0115 87.6574C83.6818 88.0626 83.4941 88.4503 83.4643 88.8251C83.4358 89.1837 83.546 89.6037 83.961 90.0994C84.8252 91.1316 86.9081 92.3682 91.1539 93.7418C95.3976 95.1148 97.815 95.2844 99.1383 94.8871C99.7732 94.6964 100.138 94.3807 100.355 94.0093C100.58 93.6236 100.675 93.1269 100.669 92.5353C100.659 91.6321 100.425 90.6529 100.201 89.7163C100.124 89.393 100.047 89.0747 99.9821 88.7664C99.8639 88.2083 99.7708 87.631 99.852 87.1773C99.8949 86.9372 99.9949 86.6809 100.213 86.4879C100.435 86.2911 100.714 86.2175 101 86.2175C109.273 86.2175 117.158 82.9601 122.972 77.8544C128.787 72.7477 132.5 65.8223 132.5 58.5003C132.5 53.951 130.317 47.6993 126.573 41.8483C122.833 36.0046 117.585 30.638 111.536 27.8103L111.165 27.6366L111.262 27.2382C111.485 26.3318 111.75 25.4381 112.009 24.5801C112.033 24.5006 112.056 24.4215 112.08 24.3428C112.314 23.5665 112.539 22.8233 112.722 22.1124C113.131 20.5266 113.305 19.2139 112.991 18.1948C112.696 17.2384 111.934 16.4388 110.177 15.9598C108.394 15.4738 105.653 15.3419 101.545 15.7154C95.9433 16.2247 92.9391 17.1265 91.4818 18.133C90.7705 18.6242 90.4666 19.1134 90.3699 19.5636C90.2712 20.0232 90.3695 20.5298 90.6341 21.0852C91.1141 22.0927 92.0471 23.0833 92.8765 23.9639C92.9838 24.0779 93.0894 24.19 93.1921 24.3001C93.6102 24.7484 94.0194 25.2043 94.2099 25.5915C94.3034 25.7815 94.4049 26.0729 94.293 26.3749C94.1718 26.702 93.8776 26.8492 93.6277 26.9152C89.5633 27.989 83.9911 30.9028 79.3986 33.5775C77.1107 34.9101 75.0799 36.1749 73.6211 37.1066C72.8919 37.5723 72.3058 37.9547 71.9024 38.2203C71.7007 38.3532 71.5447 38.4568 71.4393 38.5272L71.3197 38.6072L71.2895 38.6274L71.2821 38.6325L71.2802 38.6337L71.2798 38.634C71.2798 38.634 71.2797 38.634 71 38.2196L71.2797 38.634L70.5 39.1603L60.7614 45.97ZM60.7614 45.97L61.5994 45.456L60.6909 45.0816L60.6908 45.0816L60.6905 45.0815L60.6903 45.0814L60.6865 45.0798L60.6679 45.0719C60.6594 45.0682 60.6485 45.0635 60.6354 45.0577C60.6225 45.052 60.6073 45.0453 60.5902 45.0375C60.5212 45.0065 60.4194 44.9591 60.2925 44.8958C60.0382 44.769 59.6847 44.5791 59.2922 44.3289C58.4993 43.8237 57.5823 43.0945 56.9817 42.1706C56.3927 41.2644 56.1095 40.1786 56.5441 38.889C56.9885 37.5706 58.2058 35.9705 60.7906 34.1242C63.3779 32.2762 65.2339 31.6935 66.5465 31.7562C67.8212 31.8171 68.673 32.4929 69.2656 33.4244C69.869 34.3729 70.1829 35.5617 70.3424 36.5418C70.4214 37.0269 70.4609 37.4501 70.4806 37.7512C70.4904 37.9015 70.4953 38.0208 70.4977 38.1015C70.4989 38.1419 70.4994 38.1725 70.4997 38.1925L70.5 38.2144L70.5 38.2192L70.5 38.2196V38.2199L60.7614 45.97Z" fill="#FFA500" stroke="black"/>
<path id="body_8" d="M132.5 58.5004C132.5 73.1748 119.142 85.7175 102.573 85.7175C91.4165 85.7175 82.7091 81.3821 75.1418 76.394C72.75 74.8174 70.4896 73.1882 68.2976 71.6082C67.0082 70.6788 65.7423 69.7664 64.4873 68.8918C61.1192 66.5447 57.8547 64.4892 54.5494 63.2303C53.7423 62.9229 52.9859 62.9439 52.2849 63.2214C51.601 63.492 51.0006 63.9942 50.459 64.5966C49.6163 65.534 48.832 66.8167 48.0553 68.0869C47.846 68.4291 47.6374 68.7703 47.4282 69.1037C46.4148 70.7193 45.3842 72.1651 44.1692 72.9571C43.5742 73.3449 42.9456 73.568 42.2565 73.5809C41.5654 73.5937 40.7742 73.3958 39.8552 72.8781C37.2866 71.4312 36.1951 69.9585 35.8847 68.5744C35.5717 67.1782 36.0209 65.7347 36.8442 64.2771C37.5169 63.0863 38.4013 61.9486 39.2376 60.8728C39.4269 60.6293 39.6137 60.389 39.7951 60.1519C40.2787 59.5197 40.7261 58.9063 41.0529 58.3347C41.3743 57.7726 41.6161 57.1893 41.6161 56.6268C41.6161 56.0731 41.4103 55.5459 41.1168 55.0552C40.8229 54.5639 40.4201 54.0747 39.9796 53.5905C39.6359 53.2127 39.2752 52.8425 38.911 52.4688C38.3083 51.8504 37.6961 51.2221 37.1357 50.5332C36.254 49.4493 35.6141 48.3386 35.5138 47.1528C35.4156 45.9923 35.8276 44.6602 37.2653 43.108C37.9714 42.3456 38.6468 41.9328 39.2873 41.7529C39.9252 41.5736 40.5707 41.6136 41.2397 41.8274C42.6091 42.2652 44.0117 43.4065 45.4801 44.755C45.7989 45.0477 46.1207 45.3502 46.4446 45.6547C47.5753 46.7175 48.7313 47.8041 49.8713 48.5816C51.3419 49.5846 52.9496 50.1884 54.5789 49.4454C57.8692 47.945 61.2939 45.6957 64.8697 43.1882C65.9772 42.4117 67.0985 41.6107 68.2362 40.7982C70.7857 38.9772 73.4172 37.0978 76.1574 35.3026C84.0778 30.1137 92.7812 25.7175 102.573 25.7175C110.758 25.7175 118.236 31.0164 123.698 37.8369C129.162 44.6602 132.5 52.8735 132.5 58.5004Z" fill="#FFA500" stroke="black"/>
<path id="color_8" d="M102.872 25.7272C105.34 25.8134 106.85 26.0762 109.269 26.8954C102.896 38.1878 99.8181 47.4523 100.016 56.5386C100.214 65.5932 103.663 74.3988 110.2 84.7883C107.438 85.4132 105.691 85.6429 102.878 85.7108C96.7368 73.423 93.8602 64.0277 93.9418 54.9251C94.0233 45.8288 97.0592 36.9616 102.872 25.7272ZM68.4132 40.7575L68.7028 40.5515L77.6382 34.4512C72.7256 44.1183 71.0693 51.1702 71.3885 57.4645C71.7237 64.0761 74.2402 69.7937 77.2907 76.7246L77.3125 76.7741L77.3131 76.7753C77.5065 77.2148 77.7021 77.6593 77.8996 78.1094C76.325 77.1285 74.9481 76.2518 73.6086 75.3652C73.6085 75.3652 73.6085 75.3652 73.6085 75.3652C73.6075 75.3645 73.6065 75.3639 73.6055 75.3632C73.6025 75.3612 73.5995 75.3591 73.5965 75.357L73.5965 75.357L73.5965 75.357L73.5908 75.3532C71.2165 73.7813 68.9528 72.1744 65.9088 69.898C63.4101 63.9013 62.2151 59.4383 62.2224 55.3064C62.2297 51.1874 63.4323 47.3455 65.8288 42.5901C66.6801 41.9908 67.5415 41.3778 68.4126 40.758L68.4132 40.7575Z" fill="white" stroke="black"/>
<g id="Left_eye_8">
<circle id="eye_8" cx="118" cy="56.2175" r="3" fill="black"/>
<g id="eye_reflection_8">
<circle id="big_8" cx="116.68" cy="55.6322" r="0.9375" fill="white"/>
<path id="small_8" d="M118.367 56.5697C118.367 56.7768 118.199 56.9447 117.992 56.9447C117.785 56.9447 117.617 56.7768 117.617 56.5697C117.617 56.3626 117.785 56.1947 117.992 56.1947C118.199 56.1947 118.367 56.3626 118.367 56.5697Z" fill="white"/>
</g>
</g>
<path id="Vector 8_7" d="M64 35.7175C65.3066 37.339 67.1466 39.3191 67 41.2175M61.5 39.7175C63.5904 40.2318 65.3186 42.8537 64.5 43.2175M107.5 20.7175C108.018 23.2909 107.651 24.4791 106 26.2175M102.5 20.7175C103.326 22.8228 103.212 23.7602 102.5 25.2175M98 21.7175C99.1994 23.3116 99.317 24.0478 99 25.2175M64 73.7175C65.299 73.3109 65.7186 72.8597 66 71.7175M67.5 72.7175C67.3284 73.9146 67.0192 74.4724 66 75.2175M91 86.2175C91.2229 87.7934 90.518 89.012 89 89.7175M93.5 87.2175C93.9899 89.145 93.7508 90.504 92.5 91.7175M96.5 88.2175C97.5163 89.8921 97.0993 91.2643 96.5 92.7175M130 68.7175C127.67 68.8818 126.981 68.1752 125.5 66.2175" stroke="black" stroke-width="0.7" stroke-linecap="round"/>
<g id="Group 3_7">
<path id="fins_9" d="M31.7614 338.97L31.5 338.544L31.7613 338.97L31.7612 338.97L31.7606 338.971L31.7582 338.972L31.7491 338.978L31.7136 338.999L31.5779 339.082C31.4601 339.154 31.2898 339.257 31.0794 339.383C30.6585 339.637 30.0765 339.984 29.4319 340.36C28.15 341.107 26.5974 341.981 25.5789 342.445C23.9496 343.188 22.3419 342.585 20.8713 341.582C19.7313 340.804 18.5753 339.717 17.4446 338.655C17.1207 338.35 16.7989 338.048 16.4801 337.755C15.0117 336.406 13.6091 335.265 12.2397 334.827C11.5707 334.614 10.9252 334.574 10.2873 334.753C9.64681 334.933 8.97141 335.346 8.26527 336.108C6.82756 337.66 6.41564 338.992 6.51378 340.153C6.61407 341.339 7.25398 342.449 8.13568 343.533C8.69606 344.222 9.30827 344.85 9.91101 345.469C10.2752 345.842 10.6359 346.213 10.9796 346.59C11.4201 347.075 11.8229 347.564 12.1168 348.055C12.4103 348.546 12.6161 349.073 12.6161 349.627C12.6161 350.189 12.3743 350.773 12.0529 351.335C11.7261 351.906 11.2787 352.52 10.7951 353.152C10.6137 353.389 10.4269 353.629 10.2376 353.873C9.40133 354.948 8.51691 356.086 7.84424 357.277C7.02087 358.735 6.57167 360.178 6.88473 361.574C7.19509 362.958 8.28665 364.431 10.8552 365.878C11.7742 366.396 12.5654 366.594 13.2565 366.581C13.9456 366.568 14.5742 366.345 15.1692 365.957C16.3842 365.165 17.4148 363.719 18.4282 362.104C18.6374 361.77 18.846 361.429 19.0553 361.087C19.832 359.817 20.6163 358.534 21.459 357.597C22.0006 356.994 22.601 356.492 23.2849 356.221C23.9859 355.944 24.7423 355.923 25.5494 356.23C28.3055 357.28 32.531 359.964 35.2781 361.802C35.4423 361.912 35.6039 362.094 35.6266 362.36C35.6468 362.598 35.5441 362.791 35.4604 362.913C35.2961 363.151 35.0071 363.388 34.7363 363.6C34.622 363.689 34.5028 363.779 34.3809 363.872C33.867 364.263 33.3056 364.69 32.8682 365.189C32.3363 365.796 32.0889 366.395 32.2878 367.047C32.5017 367.747 33.2732 368.673 35.2451 369.782C37.2308 370.899 38.3589 371.083 38.9757 370.93C39.5093 370.798 39.7919 370.366 39.9317 369.65C40.0411 369.09 40.0388 368.481 40.0366 367.92C40.036 367.751 40.0353 367.587 40.0378 367.43C40.0403 367.267 40.0466 367.107 40.0632 366.964C40.0788 366.83 40.1077 366.665 40.1789 366.52C40.2563 366.362 40.4238 366.156 40.7207 366.129C40.964 366.106 41.1651 366.222 41.2888 366.309C45.5196 369.304 53.0675 374.014 58.2004 376.259C58.4114 376.352 58.6568 376.508 58.7641 376.788C58.8792 377.089 58.7738 377.363 58.6647 377.54C58.5555 377.717 58.3946 377.879 58.232 378.023C58.0642 378.171 57.8647 378.324 57.6542 378.479C57.4951 378.596 57.3286 378.715 57.1586 378.837C56.3969 379.382 55.5645 379.978 55.0115 380.657C54.6818 381.063 54.4941 381.45 54.4643 381.825C54.4358 382.184 54.546 382.604 54.961 383.099C55.8252 384.132 57.9081 385.368 62.1539 386.742C66.3976 388.115 68.815 388.284 70.1383 387.887C70.7732 387.696 71.1381 387.381 71.3549 387.009C71.5802 386.624 71.6751 386.127 71.6689 385.535C71.6594 384.632 71.425 383.653 71.2009 382.716C71.1235 382.393 71.0474 382.075 70.9821 381.766C70.8639 381.208 70.7708 380.631 70.852 380.177C70.8949 379.937 70.9949 379.681 71.2129 379.488C71.4351 379.291 71.7144 379.218 72 379.218C80.2732 379.218 88.1576 375.96 93.9717 370.854C99.7871 365.748 103.5 358.822 103.5 351.5C103.5 346.951 101.317 340.699 97.573 334.848C93.8334 329.005 88.5852 323.638 82.5362 320.81L82.1646 320.637L82.2624 320.238C82.4848 319.332 82.7502 318.438 83.0087 317.58C83.0326 317.501 83.0564 317.422 83.0802 317.343C83.3144 316.567 83.5386 315.823 83.7221 315.112C84.1314 313.527 84.305 312.214 83.9907 311.195C83.6958 310.238 82.9342 309.439 81.1771 308.96C79.3938 308.474 76.6533 308.342 72.5453 308.715C66.9433 309.225 63.9391 310.126 62.4818 311.133C61.7705 311.624 61.4666 312.113 61.3699 312.564C61.2712 313.023 61.3695 313.53 61.6341 314.085C62.1141 315.093 63.0471 316.083 63.8765 316.964C63.9838 317.078 64.0894 317.19 64.1921 317.3C64.6102 317.748 65.0194 318.204 65.2099 318.592C65.3034 318.781 65.4049 319.073 65.293 319.375C65.1718 319.702 64.8776 319.849 64.6277 319.915C60.5633 320.989 54.9911 323.903 50.3986 326.578C48.1107 327.91 46.0799 329.175 44.6211 330.107C43.8919 330.572 43.3058 330.955 42.9024 331.22C42.7007 331.353 42.5447 331.457 42.4393 331.527L42.3197 331.607L42.2895 331.627L42.2821 331.632L42.2802 331.634L42.2798 331.634C42.2798 331.634 42.2797 331.634 42 331.22L42.2797 331.634L41.5 332.16L31.7614 338.97ZM31.7614 338.97L32.5994 338.456L31.6909 338.082L31.6908 338.082L31.6905 338.081L31.6903 338.081L31.6865 338.08L31.6679 338.072C31.6594 338.068 31.6485 338.063 31.6354 338.058C31.6225 338.052 31.6073 338.045 31.5902 338.038C31.5212 338.006 31.4194 337.959 31.2925 337.896C31.0382 337.769 30.6847 337.579 30.2922 337.329C29.4993 336.824 28.5823 336.095 27.9817 335.171C27.3927 334.264 27.1095 333.179 27.5441 331.889C27.9885 330.571 29.2058 328.971 31.7906 327.124C34.3779 325.276 36.2339 324.694 37.5465 324.756C38.8212 324.817 39.673 325.493 40.2656 326.424C40.869 327.373 41.1829 328.562 41.3424 329.542C41.4214 330.027 41.4609 330.45 41.4806 330.751C41.4904 330.902 41.4953 331.021 41.4977 331.102C41.4989 331.142 41.4994 331.173 41.4997 331.193L41.5 331.214L41.5 331.219L41.5 331.22V331.22L31.7614 338.97Z" fill="#FFA500" stroke="black"/>
<path id="body_9" d="M103.5 351.5C103.5 366.175 90.1422 378.718 73.5729 378.718C62.4165 378.718 53.7091 374.382 46.1418 369.394C43.75 367.817 41.4896 366.188 39.2976 364.608C38.0082 363.679 36.7423 362.766 35.4873 361.892C32.1192 359.545 28.8547 357.489 25.5494 356.23C24.7423 355.923 23.9859 355.944 23.2849 356.221C22.601 356.492 22.0006 356.994 21.459 357.597C20.6163 358.534 19.832 359.817 19.0553 361.087C18.846 361.429 18.6374 361.77 18.4282 362.104C17.4148 363.719 16.3842 365.165 15.1692 365.957C14.5742 366.345 13.9456 366.568 13.2565 366.581C12.5654 366.594 11.7742 366.396 10.8552 365.878C8.28665 364.431 7.19509 362.958 6.88473 361.574C6.57167 360.178 7.02087 358.735 7.84424 357.277C8.51691 356.086 9.40133 354.949 10.2376 353.873C10.4269 353.629 10.6137 353.389 10.7951 353.152C11.2787 352.52 11.7261 351.906 12.0529 351.335C12.3743 350.773 12.6161 350.189 12.6161 349.627C12.6161 349.073 12.4103 348.546 12.1168 348.055C11.8229 347.564 11.4201 347.075 10.9796 346.591C10.6359 346.213 10.2752 345.843 9.911 345.469C9.30827 344.85 8.69606 344.222 8.13568 343.533C7.25398 342.449 6.61407 341.339 6.51378 340.153C6.41564 338.992 6.82756 337.66 8.26527 336.108C8.97141 335.346 9.64681 334.933 10.2873 334.753C10.9252 334.574 11.5707 334.614 12.2397 334.827C13.6091 335.265 15.0117 336.406 16.4801 337.755C16.7989 338.048 17.1207 338.35 17.4446 338.655C18.5753 339.717 19.7313 340.804 20.8713 341.582C22.3419 342.585 23.9496 343.188 25.5789 342.445C28.8692 340.945 32.2939 338.696 35.8697 336.188C36.9772 335.412 38.0985 334.611 39.2362 333.798C41.7857 331.977 44.4172 330.098 47.1574 328.303C55.0778 323.114 63.7812 318.718 73.5729 318.718C81.7576 318.718 89.2359 324.016 94.6978 330.837C100.162 337.66 103.5 345.873 103.5 351.5Z" fill="#FFA500" stroke="black"/>
<path id="color_9" d="M73.8718 318.727C76.3398 318.813 77.8499 319.076 80.2686 319.895C73.8964 331.188 70.8181 340.452 71.0163 349.539C71.2137 358.593 74.6633 367.399 81.2002 377.788C78.4384 378.413 76.6909 378.643 73.8782 378.711C67.7368 366.423 64.8602 357.028 64.9418 347.925C65.0233 338.829 68.0592 329.962 73.8718 318.727ZM39.4132 333.758L39.7028 333.551L48.6382 327.451C43.7256 337.118 42.0693 344.17 42.3885 350.464C42.7237 357.076 45.2402 362.794 48.2907 369.725L48.3125 369.774L48.3131 369.775C48.5065 370.215 48.7021 370.659 48.8996 371.109C47.325 370.129 45.9481 369.252 44.6086 368.365C44.6085 368.365 44.6085 368.365 44.6085 368.365C44.6075 368.365 44.6065 368.364 44.6055 368.363C44.6025 368.361 44.5995 368.359 44.5965 368.357L44.5965 368.357L44.5965 368.357L44.5908 368.353C42.2165 366.781 39.9528 365.174 36.9088 362.898C34.4101 356.901 33.2151 352.438 33.2224 348.306C33.2297 344.187 34.4323 340.345 36.8288 335.59C37.6801 334.991 38.5415 334.378 39.4126 333.758L39.4132 333.758Z" fill="white" stroke="black"/>
<g id="Left_eye_9">
<circle id="eye_9" cx="89" cy="349.218" r="3" fill="black"/>
<g id="eye_reflection_9">
<circle id="big_9" cx="87.6797" cy="348.632" r="0.9375" fill="white"/>
<path id="small_9" d="M89.3672 349.57C89.3672 349.777 89.1993 349.945 88.9922 349.945C88.7851 349.945 88.6172 349.777 88.6172 349.57C88.6172 349.363 88.7851 349.195 88.9922 349.195C89.1993 349.195 89.3672 349.363 89.3672 349.57Z" fill="white"/>
</g>
</g>
<path id="Vector 8_8" d="M35 328.718C36.3066 330.339 38.1466 332.319 38 334.218M32.5 332.718C34.5904 333.232 36.3186 335.854 35.5 336.218M78.5 313.718C79.0178 316.291 78.6513 317.479 77 319.218M73.5 313.718C74.3257 315.823 74.2121 316.76 73.5 318.218M69 314.718C70.1994 316.312 70.317 317.048 70 318.218M35 366.718C36.299 366.311 36.7186 365.86 37 364.718M38.5 365.718C38.3284 366.915 38.0192 367.472 37 368.218M62 379.218C62.2229 380.793 61.518 382.012 60 382.718M64.5 380.218C64.9899 382.145 64.7508 383.504 63.5 384.718M67.5 381.218C68.5163 382.892 68.0993 384.264 67.5 385.718M101 361.718C98.6695 361.882 97.9814 361.175 96.5 359.218" stroke="black" stroke-width="0.7" stroke-linecap="round"/>
</g>
</g>
</g>
</g>
</g>
</g>
</g>
</g>
</svg>
