<svg width="100%" height="100%" viewBox="0 0 400 400" fill="none" xmlns="http://www.w3.org/2000/svg">
<g id="gipo">
<g id="gipo_2">
<g id="body">
<path d="M68.8308 120.559C131.141 37.0343 263.553 39.4473 336.443 149.909C352.14 167.691 368.82 163.975 375.043 161.68C376.323 161.208 377.836 161.975 377.94 163.336C379.003 177.254 365.881 178.859 341.273 175.319C340.089 175.149 339.009 176.058 338.965 177.254C336.84 234.533 330.543 265.484 313.227 317.366C313.09 317.774 312.817 318.14 312.462 318.383C298.455 327.982 290.173 328.073 274.737 323.058C274.246 322.898 273.827 322.545 273.589 322.087C267.18 309.757 266.726 303.402 265.704 286.125C242.102 292.768 227.867 294.283 207.96 293.455C205.063 310.686 197.845 328.221 195.86 332.84C195.534 333.598 194.906 334.167 194.123 334.427C183.166 338.051 175.618 338.075 161.166 333.031C160.097 332.658 159.34 331.709 159.218 330.583C158.553 324.437 156.546 303.952 157.341 287.052C149.568 286.117 146.214 285.111 139.446 281.836C138.241 281.252 136.803 281.978 136.562 283.295C133.719 298.824 130.747 308.312 124.91 323.45C124.679 324.048 124.169 324.505 123.548 324.664C108.828 328.427 100.388 327.841 86.3373 323.093C85.8013 322.912 85.3638 322.508 85.1459 321.986C81.8003 313.967 80.3166 307.675 79.7644 299.257C68.4108 298.532 62.2057 299.24 51.0003 293.137C50.7429 292.997 50.5041 292.817 50.3035 292.604C41.2366 282.958 38.9393 264.44 35.5653 242.064C35.5285 241.82 35.4431 241.578 35.3212 241.363C5.4053 188.69 27.7529 147.217 53.2114 136.034L49.0462 123.761C44.8811 101.882 63.6243 97.0794 68.8308 120.559Z" fill="#8690ED"/>
<path d="M68.8308 120.559C131.141 37.0343 263.553 39.4473 336.443 149.909C352.14 167.691 368.82 163.975 375.043 161.68C376.323 161.208 377.836 161.975 377.94 163.336C379.003 177.254 365.881 178.859 341.273 175.319C340.089 175.149 339.009 176.058 338.965 177.254C336.84 234.533 330.543 265.484 313.227 317.366C313.09 317.774 312.817 318.14 312.462 318.383C298.455 327.982 290.173 328.073 274.737 323.058C274.246 322.898 273.827 322.545 273.589 322.087C267.18 309.757 266.726 303.402 265.704 286.125M68.8308 120.559C63.6243 97.0794 44.8811 101.882 49.0462 123.761L53.2114 136.034C27.7529 147.217 5.4053 188.69 35.3212 241.363C35.4431 241.578 35.5285 241.82 35.5653 242.064C38.9393 264.44 41.2366 282.958 50.3035 292.604C50.5041 292.817 50.7429 292.997 51.0003 293.137C62.2057 299.24 68.4108 298.532 79.7644 299.257M68.8308 120.559L70.3928 129.097C91.7993 123.803 103.209 124.416 122.978 129.097C117.251 84.8059 150.572 101.882 143.283 134.967C147.088 138.114 149.042 140.181 152.134 144.573M265.704 286.125C265.767 284.446 265.593 288.01 265.704 286.125ZM265.704 286.125C242.102 292.768 227.867 294.283 207.96 293.455M265.704 286.125V279.721M207.96 293.455C205.063 310.686 197.845 328.221 195.86 332.84C195.534 333.598 194.906 334.167 194.123 334.427C183.166 338.051 175.618 338.075 161.166 333.031C160.097 332.658 159.34 331.709 159.218 330.583C158.553 324.437 156.546 303.952 157.341 287.052M207.96 293.455L208.433 287.192M157.341 287.052C157.341 285.985 157.148 289.098 157.341 287.052ZM157.341 287.052C149.568 286.117 146.214 285.111 139.446 281.836C138.241 281.252 136.803 281.978 136.562 283.295C133.719 298.824 130.747 308.312 124.91 323.45C124.679 324.048 124.169 324.505 123.548 324.664C108.828 328.427 100.388 327.841 86.3373 323.093C85.8013 322.912 85.3638 322.508 85.1459 321.986C81.8003 313.967 80.3166 307.675 79.7644 299.257M79.7644 299.257C97.2235 300.616 107.272 300.775 123.423 299.48C125.093 299.346 126.589 298.373 127.377 296.893C132.987 286.35 135.648 279.354 138.978 267.284C139.069 266.952 139.251 266.64 139.493 266.395C155.469 250.247 160.218 244.143 165.15 224.083" stroke="black" stroke-width="2" stroke-linecap="round"/>
</g>
<g id="shadow_back_leg" filter="url(#filter0_f_294_88)">
<path d="M265.704 280.255H270.39L281.844 324.546L275.076 322.945C268.47 312.25 266.109 302.738 265.704 280.255Z" fill="black" fill-opacity="0.15"/>
</g>
<g id="shadow" filter="url(#filter1_f_294_88)">
<path d="M169.384 226.358C171.84 268.494 172.606 292.264 169.384 335.219L160.533 332.551C158.301 316.166 157.84 306.379 157.93 288.259L137.104 281.322C132.621 297.581 130.931 307.765 124.609 324.013C110.487 328.787 102.355 327.539 86.0809 322.412C82.957 312.806 80.8744 309.604 80.8744 299.466C98.2217 301.375 107.618 301.377 125.65 299.466C134.059 286.322 136.984 279.08 139.187 266.38C153.75 254.086 159.745 244.177 165.219 225.291L169.384 226.358Z" fill="black" fill-opacity="0.15"/>
</g>
<ellipse id="left_nosdril" cx="70.9821" cy="290.394" rx="2.08259" ry="2.13452" fill="black"/>
<ellipse id="right_nosdril" cx="102.221" cy="292.528" rx="2.08259" ry="2.13452" fill="black"/>
<g id="Eyes">
<ellipse id="eye" cx="7.37073" cy="7.79872" rx="7.37073" ry="7.79872" transform="matrix(0.99915 0.0412149 -0.0387142 0.99925 40.347 227.087)" fill="black"/>
<g id="eye_reflection">
<ellipse id="big" cx="2.30335" cy="2.4371" rx="2.30335" ry="2.4371" transform="matrix(0.99915 0.0412149 -0.0387142 0.99925 42.0204 230.999)" fill="white"/>
</g>
<g id="eye_reflection_2">
<ellipse id="eye_2" cx="7.37073" cy="7.79872" rx="7.37073" ry="7.79872" transform="matrix(0.99915 0.0412149 -0.0387142 0.99925 123.223 229.776)" fill="black"/>
<g id="eye_reflection_3">
<ellipse id="big_2" cx="2.30335" cy="2.4371" rx="2.30335" ry="2.4371" transform="matrix(0.99915 0.0412149 -0.0387142 0.99925 124.895 233.688)" fill="white"/>
</g>
</g>
</g>
</g>
</g>
<defs>
<filter id="filter0_f_294_88" x="261.704" y="276.255" width="24.14" height="52.2913" filterUnits="userSpaceOnUse" color-interpolation-filters="sRGB">
<feFlood flood-opacity="0" result="BackgroundImageFix"/>
<feBlend mode="normal" in="SourceGraphic" in2="BackgroundImageFix" result="shape"/>
<feGaussianBlur stdDeviation="2" result="effect1_foregroundBlur_294_88"/>
</filter>
<filter id="filter1_f_294_88" x="76.8744" y="221.291" width="98.6487" height="117.928" filterUnits="userSpaceOnUse" color-interpolation-filters="sRGB">
<feFlood flood-opacity="0" result="BackgroundImageFix"/>
<feBlend mode="normal" in="SourceGraphic" in2="BackgroundImageFix" result="shape"/>
<feGaussianBlur stdDeviation="2" result="effect1_foregroundBlur_294_88"/>
</filter>
</defs>
</svg>
