<svg width="100%" height="100%" viewBox="0 0 400 400" fill="none" xmlns="http://www.w3.org/2000/svg">
<g id="koala">
<g id="Group 6">
<g id="Vector 29">
<g filter="url(#filter0_i_294_83)">
<path d="M107.31 151.2C137.811 142.041 164.615 143.873 199.737 157.612C232.063 134.113 261.746 146.313 277.512 170.434C290.575 171.518 303.255 179.377 313.28 193.331C336.443 186.758 342.074 205.238 324.98 215.77C329.74 228.558 332.886 243.889 333.756 261.565C347.511 280.235 360.491 292.374 384.59 300.948C384.59 300.948 388.75 300.948 380.431 307.817C383.568 310.481 387.116 312.659 385.666 314.931C385.573 315.075 385.435 315.178 385.277 315.244C357.044 327.02 307.266 321.544 254.731 317.434C232.834 321.799 210.828 323.387 193.267 335.752C190.956 338.041 185.411 340.789 186.335 331.63C185.411 335.752 175.244 342.163 176.168 330.256C167.85 339.415 165.075 329.071 167.85 320.639C137.576 324.517 104.274 323.12 78.6581 312.962C62.0213 322.013 56.4757 335.294 50.4679 322.013C46.0954 329.341 39.8389 324.761 41.2253 319.724C30.5962 329.798 23.6642 312.962 46.0954 289.041C35.7014 274.449 32.1501 254.421 39.3765 227.677C-31.1063 176.097 62.9457 89.8358 107.31 151.2Z" fill="#C4C4C4"/>
</g>
<path d="M239.48 256.527C241.717 251.595 242.203 248.34 241.329 241.415C279.469 236.561 289.435 199.011 277.512 170.434M167.85 320.639C137.576 324.517 104.274 323.12 78.6581 312.962M167.85 320.639C178.402 302.536 187.836 296.968 206.207 289.041M167.85 320.639C165.075 329.071 167.85 339.415 176.168 330.256C175.244 342.163 185.411 335.752 186.335 331.63C185.411 340.789 190.956 338.041 193.267 335.752C210.828 323.387 232.834 321.799 254.731 317.434C307.266 321.544 357.044 327.02 385.277 315.244C385.435 315.178 385.573 315.075 385.666 314.931C387.116 312.659 383.568 310.481 380.431 307.817C388.75 300.948 384.59 300.948 384.59 300.948C360.491 292.374 347.511 280.235 333.756 261.565C332.886 243.889 329.74 228.558 324.98 215.77M277.512 170.434C261.746 146.313 232.063 134.113 199.737 157.612C164.615 143.873 137.811 142.041 107.31 151.2C62.9457 89.8358 -31.1063 176.097 39.3765 227.677C32.1501 254.421 35.7014 274.449 46.0954 289.041M277.512 170.434C290.575 171.518 303.255 179.377 313.28 193.331M313.28 193.331C317.785 199.601 321.753 207.101 324.98 215.77M313.28 193.331C336.443 186.758 342.074 205.238 324.98 215.77M46.0954 289.041C53.757 299.798 65.1366 307.6 78.6581 312.962M46.0954 289.041C23.6642 312.962 30.5962 329.798 41.2253 319.724C39.8389 324.761 46.0954 329.341 50.4679 322.013C56.4757 335.294 62.0213 322.013 78.6581 312.962" stroke="black"/>
</g>
<g id="Vector 30" filter="url(#filter1_i_294_83)">
<path d="M66.1353 188.302C52.2716 202.957 27.3164 198.377 34.7102 169.527C45.8014 149.377 70.2945 150.293 85.0827 166.779C75.2248 166.763 72.7293 169.338 74.454 179.144C65.4985 177.125 61.7993 177.289 66.1353 188.302Z" fill="#E7E7E7"/>
</g>
<path id="Vector 27 (Stroke)" fill-rule="evenodd" clip-rule="evenodd" d="M67.2081 188.507C67.1254 188.297 66.9963 187.969 66.9963 187.969C65.9211 185.239 65.3798 183.264 65.2678 181.869C65.156 180.477 65.4806 179.867 65.88 179.557C66.3482 179.194 67.2137 178.995 68.708 179.088C70.1651 179.18 72.0114 179.532 74.2489 180.037L75.6029 180.342L75.3645 178.986C74.9389 176.567 74.7864 174.658 74.9214 173.154C75.0555 171.661 75.4673 170.625 76.1219 169.88C76.7785 169.132 77.7664 168.578 79.2435 168.214C80.7288 167.848 82.6457 167.691 85.0812 167.695L87.1438 167.698L85.7735 166.171C78.2211 157.751 68.1494 153.263 58.4872 153.499C48.7945 153.736 39.6002 158.73 33.8987 169.088C33.7215 169.669 34.2932 169.976 34.7101 169.527C45.5934 149.755 69.3808 150.266 84.2409 165.868C84.5248 166.166 84.8055 166.47 85.0827 166.779C84.6571 166.778 84.2452 166.782 83.8468 166.792C75.3308 166.992 72.9693 169.568 74.2928 178.169C74.3416 178.485 74.3953 178.81 74.4539 179.144C74.1218 179.069 73.7969 178.997 73.4793 178.928C65.2351 177.152 61.96 177.698 66.1352 188.302C66.5077 188.929 67.1047 189.21 67.2081 188.507Z" fill="black"/>
<g id="Vector 31" filter="url(#filter2_i_294_83)">
<path d="M227.86 200.511C237.79 218.023 263.126 219.484 262.902 189.718C256.99 167.526 232.985 162.618 214.65 175.125C224.227 177.444 226.029 180.534 221.99 189.648C231.173 189.808 234.726 190.843 227.86 200.511Z" fill="#E7E7E7"/>
</g>
<g id="Vector 27 (Stroke)_2" filter="url(#filter3_i_294_83)">
<path fill-rule="evenodd" clip-rule="evenodd" d="M226.769 200.456C226.9 200.271 227.104 199.984 227.104 199.984C228.807 197.586 229.808 195.797 230.254 194.469C230.698 193.144 230.53 192.475 230.216 192.079C229.849 191.616 229.057 191.217 227.583 190.954C226.146 190.698 224.269 190.603 221.974 190.564L220.586 190.539L221.144 189.28C222.141 187.031 222.749 185.213 222.981 183.721C223.21 182.239 223.06 181.136 222.604 180.257C222.147 179.376 221.321 178.604 219.974 177.901C218.62 177.194 216.797 176.588 214.431 176.015L212.427 175.53L214.126 174.371C223.49 167.983 234.352 166.009 243.677 168.526C253.032 171.05 260.756 178.076 263.796 189.484C263.828 190.09 263.198 190.253 262.902 189.718C257.1 167.942 233.878 162.808 215.687 174.44C215.34 174.662 214.994 174.891 214.65 175.125C215.064 175.225 215.463 175.327 215.847 175.43C224.069 177.64 225.741 180.701 222.382 188.739C222.258 189.035 222.128 189.338 221.99 189.648C222.331 189.654 222.664 189.661 222.989 189.67C231.422 189.896 234.471 191.201 227.86 200.511C227.348 201.031 226.7 201.162 226.769 200.456Z" fill="black"/>
</g>
<g id="Ellipse 27">
<g filter="url(#filter4_i_294_83)">
<path d="M147.378 251.49C145.735 267.04 139.415 279.452 126.76 278.139C112.256 276.219 110.613 263.834 112.256 248.285C113.899 232.735 117.34 219.178 133.052 220.808C147.378 222.294 149.021 235.941 147.378 251.49Z" fill="#776F6F"/>
</g>
<path d="M66.18 240.958C71.7256 225.387 88.3624 230.883 86.0517 244.163M173.395 249.658C179.073 234.489 195.115 239.126 193.267 253.322M147.378 251.49C145.735 267.04 139.415 279.452 126.76 278.139C112.256 276.219 110.613 263.834 112.256 248.285C113.899 232.735 117.34 219.178 133.052 220.808C147.378 222.294 149.021 235.941 147.378 251.49Z" stroke="black" stroke-linecap="round"/>
</g>
<path id="Vector 32" d="M141.97 283.088C139.198 291.331 125.862 289.509 126.72 278.509C125.334 289.957 111.932 290.415 111.932 281.256" stroke="black" stroke-linecap="round"/>
</g>
</g>
<defs>
<filter id="filter0_i_294_83" x="13.5" y="125.5" width="373" height="213" filterUnits="userSpaceOnUse" color-interpolation-filters="sRGB">
<feFlood flood-opacity="0" result="BackgroundImageFix"/>
<feBlend mode="normal" in="SourceGraphic" in2="BackgroundImageFix" result="shape"/>
<feColorMatrix in="SourceAlpha" type="matrix" values="0 0 0 0 0 0 0 0 0 0 0 0 0 0 0 0 0 0 127 0" result="hardAlpha"/>
<feOffset dy="-4"/>
<feGaussianBlur stdDeviation="2"/>
<feComposite in2="hardAlpha" operator="arithmetic" k2="-1" k3="1"/>
<feColorMatrix type="matrix" values="0 0 0 0 0 0 0 0 0 0 0 0 0 0 0 0 0 0 0.25 0"/>
<feBlend mode="normal" in2="shape" result="effect1_innerShadow_294_83"/>
</filter>
<filter id="filter1_i_294_83" x="33.369" y="154.406" width="51.7137" height="44.0107" filterUnits="userSpaceOnUse" color-interpolation-filters="sRGB">
<feFlood flood-opacity="0" result="BackgroundImageFix"/>
<feBlend mode="normal" in="SourceGraphic" in2="BackgroundImageFix" result="shape"/>
<feColorMatrix in="SourceAlpha" type="matrix" values="0 0 0 0 0 0 0 0 0 0 0 0 0 0 0 0 0 0 127 0" result="hardAlpha"/>
<feOffset dy="2"/>
<feGaussianBlur stdDeviation="1.5"/>
<feComposite in2="hardAlpha" operator="arithmetic" k2="-1" k3="1"/>
<feColorMatrix type="matrix" values="0 0 0 0 0 0 0 0 0 0 0 0 0 0 0 0 0 0 0.25 0"/>
<feBlend mode="normal" in2="shape" result="effect1_innerShadow_294_83"/>
</filter>
<filter id="filter2_i_294_83" x="214.65" y="168.382" width="48.2531" height="46.6357" filterUnits="userSpaceOnUse" color-interpolation-filters="sRGB">
<feFlood flood-opacity="0" result="BackgroundImageFix"/>
<feBlend mode="normal" in="SourceGraphic" in2="BackgroundImageFix" result="shape"/>
<feColorMatrix in="SourceAlpha" type="matrix" values="0 0 0 0 0 0 0 0 0 0 0 0 0 0 0 0 0 0 127 0" result="hardAlpha"/>
<feOffset dy="2"/>
<feGaussianBlur stdDeviation="1.5"/>
<feComposite in2="hardAlpha" operator="arithmetic" k2="-1" k3="1"/>
<feColorMatrix type="matrix" values="0 0 0 0 0 0 0 0 0 0 0 0 0 0 0 0 0 0 0.25 0"/>
<feBlend mode="normal" in2="shape" result="effect1_innerShadow_294_83"/>
</filter>
<filter id="filter3_i_294_83" x="212.427" y="167.466" width="51.4004" height="48.4684" filterUnits="userSpaceOnUse" color-interpolation-filters="sRGB">
<feFlood flood-opacity="0" result="BackgroundImageFix"/>
<feBlend mode="normal" in="SourceGraphic" in2="BackgroundImageFix" result="shape"/>
<feColorMatrix in="SourceAlpha" type="matrix" values="0 0 0 0 0 0 0 0 0 0 0 0 0 0 0 0 0 0 127 0" result="hardAlpha"/>
<feOffset dy="2"/>
<feGaussianBlur stdDeviation="1.5"/>
<feComposite in2="hardAlpha" operator="arithmetic" k2="-1" k3="1"/>
<feColorMatrix type="matrix" values="0 0 0 0 0 0 0 0 0 0 0 0 0 0 0 0 0 0 0.25 0"/>
<feBlend mode="normal" in2="shape" result="effect1_innerShadow_294_83"/>
</filter>
<filter id="filter4_i_294_83" x="65.6797" y="216.175" width="128.234" height="62.5599" filterUnits="userSpaceOnUse" color-interpolation-filters="sRGB">
<feFlood flood-opacity="0" result="BackgroundImageFix"/>
<feBlend mode="normal" in="SourceGraphic" in2="BackgroundImageFix" result="shape"/>
<feColorMatrix in="SourceAlpha" type="matrix" values="0 0 0 0 0 0 0 0 0 0 0 0 0 0 0 0 0 0 127 0" result="hardAlpha"/>
<feOffset dy="-4"/>
<feGaussianBlur stdDeviation="2"/>
<feComposite in2="hardAlpha" operator="arithmetic" k2="-1" k3="1"/>
<feColorMatrix type="matrix" values="0 0 0 0 0 0 0 0 0 0 0 0 0 0 0 0 0 0 0.25 0"/>
<feBlend mode="normal" in2="shape" result="effect1_innerShadow_294_83"/>
</filter>
</defs>
</svg>
