<svg width="100%" height="100%" viewBox="0 0 400 400" fill="none" xmlns="http://www.w3.org/2000/svg">
    <g id="octopus">
        <path id="first_leg"
            d="M6.02071 350.061C51.8789 285.652 140.969 266.635 161.021 178.561L168.771 196.061L176.521 213.561C176.521 247.561 37.5208 334.061 37.5209 366.061C37.5209 398.061 -17.9792 393.561 6.02071 350.061Z"
            fill="#AA8AEE" />
        <path id="second_leg"
            d="M84.8667 340.104C99.994 309.708 152.127 285.585 189.597 221L211.739 229.807C211.739 258.325 120.081 337.549 111.693 353.524C103.304 369.5 69.7394 370.5 84.8667 340.104Z"
            fill="#AA8AEE" />
        <path id="forth_leg"
            d="M252.574 408.113C272.185 377.662 265.866 316.813 304.63 247.241L284.482 231.816C258.342 247.411 235.711 374.524 225.642 390.929C215.574 407.334 232.962 438.564 252.574 408.113Z"
            fill="#AA8AEE" />
        <path id="third_leg"
            d="M125.245 407.21C140.28 359.986 194.153 321.814 231.667 221.383L255.035 234.607C255.764 278.667 158.161 379.5 158.161 420C158.161 460.5 110.211 454.433 125.245 407.21Z"
            fill="#AA8AEE" />
        <path id="fifth_leg"
            d="M313.06 440.934C346.957 401.434 337.186 290.934 345.686 233.434C354.186 175.934 318.319 244.344 318.319 244.344C301.85 272.326 319.985 393.462 282.06 419.434C244.134 445.407 279.162 480.434 313.06 440.934Z"
            fill="#AA8AEE" />
        <path id="body"
            d="M359.521 180.061C339.021 285.561 293.263 255.982 240.521 244.561C187.778 233.14 149.871 225.096 163.021 164.372C192.322 29.0608 231.903 1.81711 304.521 23.5608C377.138 45.3044 378.521 102.061 359.521 180.061Z"
            fill="#AA8AEE" />
        <circle id="left_eye" cx="215.021" cy="108.061" r="8" fill="black" />
        <circle id="right_eye" cx="332.021" cy="135.061" r="8" fill="black" />
        <g id="left_eye_reflection">
            <circle id="big" cx="211.5" cy="106.5" r="2.5" fill="white" />
            <path id="small"
                d="M216 109C216 109.552 215.552 110 215 110C214.448 110 214 109.552 214 109C214 108.448 214.448 108 215 108C215.552 108 216 108.448 216 109Z"
                fill="white" />
        </g>
        <g id="right_eye_reflection">
            <circle id="big_2" cx="328.5" cy="133.5" r="2.5" fill="white" />
            <path id="small_2"
                d="M333 136C333 136.552 332.552 137 332 137C331.448 137 331 136.552 331 136C331 135.448 331.448 135 332 135C332.552 135 333 135.448 333 136Z"
                fill="white" />
        </g>
        <g id="nose">
            <ellipse id="big_3" cx="265.93" cy="138.936" rx="28" ry="25"
                transform="rotate(16.3627 265.93 138.936)" fill="#C5B0F2" />
            <ellipse id="small_3" cx="265.675" cy="139.061" rx="15.9033" ry="12.7076"
                transform="rotate(23.5297 265.675 139.061)" fill="#AA8AEE" />
        </g>
        <g id="body_reflection">
            <path id="Vector 1" d="M264.5 30C246.992 29.254 235.213 34.4558 224.5 47.5"
                stroke="#C5B0F2" stroke-opacity="0.6" stroke-width="5" stroke-linecap="round" />
            <path id="Vector 2" d="M219.5 53.5L217.5 56" stroke="#C5B0F2" stroke-opacity="0.6"
                stroke-width="5" stroke-linecap="round" />
        </g>
    </g>
</svg>