<svg width="100%" height="100%" viewBox="0 0 400 400" fill="none" xmlns="http://www.w3.org/2000/svg">
<g id="raccoon">
<g id="Raccoon">
<g id="Tail">
<path fill-rule="evenodd" clip-rule="evenodd" d="M265.933 302.002C270.152 276.396 266.979 264.114 253.802 245.026C246.424 254.868 238.26 261.278 228.783 260.011C199.973 256.16 218.396 291.256 222.339 295.443C228.467 301.952 245.55 304.192 265.933 302.002Z" fill="#D9D9D9"/>
<path d="M357.671 256.93C375.63 230.498 380.517 197.002 364.599 180.094C352.096 166.813 329.53 159.394 309.352 167.58C345.224 193.617 354.851 214.164 355.139 260.396C356.025 259.264 356.87 258.109 357.671 256.93Z" fill="#776F6F"/>
<path d="M253.802 245.026C266.979 264.114 270.152 276.396 265.933 302.002C280.714 300.414 297.229 296.496 312.56 290.188C313.125 246.802 303.705 229.04 276.804 204.167C269.64 218.045 262.235 233.777 253.802 245.026Z" fill="#776F6F"/>
<path d="M293.606 177.978C287.901 183.522 282.427 193.274 276.804 204.167C303.705 229.04 313.125 246.802 312.56 290.188C329.52 283.21 345.03 273.307 355.139 260.396C354.851 214.164 345.224 193.617 309.352 167.58C303.841 169.816 298.508 173.216 293.606 177.978Z" fill="#D9D9D9"/>
<path d="M355.623 258.944C355.384 236.545 352.864 220.163 346.033 206.191C339.152 192.113 327.924 180.536 310.386 167.713C330.133 160.157 352.034 167.477 364.24 180.443C372.063 188.752 374.813 201.183 373.346 214.886C371.879 228.584 366.202 243.488 357.263 256.644C356.735 257.421 356.188 258.187 355.623 258.944ZM293.949 178.342C298.73 173.697 303.922 170.363 309.284 168.151C327.062 181.082 338.298 192.633 345.145 206.639C352.004 220.672 354.486 237.226 354.642 260.222C344.74 272.798 329.648 282.518 313.065 289.435C313.287 268.108 311.057 252.945 305.435 240.031C299.787 227.055 290.735 216.399 277.421 204.057C282.988 193.29 288.372 183.762 293.949 178.342ZM304.528 240.439C310.105 253.251 312.323 268.366 312.068 289.847C297.093 295.971 281.002 299.813 266.529 301.43C268.545 288.926 268.775 279.557 266.875 270.959C264.962 262.302 260.9 254.471 254.416 245.037C261.316 235.75 267.532 223.498 273.471 211.794C274.638 209.492 275.795 207.212 276.944 204.98C290.114 217.21 298.988 227.714 304.528 240.439ZM253.783 245.878C260.127 255.143 264.052 262.785 265.907 271.18C267.781 279.662 267.553 288.96 265.506 301.54C255.489 302.592 246.301 302.565 238.861 301.486C231.301 300.39 225.641 298.222 222.697 295.095C221.768 294.107 219.904 291.188 218.077 287.378C216.257 283.582 214.505 278.971 213.767 274.627C213.026 270.261 213.329 266.293 215.451 263.653C217.554 261.038 221.585 259.557 228.718 260.511C238.3 261.792 246.491 255.44 253.783 245.878Z" stroke="black"/>
</g>
<path id="body" d="M146.084 332.531C157.196 332.531 170.915 331.904 184.347 328.969C197.776 326.034 210.956 320.782 220.955 311.504C240.956 292.944 247.987 258.536 219.644 195.3L227.654 193.821C230.071 193.374 231.683 191.071 231.274 188.647L230.281 182.761C229.973 180.937 231.138 179.188 232.941 178.77L237.633 177.68C240.456 177.024 241.932 173.91 240.653 171.31L237.142 164.176C236.398 162.665 236.836 160.838 238.185 159.829L246.842 153.347C248.784 151.894 249.216 149.169 247.86 147.169C239.614 134.998 234.702 125.846 226.695 108.425C233.294 103.346 236.64 97.4536 237.592 91.7289C238.558 85.9186 237.05 80.3229 234.045 75.9901C231.041 71.66 226.525 68.5709 221.455 67.8035C216.371 67.0339 210.789 68.6088 205.694 73.4977C204.273 74.8621 202.069 75.1449 200.474 74.0749C183.465 62.6657 159.622 58.4727 146.084 58.4727C132.878 58.4727 124.723 60.3657 112.344 65.2836C110.616 65.9703 108.617 65.2007 107.545 63.585C104.081 58.366 99.2167 55.3304 93.8346 54.6478C88.4578 53.966 82.619 55.6387 77.2033 59.7295C71.2117 64.2552 68.6599 70.2833 68.8947 76.3711C69.1239 82.3148 72.0059 88.2744 76.8469 92.9298C76.1137 93.9783 75.4085 95.0562 74.7321 96.1635C65.0622 110.67 56.5507 121.301 46.2926 132.226C43.5705 135.126 45.5792 139.965 49.5849 139.965H50.8712C52.2297 139.965 53.2638 140.673 53.7523 141.61C54.2373 142.541 54.2019 143.727 53.3509 144.758C53.1881 144.956 53.0249 145.153 52.8616 145.35C50.8917 147.729 48.9152 150.117 47.6322 152.974C47.0528 154.264 47.3175 155.558 48.0736 156.512C48.8219 157.456 50.0455 158.067 51.4051 158.067H55.5523C57.781 158.067 59.3996 160.104 58.8133 162.208C58.4593 163.478 58.0888 164.711 57.7241 165.926C56.9115 168.631 56.1277 171.241 55.6198 173.941C55.0606 176.914 57.8312 179.138 60.6662 178.51L69.0682 176.646C70.1437 180.825 71.3945 185.117 72.8275 189.519C73.0709 190.267 73.0482 191.12 72.7784 191.869C49.951 255.233 57.0334 290.477 75.6157 309.858C94.1534 329.193 123.961 332.531 146.084 332.531Z" fill="#D9D9D9" stroke="black"/>
<g id="Ears">
<path d="M98.4166 70.8648C92.4602 64.4567 81.7787 70.1743 85.4198 79.6661C86.2224 81.7583 88.8606 82.1346 90.6559 80.7935L97.6118 75.5972C99.1553 74.4442 99.7283 72.2759 98.4166 70.8648Z" fill="#776F6F"/>
<path d="M222.679 95.367C229.51 89.0593 220.945 76.9053 213.065 83.6384C211.676 84.8246 211.772 86.9222 212.926 88.338L218.08 94.665C219.244 96.0949 221.324 96.618 222.679 95.367Z" fill="#776F6F"/>
<path d="M98.4166 70.8648C92.4602 64.4567 81.7787 70.1743 85.4198 79.6661C86.2224 81.7583 88.8606 82.1346 90.6559 80.7935L97.6118 75.5972C99.1553 74.4442 99.7283 72.2759 98.4166 70.8648Z" stroke="black"/>
<path d="M222.679 95.367C229.51 89.0593 220.945 76.9053 213.065 83.6384C211.676 84.8246 211.772 86.9222 212.926 88.338L218.08 94.665C219.244 96.0949 221.324 96.618 222.679 95.367Z" stroke="black"/>
</g>
<path id="Left_eye_color" d="M127.307 126.901C130.255 137.832 121.866 149.86 108.307 153.635C94.7492 157.409 81.4964 151.406 78.5481 140.475C77.0609 134.961 77.084 130.863 79.021 127.857C80.9602 124.848 84.9186 122.778 91.7104 121.588C92.2565 121.493 92.7721 121.213 93.1548 120.815C101.022 112.643 108.817 111.506 114.982 113.683C121.195 115.877 125.841 121.466 127.307 126.901Z" fill="#776F6F" stroke="black"/>
<path id="Right_eye_color" d="M163.705 126.58C158.192 136.43 163.395 150.191 175.619 157.252C187.843 164.313 202.143 161.819 207.656 151.969C210.382 147.099 210.457 142.337 208.333 138.08C206.196 133.798 201.802 129.965 195.47 127.069C194.968 126.84 194.542 126.441 194.271 125.963C191.461 121.013 188.488 118.003 185.555 116.394C182.632 114.791 179.714 114.56 176.959 115.232C171.41 116.584 166.486 121.61 163.705 126.58Z" fill="#776F6F" stroke="black"/>
<path id="Right_eye" d="M192.649 141.006C192.649 144.991 189.471 148.209 185.567 148.209C181.664 148.209 178.486 144.991 178.486 141.006C178.486 137.021 181.664 133.803 185.567 133.803C189.471 133.803 192.649 137.021 192.649 141.006Z" fill="black" stroke="black"/>
<path id="Left_eye" d="M111.526 135.614C111.526 139.6 108.348 142.817 104.444 142.817C100.54 142.817 97.3623 139.6 97.3623 135.614C97.3623 131.629 100.54 128.411 104.444 128.411C108.348 128.411 111.526 131.629 111.526 135.614Z" fill="black" stroke="black"/>
<path id="Face" d="M163.081 155.273C163.081 159.745 160.497 163.747 156.571 166.651C152.647 169.554 147.433 171.316 142.306 171.316C137.191 171.316 133.169 169.563 130.424 166.706C127.676 163.846 126.173 159.84 126.173 155.273C126.173 146.115 132.188 137.655 142.306 137.655C147.407 137.655 152.615 139.794 156.548 143.089C160.485 146.389 163.081 150.79 163.081 155.273Z" fill="white" stroke="black"/>
<g id="Legs">
<path d="M107.61 332.958C107.973 334.097 108.826 335.013 109.936 335.457L115.758 337.782C118.214 338.763 120.929 337.133 121.218 334.504L123.286 315.678C114.846 319.051 110.135 319.158 101.765 314.641L107.61 332.958Z" fill="#776F6F"/>
<path d="M157.758 334.78C157.912 336.692 159.402 338.226 161.309 338.435L169.965 339.386C171.815 339.59 173.561 338.489 174.177 336.732L180.387 318.996C170.907 321.163 165.658 320.936 156.424 318.166L157.758 334.78Z" fill="#776F6F"/>
<path d="M95.3459 294.525L101.765 314.641M124.797 297.843L123.286 315.678M123.286 315.678L121.218 334.504C120.929 337.133 118.214 338.763 115.758 337.782L109.936 335.457C108.826 335.013 107.973 334.097 107.61 332.958L101.765 314.641M123.286 315.678C114.846 319.051 110.135 319.158 101.765 314.641M154.625 295.769L156.424 318.166M190.116 291.207L180.387 318.996M180.387 318.996L174.177 336.732C173.561 338.489 171.815 339.59 169.965 339.386L161.309 338.435C159.402 338.226 157.912 336.692 157.758 334.78L156.424 318.166M180.387 318.996C170.907 321.163 165.658 320.936 156.424 318.166" stroke="black"/>
</g>
<path id="White_tummy" d="M124.535 302.761C136.897 294.913 143.605 295.155 155.241 302.761L157.516 332.031C143.354 332.615 135.476 332.986 121.882 330.491L124.535 302.761Z" fill="white" stroke="black"/>
<path id="Nose" d="M141.372 150.332C142.272 151.739 144.271 151.887 145.364 150.628L146.725 149.062C147.819 147.803 147.417 145.681 145.658 145.24C144.299 144.9 143.074 144.835 141.703 145.059C139.994 145.338 139.422 147.287 140.275 148.618L141.372 150.332Z" fill="black" stroke="black" stroke-linecap="round"/>
</g>
<ellipse id="Ellipse 24" cx="101" cy="133.5" rx="2" ry="2.5" transform="rotate(20.8951 101 133.5)" fill="white"/>
<ellipse id="Ellipse 25" cx="182.76" cy="139.049" rx="2" ry="2.5" transform="rotate(20.8951 182.76 139.049)" fill="white"/>
</g>
</svg>
