<svg width="100%" height="100%" viewBox="0 0 400 400" fill="none" xmlns="http://www.w3.org/2000/svg">
<g id="seal">
<g id="Group 9">
<g id="Ellipse 37">
<g filter="url(#filter0_i_294_87)">
<path d="M364.688 231C364.688 235.984 364.056 240.851 362.854 245.553C359.284 259.51 350.746 272.268 338.687 282.053C322.175 295.45 299.117 303.5 273.688 303.5C252.395 302.698 234.187 298.053 218.687 295.053C179.112 303.847 150.455 306.284 134.187 304.423C129.152 303.848 125.305 302.861 122.687 301.523C112.599 296.37 120.768 286.015 149.687 273.949C118.591 260.102 92.2032 242.909 51.1863 226.553C24.1865 235.053 9.12745 227.34 11.187 220.053C11.187 202.553 34.6876 202.801 34.6876 197.5C34.6876 187.514 21.5078 159.263 39.1875 156.553C50.6599 154.794 75.1875 183.833 105.188 175.5C159.188 160.5 244.098 153 273.688 153C323.946 153 364.688 190.959 364.688 231Z" fill="#B1F7AF"/>
<path d="M362.854 245.553C359.284 259.51 350.746 272.268 338.687 282.053C366.518 286.469 423.817 259.716 362.854 245.553Z" fill="#87C985"/>
</g>
<path d="M149.687 273.949C118.591 260.102 92.2032 242.909 51.1863 226.553C24.1865 235.053 9.12745 227.34 11.187 220.053C11.187 202.553 34.6876 202.801 34.6876 197.5C34.6876 187.514 21.5078 159.263 39.1875 156.553C50.6599 154.794 75.1875 183.833 105.188 175.5C159.188 160.5 244.098 153 273.688 153C323.946 153 364.688 190.959 364.688 231C364.688 235.984 364.056 240.851 362.854 245.553M149.687 273.949C158.258 270.253 162.687 268.553 172.187 266.553M149.687 273.949C120.768 286.015 112.599 296.37 122.687 301.523M362.854 245.553C359.284 259.51 350.746 272.268 338.687 282.053M362.854 245.553C423.817 259.716 366.518 286.469 338.687 282.053M338.687 282.053C322.175 295.45 299.117 303.5 273.688 303.5C252.395 302.698 234.187 298.053 218.687 295.053C179.112 303.847 150.455 306.284 134.187 304.423M122.687 301.523L131.187 295.053M122.687 301.523C125.305 302.861 129.152 303.848 134.187 304.423M134.187 304.423L139.187 299.553" stroke="black" stroke-width="2"/>
</g>
<g id="eyes">
<ellipse id="eye" cx="7.5" cy="7.5" rx="7.5" ry="7.5" transform="matrix(0.993452 -0.114253 0.114785 0.99339 264.187 236.267)" fill="black"/>
<g id="eye_reflection">
<ellipse id="big" cx="2.375" cy="2.3734" rx="2.375" ry="2.3734" transform="matrix(0.993452 -0.114253 0.114785 0.99339 267.305 238.69)" fill="white"/>
</g>
<g id="eye_reflection_2">
<ellipse id="eye_2" cx="7.5" cy="7.5" rx="7.5" ry="7.5" transform="matrix(0.993452 -0.114253 0.114785 0.99339 335.187 227.267)" fill="black"/>
<g id="eye_reflection_3">
<circle id="big_2" cx="2.375" cy="2.375" r="2.375" transform="matrix(0.993452 -0.114253 0.114785 0.99339 338.187 230.095)" fill="white"/>
</g>
</g>
</g>
<g id="face">
<path id="Vector 28" d="M313.687 242.053L314.461 248.498M314.461 248.498C322.968 255.8 326.371 247.044 326.371 247.044M314.461 248.498C307.314 257.727 302.601 251.197 302.601 251.197" stroke="black" stroke-width="2" stroke-linecap="round"/>
<ellipse id="Ellipse 38" cx="313.172" cy="240.758" rx="5.69968" ry="2.42254" transform="rotate(-8.14042 313.172 240.758)" fill="black"/>
</g>
<g id="spots">
<path id="Ellipse 39" d="M165.187 183.053C165.187 186.09 161.262 191.053 155.187 191.053C149.111 191.053 143.187 186.09 143.187 183.053C143.187 180.015 146.611 176.553 152.687 176.553C158.762 176.553 167.187 178.553 165.187 183.053Z" fill="#398464"/>
<path id="Ellipse 40" d="M134.187 196.553C134.187 198.762 133.605 202.053 129.187 202.053C124.768 202.053 116.187 198.762 116.187 196.553C116.187 194.344 119.768 191.053 124.187 191.053C128.605 191.053 134.187 194.344 134.187 196.553Z" fill="#398464"/>
<path id="Ellipse 41" d="M154.966 208.169C154.966 210.102 154.28 212.669 150.966 212.669C147.652 212.669 142.966 210.102 142.966 208.169C142.966 206.236 143.152 204.169 146.466 204.169C149.78 204.169 157.687 204.169 154.966 208.169Z" fill="#398464"/>
</g>
</g>
</g>
<defs>
<filter id="filter0_i_294_87" x="9.99927" y="148" width="380.892" height="158.008" filterUnits="userSpaceOnUse" color-interpolation-filters="sRGB">
<feFlood flood-opacity="0" result="BackgroundImageFix"/>
<feBlend mode="normal" in="SourceGraphic" in2="BackgroundImageFix" result="shape"/>
<feColorMatrix in="SourceAlpha" type="matrix" values="0 0 0 0 0 0 0 0 0 0 0 0 0 0 0 0 0 0 127 0" result="hardAlpha"/>
<feOffset dy="-7"/>
<feGaussianBlur stdDeviation="2"/>
<feComposite in2="hardAlpha" operator="arithmetic" k2="-1" k3="1"/>
<feColorMatrix type="matrix" values="0 0 0 0 0 0 0 0 0 0 0 0 0 0 0 0 0 0 0.25 0"/>
<feBlend mode="normal" in2="shape" result="effect1_innerShadow_294_87"/>
</filter>
</defs>
</svg>
