<svg width="100%" height="100%" viewBox="0 0 400 400" fill="none" xmlns="http://www.w3.org/2000/svg">
<g id="Bunny">
<g id="Ellipse 7">
<g filter="url(#filter0_i_200_147)">
<path d="M261.705 229.281C285.729 254.754 290 281.674 290 308.197C290 339.664 267.577 355.148 267.577 355.148C267.577 355.148 241.375 376.625 212.137 376.625C172.969 376.625 133.321 381.62 112.5 355.148C98.0431 333.999 93 320.684 93 293.713C99.6786 257.537 111.374 242.267 139.447 219.791C123.074 188.084 130.011 155.436 155.055 142.516C122.18 70.8331 165.179 32.4443 182.326 28.3037C200.716 23.8631 194.387 58.7191 187.028 131.244C195.221 130.352 203.605 129.89 212.137 129.89C207.402 57.9916 209.105 24.1737 224.624 22.1021C242.968 19.6534 273.985 61.3691 241.32 134.247C275.827 149.751 281.649 196.54 261.705 229.281Z" fill="#BBEEFA"/>
</g>
<path d="M261.278 229.021L261.079 229.346L261.341 229.624C285.242 254.967 289.5 281.739 289.5 308.197C289.5 323.805 283.941 335.443 278.383 343.181C275.603 347.051 272.823 349.945 270.741 351.87C269.701 352.832 268.835 353.551 268.231 354.029C267.929 354.268 267.692 354.446 267.532 354.564C267.51 354.581 267.488 354.596 267.469 354.61C267.42 354.646 267.38 354.675 267.351 354.695L267.306 354.727L267.296 354.735L267.293 354.736L267.293 354.736L267.276 354.748L267.26 354.761L267.397 354.928C267.26 354.761 267.26 354.761 267.26 354.761L267.259 354.762L267.256 354.764L267.243 354.775L267.188 354.82C267.138 354.86 267.064 354.919 266.966 354.997C266.769 355.152 266.476 355.381 266.092 355.672C265.324 356.256 264.192 357.09 262.742 358.092C259.842 360.097 255.67 362.77 250.589 365.444C240.418 370.795 226.642 376.125 212.137 376.125C206.709 376.125 201.279 376.22 195.898 376.315C181.819 376.562 168.065 376.804 155.497 375.317C138.153 373.264 123.196 367.929 112.903 354.852C105.691 344.3 100.849 335.732 97.8037 326.458C94.7614 317.192 93.5029 307.19 93.5 293.758C96.8312 275.734 101.406 262.954 108.62 251.888C115.844 240.806 125.736 231.409 139.76 220.181L140.079 219.925L139.891 219.561C123.596 188.006 130.57 155.71 155.284 142.96L155.709 142.741L155.51 142.307C139.125 106.582 141.671 79.2175 150.386 60.2906C154.748 50.8191 160.66 43.447 166.541 38.1885C172.43 32.9228 178.261 29.7996 182.443 28.7897C184.676 28.2505 186.472 28.323 187.914 28.9373C189.35 29.549 190.506 30.7275 191.406 32.5385C193.225 36.1965 193.935 42.2928 193.833 50.9058C193.682 63.7252 191.744 81.8847 189.242 105.335C188.388 113.339 187.468 121.959 186.531 131.193L186.468 131.808L187.082 131.741C195.257 130.851 203.623 130.39 212.137 130.39H212.671L212.636 129.857C210.269 93.9054 209.514 67.515 211.283 49.8608C212.168 41.03 213.68 34.433 215.908 29.9289C218.127 25.442 221.025 23.087 224.69 22.5977C229.073 22.0126 234.308 24.0615 239.221 28.7066C244.126 33.3429 248.661 40.5261 251.623 50.0752C257.543 69.1668 257.158 97.6884 240.864 134.043L240.66 134.499L241.116 134.703C258.191 142.375 268.188 157.792 271.44 175.391C274.693 192.996 271.187 212.754 261.278 229.021Z" stroke="#2D9EB9"/>
</g>
<g id="eye_reflection">
<circle id="eye" cx="169" cy="167" r="8" fill="black"/>
<g id="eye_reflection_2">
<circle id="big" cx="165.479" cy="165.439" r="2.5" fill="white"/>
<path id="small" d="M169.979 167.939C169.979 168.491 169.532 168.939 168.979 168.939C168.427 168.939 167.979 168.491 167.979 167.939C167.979 167.387 168.427 166.939 168.979 166.939C169.532 166.939 169.979 167.387 169.979 167.939Z" fill="white"/>
</g>
</g>
<g id="eye_reflection_3">
<circle id="eye_2" cx="240" cy="167" r="8" fill="black"/>
<g id="eye_reflection_4">
<circle id="big_2" cx="236.479" cy="165.439" r="2.5" fill="white"/>
<path id="small_2" d="M240.979 167.939C240.979 168.491 240.532 168.939 239.979 168.939C239.427 168.939 238.979 168.491 238.979 167.939C238.979 167.387 239.427 166.939 239.979 166.939C240.532 166.939 240.979 167.387 240.979 167.939Z" fill="white"/>
</g>
</g>
<path id="Ellipse 6" d="M179.98 89.6509C178.782 108.944 177.788 129.359 172 129C166.212 128.641 152.295 123.933 159.02 88.3491C164 62 171.833 49.1556 179.98 54.5C185.768 54.8595 181.178 70.3581 179.98 89.6509Z" fill="#FFC0CB"/>
<path id="Ellipse 8" d="M242.724 83.2963C242.724 105.5 237.53 118.226 231.731 118.145C225.933 118.063 216.541 117.848 221.726 83C226.911 48.1516 226.921 48.0698 232.719 48.1516C238.517 48.2334 242.724 53.5 242.724 83.2963Z" fill="#FFC0CB"/>
<path id="Vector 4" d="M206 173V180M206 180C212 188.5 217 180 217 180M206 180C200 188.5 195 180 195 180" stroke="#2D9EB9" stroke-linecap="round"/>
<path id="Polygon 1" d="M205.196 176.987C205.588 177.496 206.352 177.509 206.76 177.013L211.447 171.317C212.157 170.455 211.135 169.255 210.171 169.818L206.954 171.695C206.649 171.873 206.273 171.877 205.964 171.705L201.736 169.355C200.787 168.827 199.795 169.979 200.458 170.839L205.196 176.987Z" fill="#FFC0CB"/>
<g id="Group 1">
<g id="Polygon 2">
<path d="M193.428 385.619C193.187 385.687 192.925 385.72 192.675 385.714C178.223 385.322 171.867 363.565 169.055 344.645C168.877 343.446 169.813 342.378 171.025 342.379L201.577 342.411C202.68 342.412 203.573 343.298 203.608 344.401C204.04 358.017 208.065 381.491 193.428 385.619Z" fill="#BBEEFA"/>
<path d="M193.418 385.622C193.184 385.688 192.929 385.72 192.687 385.714C178.322 385.337 171.952 363.856 169.111 345.019C168.901 343.627 169.89 342.378 171.179 342.38L201.461 342.411C202.627 342.412 203.573 343.442 203.618 344.717C204.101 358.381 207.954 381.533 193.418 385.622Z" fill="#BBEEFA"/>
</g>
<path id="Polygon 2 (Stroke)" fill-rule="evenodd" clip-rule="evenodd" d="M192.702 384.714C186.06 384.534 181.103 379.454 177.402 371.697C174.18 364.943 172.036 356.402 170.611 348.057C170.429 346.99 170.259 345.926 170.1 344.87C169.732 343.38 168.232 343.483 168.066 344.792C168.084 344.917 168.103 345.043 168.122 345.168C170.361 356.046 171.918 362.089 175.659 372.687L175.676 372.723C179.465 380.589 184.891 386.503 192.648 386.713L193.699 386.582C201.6 384.354 204.344 376.941 205.145 368.859L205.156 368.747L205.164 368.663C205.255 367.712 205.319 366.745 205.363 365.766C205.54 361.771 205.363 357.597 205.132 353.675C205.073 352.671 205.01 351.683 204.949 350.72C204.814 348.585 204.686 346.566 204.62 344.744C204.232 343.411 202.963 343.451 202.587 344.744C202.655 346.701 202.822 348.821 202.963 351.034C203.02 351.945 203.079 352.873 203.135 353.811C203.365 357.682 203.54 361.738 203.368 365.632C203.326 366.59 203.262 367.539 203.173 368.473L203.163 368.584L203.155 368.661C202.904 371.198 202.467 373.559 201.772 375.657C200.297 380.113 197.657 383.387 193.157 384.657C193.011 384.698 192.85 384.718 192.702 384.714ZM192.661 386.714C193.005 386.721 193.359 386.677 193.689 386.585C193.36 386.677 193.005 386.723 192.661 386.714Z" fill="#2D9EB9"/>
<path id="Vector 3" d="M188.733 384.483C189.422 381.358 189.218 379.606 188.233 376.483M194.733 384.483C195.117 381.895 195.733 380.483 194.233 376.483" stroke="#2D9EB9" stroke-linecap="round"/>
</g>
<g id="Group 2">
<g id="Polygon 2_2">
<path d="M222.333 385.156C222.57 385.235 222.831 385.281 223.081 385.286C237.535 385.586 244.924 364.157 248.638 345.394C248.873 344.204 247.989 343.093 246.778 343.037L216.26 341.607C215.158 341.556 214.224 342.398 214.136 343.497C213.053 357.078 207.911 380.332 222.333 385.156Z" fill="#BBEEFA"/>
<path d="M222.343 385.159C222.574 385.236 222.826 385.28 223.069 385.285C237.435 385.596 244.826 364.444 248.564 345.765C248.84 344.385 247.912 343.09 246.625 343.029L216.375 341.613C215.211 341.558 214.216 342.541 214.11 343.813C212.975 357.438 208.019 380.379 222.343 385.159Z" fill="#BBEEFA"/>
</g>
<path id="Polygon 2 (Stroke)_2" fill-rule="evenodd" clip-rule="evenodd" d="M223.102 384.286C229.744 384.424 234.938 379.586 239.006 372.015C242.548 365.423 245.098 356.995 246.92 348.727C247.153 347.67 247.374 346.616 247.583 345.569C248.021 344.097 249.515 344.273 249.619 345.588C249.594 345.712 249.569 345.837 249.544 345.961C246.788 356.719 244.944 362.681 240.7 373.088L240.681 373.123C236.521 380.799 230.818 386.447 223.06 386.285L222.016 386.104C214.231 383.5 211.844 375.965 211.431 367.854L211.425 367.741L211.421 367.657C211.376 366.704 211.358 365.734 211.361 364.754C211.375 360.756 211.752 356.595 212.17 352.688C212.277 351.688 212.387 350.705 212.494 349.745C212.731 347.619 212.956 345.609 213.109 343.792C213.559 342.479 214.826 342.579 215.14 343.889C214.977 345.84 214.71 347.95 214.463 350.154C214.362 351.061 214.259 351.985 214.158 352.919C213.744 356.775 213.375 360.818 213.36 364.715C213.357 365.675 213.375 366.626 213.419 367.563L213.424 367.675L213.428 367.752C213.558 370.298 213.881 372.677 214.475 374.806C215.735 379.327 218.215 382.724 222.65 384.207C222.793 384.255 222.954 384.283 223.102 384.286ZM223.047 386.285C222.703 386.277 222.351 386.215 222.026 386.107C222.351 386.216 222.703 386.278 223.047 386.285Z" fill="#2D9EB9"/>
<path id="Vector 3_2" d="M227.077 384.245C226.538 381.09 226.826 379.351 227.959 376.278M221.084 383.958C220.824 381.355 220.277 379.915 221.966 375.992" stroke="#2D9EB9" stroke-linecap="round"/>
</g>
</g>
<defs>
<filter id="filter0_i_200_147" x="93" y="17" width="197" height="360" filterUnits="userSpaceOnUse" color-interpolation-filters="sRGB">
<feFlood flood-opacity="0" result="BackgroundImageFix"/>
<feBlend mode="normal" in="SourceGraphic" in2="BackgroundImageFix" result="shape"/>
<feColorMatrix in="SourceAlpha" type="matrix" values="0 0 0 0 0 0 0 0 0 0 0 0 0 0 0 0 0 0 127 0" result="hardAlpha"/>
<feOffset dy="-5"/>
<feGaussianBlur stdDeviation="3"/>
<feComposite in2="hardAlpha" operator="arithmetic" k2="-1" k3="1"/>
<feColorMatrix type="matrix" values="0 0 0 0 0 0 0 0 0 0 0 0 0 0 0 0 0 0 0.25 0"/>
<feBlend mode="normal" in2="shape" result="effect1_innerShadow_200_147"/>
</filter>
</defs>
</svg>
