<svg width="100%" height="100%" viewBox="0 0 400 400" fill="none" xmlns="http://www.w3.org/2000/svg">

    <path
        d="M196.247 33.0379L196.318 32.5741L195.894 32.7738C192.61 34.3173 190.125 35.7899 187.813 37.7808C185.503 39.7704 183.376 42.2693 180.797 45.854L180.486 46.287L181.018 46.2494L202.018 44.7637L202.761 44.7111L202.136 44.3048C199.513 42.597 197.84 41.1669 196.92 39.4841C196.006 37.8114 195.815 35.8517 196.247 33.0379Z"
        fill="#F3C729" stroke="black" stroke-width="0.5" />
    <path
        d="M216.748 26.9691L216.705 26.6249L216.392 26.7744C214.731 27.5682 213.08 28.2952 211.479 29.0006C210.775 29.3106 210.081 29.6165 209.399 29.9219C207.172 30.9203 205.085 31.9132 203.282 33.0253C199.673 35.2521 197.165 37.9827 196.956 42.2377L196.945 42.4712L197.177 42.4983L216.471 44.7483L217.24 44.838L216.669 44.3155C214.906 42.7031 214.152 41.523 213.942 40.5073C213.733 39.4997 214.048 38.6017 214.573 37.5067C214.681 37.2829 214.797 37.0513 214.917 36.8099C215.382 35.8822 215.919 34.8106 216.314 33.4864C216.815 31.8092 217.092 29.7253 216.748 26.9691Z"
        fill="#F3C729" stroke="black" stroke-width="0.5" />

    <path d="M151 281V326" stroke="black" stroke-width="5" stroke-linecap="round" />
    <path
        d="M305.5 200C305.5 218.751 303.711 235.711 300.827 247.969C299.384 254.102 297.673 259.03 295.791 262.413C293.885 265.839 291.908 267.5 290 267.5C288.092 267.5 286.115 265.839 284.209 262.413C282.327 259.03 280.616 254.102 279.173 247.969C276.289 235.711 274.5 218.751 274.5 200C274.5 181.249 276.289 164.289 279.173 152.031C280.616 145.898 282.327 140.97 284.209 137.587C286.115 134.161 288.092 132.5 290 132.5C291.908 132.5 293.885 134.161 295.791 137.587C297.673 140.97 299.384 145.898 300.827 152.031C303.711 164.289 305.5 181.249 305.5 200Z"
        fill="#F3C729" stroke="black" />
    <line x1="255.5" y1="280.5" x2="255.5" y2="319.5" stroke="black" stroke-width="5"
        stroke-linecap="round" />
    <path
        d="M305.5 180.5C305.5 215.343 295.402 251.249 274.633 273.66C254.685 295.187 224.598 304 194.5 304C167.82 304 138.952 294.532 119.837 277.13C94.9957 254.516 83.5 219.114 83.5 180.5C83.5 148.591 86.6967 113.988 104.409 88.7875C124.717 59.8945 161.769 42.5 194.5 42.5C225.541 42.5 260.488 55.3788 280.602 81.8028C300.254 107.619 305.5 146.684 305.5 180.5Z"
        fill="url(#paint0_linear_4_2)" stroke="black" />
    <path
        d="M146 188.56C139 232 132.121 277 115 277C97.8792 277 87.5 232 84 188.56C84 144.62 97.8792 109 115 109C132.121 109 146 144.62 146 188.56Z"
        fill="#F8F044" />
    <path
        d="M83.07 183.159C83.0236 184.944 83 186.685 83 188.5L84.115 188.56C84.115 186.745 84.0237 184.944 84.0703 183.159H83.07Z"
        fill="black" />
    <path fill-rule="evenodd" clip-rule="evenodd"
        d="M147 188.64V188.56H146L147 188.64ZM135.257 249.343C137.395 241.813 139.274 233.187 141.014 224L140.09 223.5C134.487 253.196 127.452 277 115 277C97.8792 277 87.615 232 84.115 188.56L83 188.5C84.753 210.257 88.2343 232.588 93.4371 249.366C96.0363 257.748 99.0853 264.844 102.607 269.864C106.115 274.866 110.236 278 115 278C119.784 278 123.688 274.843 126.922 269.832C130.165 264.809 132.881 257.713 135.257 249.343ZM83.1144 181.659C83.0978 182.158 83.083 182.658 83.07 183.159L83.1144 181.659Z"
        fill="black" />
    <line x1="255.094" y1="320.288" x2="269.75" y2="324.503" stroke="black" stroke-width="5"
        stroke-linecap="round" />
    <line x1="150.21" y1="326.518" x2="164.518" y2="331.79" stroke="black" stroke-width="5"
        stroke-linecap="round" />
    <circle cx="178" cy="158" r="10" fill="black" />
    <circle cx="272" cy="158" r="10" fill="black" />
    <path
        d="M226.58 188.528L227.025 189.378L227.467 188.527L239.09 166.15L239.349 165.652L238.824 165.452L227.201 161.033L227.023 160.965L226.845 161.033L215.152 165.488L214.627 165.689L214.888 166.187L226.58 188.528Z"
        fill="#FB8904" stroke="black" />
    <circle cx="173.5" cy="156.5" r="2.5" fill="white" />
    <circle cx="267.5" cy="156.5" r="2.5" fill="white" />
    <circle cx="176" cy="153" r="1" fill="white" />
    <circle cx="270" cy="153" r="1" fill="white" />
    <defs>
        <filter id="filter0_f_4_2" x="201.376" y="299.876" width="57.4714" height="24.7425"
            filterUnits="userSpaceOnUse" color-interpolation-filters="sRGB">
            <feFlood flood-opacity="0" result="BackgroundImageFix" />
            <feBlend mode="normal" in="SourceGraphic" in2="BackgroundImageFix" result="shape" />
            <feGaussianBlur stdDeviation="1" result="effect1_foregroundBlur_4_2" />
        </filter>
        <filter id="filter1_f_4_2" x="36.6092" y="261.1" width="180.747" height="66.4056"
            filterUnits="userSpaceOnUse" color-interpolation-filters="sRGB">
            <feFlood flood-opacity="0" result="BackgroundImageFix" />
            <feBlend mode="normal" in="SourceGraphic" in2="BackgroundImageFix" result="shape" />
            <feGaussianBlur stdDeviation="1" result="effect1_foregroundBlur_4_2" />
        </filter>
        <linearGradient id="paint0_linear_4_2" x1="216" y1="304" x2="198.5" y2="129"
            gradientUnits="userSpaceOnUse">
            <stop offset="0.00709136" stop-color="#F3C729" />
            <stop offset="0.557308" stop-color="#F8F044" />
        </linearGradient>
    </defs>
</svg>