<svg width="400" height="400" viewBox="0 0 400 400" fill="none" xmlns="http://www.w3.org/2000/svg">
<g id="Narwhal">
<g clip-path="url(#clip0_257_63)">
<path id="Right_fin" d="M243.5 206C249 264.5 276 212.5 276 188.5L243.5 206Z" fill="#CFD6F9" stroke="#440BA1" stroke-linecap="round"/>
<g id="Body">
<g filter="url(#filter0_i_257_63)">
<path d="M302.5 125.327C302.5 170.89 274.717 204.744 217.5 213.5C180.677 219.135 206.721 280.64 238.5 311C238.5 311 299.5 303 302.5 338C291.26 345.289 280.5 355.5 267 344C255.56 333.435 237.258 318.792 238.5 329.5C239.801 340.712 242.5 350.493 237 357.5C231.5 364.507 208.5 374 208.5 374C189.5 339 217.5 323.5 217.5 323.5C181.561 311.365 114.814 287.912 96 259.827C70.3248 221.5 69.5706 186.355 75.5 149.327C85 90 149.6 42.8268 204 42.8268C258.4 42.8268 302.5 79.7633 302.5 125.327Z" fill="#CFD6F9"/>
</g>
<path d="M217.742 323.937L218.733 323.389L217.66 323.026C199.691 316.959 174.042 308.069 150.538 297.191C138.786 291.752 127.581 285.82 118.146 279.502C108.705 273.18 101.067 266.491 96.4154 259.549C70.8362 221.365 70.0756 186.364 75.9937 149.406C80.7192 119.895 99.1576 93.373 123.224 74.2205C147.292 55.0668 176.935 43.3268 204 43.3268C258.211 43.3268 302 80.1188 302 125.327C302 148.003 295.089 167.73 281.089 182.877C267.087 198.028 245.951 208.641 217.424 213.006C212.749 213.721 209.039 215.329 206.208 217.677C203.375 220.026 201.446 223.095 200.301 226.69C198.017 233.862 198.843 243.142 201.795 253.12C207.702 273.086 222.208 296.127 238.155 311.362L238.328 311.527L238.565 311.496L238.5 311C238.565 311.496 238.565 311.496 238.565 311.496L238.567 311.495L238.575 311.494L238.607 311.49L238.628 311.488C238.655 311.484 238.691 311.48 238.736 311.474C238.85 311.461 239.019 311.44 239.241 311.416C239.686 311.366 240.339 311.297 241.172 311.223C242.838 311.073 245.223 310.898 248.096 310.797C253.843 310.594 261.529 310.688 269.3 311.869C277.078 313.052 284.901 315.317 290.953 319.429C296.917 323.481 301.167 329.326 301.975 337.745C300.695 338.581 299.421 339.451 298.154 340.317L298.019 340.409C296.622 341.364 295.233 342.312 293.839 343.209C291.05 345.005 288.268 346.58 285.432 347.574C282.602 348.566 279.728 348.974 276.749 348.447C273.772 347.919 270.65 346.451 267.332 343.626C261.608 338.341 254.148 332.016 248.258 328.348C246.783 327.43 245.397 326.672 244.153 326.137C242.916 325.606 241.784 325.281 240.83 325.263C239.858 325.245 239.01 325.55 238.483 326.337C237.981 327.089 237.843 328.176 238.003 329.558C238.228 331.493 238.491 333.371 238.747 335.193C239.239 338.702 239.702 342.001 239.801 345.093C239.949 349.762 239.253 353.82 236.607 357.191C235.287 358.873 232.879 360.742 229.957 362.613C227.047 364.476 223.673 366.311 220.462 367.931C217.253 369.551 214.213 370.953 211.976 371.951C210.858 372.449 209.94 372.846 209.303 373.119C209.072 373.217 208.879 373.299 208.725 373.364C199.551 356.213 201.81 343.899 206.311 335.87C208.588 331.808 211.451 328.821 213.748 326.848C214.895 325.862 215.899 325.132 216.614 324.649C216.971 324.407 217.256 324.228 217.45 324.11C217.547 324.051 217.622 324.007 217.671 323.978C217.696 323.964 217.714 323.953 217.726 323.946L217.739 323.939L217.742 323.938L217.742 323.937L217.742 323.937Z" stroke="#440BA1"/>
</g>
<path id="Mouth" d="M235 109C239.5 118 252.5 116.5 256 109" stroke="#440BA1" stroke-linecap="round"/>
<g id="Eyes">
<circle id="eye" cx="208.12" cy="100.39" r="8" transform="rotate(0.475854 208.12 100.39)" fill="black"/>
<g id="eye_reflection">
<circle id="big" cx="204.612" cy="98.8002" r="2.5" transform="rotate(0.475854 204.612 98.8002)" fill="white"/>
<path id="small" d="M209.091 101.337C209.087 101.89 208.635 102.334 208.083 102.329C207.531 102.325 207.087 101.873 207.091 101.321C207.096 100.769 207.547 100.325 208.1 100.329C208.652 100.334 209.096 100.785 209.091 101.337Z" fill="white"/>
</g>
<g id="eye_reflection_2">
<circle id="eye_2" cx="282.117" cy="101.005" r="8" transform="rotate(0.475854 282.117 101.005)" fill="black"/>
<g id="eye_reflection_3">
<circle id="big_2" cx="278.61" cy="99.4148" r="2.5" transform="rotate(0.475854 278.61 99.4148)" fill="white"/>
<path id="small_2" d="M283.089 101.952C283.084 102.504 282.633 102.948 282.08 102.944C281.528 102.939 281.084 102.488 281.089 101.936C281.093 101.383 281.545 100.939 282.097 100.944C282.649 100.948 283.093 101.4 283.089 101.952Z" fill="white"/>
</g>
</g>
</g>
<path id="Tusk" d="M240.735 61.4855C244.793 68.533 249.072 74.7269 258.939 73.0985M245.223 54.5748C248.488 62.7969 252.834 65.3963 261.292 65.4969M254.236 44.5816C257.22 48.4476 259.791 51.7771 265.613 51.5318M259.042 36.5281C261.472 40.1368 263.251 42.7787 268 42M263.081 30.1173C264.862 33.5755 266.129 36.0365 270.5 35M249.177 49.2251C253.295 54.4609 256.356 58.3517 263.458 58.4961M241.042 61.0163L244.89 55.0873C246.511 59.0585 248.425 61.7627 251.014 63.4848C253.653 65.2404 256.926 65.93 261.138 65.9949L259.105 72.563C254.15 73.4394 250.678 72.3133 247.933 70.1251C245.166 67.9193 243.105 64.6115 241.042 61.0163ZM251.568 62.6522C249.078 60.9959 247.198 58.3006 245.559 54.0615L248.66 49.3765C248.709 49.4383 248.757 49.4999 248.805 49.5614C250.866 52.182 252.713 54.5295 254.963 56.2184C257.173 57.8778 259.761 58.8952 263.304 58.9926L261.446 64.9985C257.175 64.9627 254.037 64.2945 251.568 62.6522ZM249.393 48.6908L248.811 49.149L252.645 43.3565C253.043 43.856 253.432 44.3589 253.816 44.8573C255.16 46.5979 256.459 48.2821 258.006 49.5642C259.913 51.1457 262.208 52.1364 265.457 52.0378L263.612 57.9986C260.121 57.9535 257.659 56.9916 255.563 55.4187C253.42 53.8099 251.646 51.5553 249.547 48.8862L249.393 48.6908ZM253.391 42.6878L252.747 43.2024L257.793 35.5787C258.082 35.9968 258.358 36.4071 258.628 36.8081L258.667 36.8654C259.01 37.376 259.345 37.8723 259.678 38.3426C260.343 39.2812 261.017 40.138 261.779 40.8329C262.547 41.5324 263.409 42.0718 264.449 42.3719C265.488 42.6715 266.674 42.724 268.081 42.4934L267.919 41.5066C266.626 41.7185 265.594 41.6612 264.726 41.411C263.861 41.1614 263.13 40.7111 262.453 40.0938C261.77 39.4719 261.146 38.6846 260.494 37.7645C260.169 37.3055 259.841 36.8188 259.496 36.3069L259.456 36.2472C259.124 35.7548 258.778 35.2403 258.41 34.7135L258.328 34.7707L264.413 25.5778C267.284 21.2403 274.002 24.4227 272.464 29.3918L270.599 35.4188L270.385 34.5135C269.229 34.7875 268.342 34.7961 267.629 34.6249C266.924 34.4553 266.354 34.1006 265.843 33.5854C265.326 33.0629 264.871 32.3773 264.406 31.5499C264.116 31.0346 263.834 30.4869 263.533 29.9018C263.345 29.538 263.151 29.1598 262.942 28.7659L262.058 29.2341C262.254 29.6033 262.444 29.9717 262.63 30.3327C262.939 30.9328 263.237 31.5122 263.534 32.0401C264.014 32.8936 264.521 33.6713 265.133 34.2893C265.753 34.9146 266.481 35.3775 267.396 35.5972C268.294 35.813 269.334 35.7857 270.575 35.4959L265.77 51.0237C262.585 51.1971 260.434 50.2786 258.644 48.7944C257.191 47.59 255.984 46.0269 254.656 44.3065C254.249 43.7797 253.831 43.2382 253.391 42.6878ZM258.775 73.6311L257.58 77.4917C257.007 79.3432 255.319 80.6269 253.411 80.5855C249.466 80.4999 246.381 80.021 243.723 78.8295C241.072 77.6415 238.804 75.7264 236.527 72.6981C235.485 71.3128 235.512 69.3931 236.494 67.9058L240.427 61.9521C242.408 65.3806 244.496 68.6642 247.31 70.9071C250.196 73.2079 253.815 74.3925 258.775 73.6311Z" fill="#F29AEF" stroke="#440BA1"/>
<g id="Left_fin" filter="url(#filter1_d_257_63)">
<path d="M119.5 147C98.4337 220.626 140 229.5 148.5 168" stroke="#440BA1" stroke-linecap="round"/>
</g>
</g>
<rect x="0.5" y="0.5" width="399" height="399" stroke="black"/>
</g>
<defs>
<filter id="filter0_i_257_63" x="72.4558" y="38.8268" width="230.044" height="335.173" filterUnits="userSpaceOnUse" color-interpolation-filters="sRGB">
<feFlood flood-opacity="0" result="BackgroundImageFix"/>
<feBlend mode="normal" in="SourceGraphic" in2="BackgroundImageFix" result="shape"/>
<feColorMatrix in="SourceAlpha" type="matrix" values="0 0 0 0 0 0 0 0 0 0 0 0 0 0 0 0 0 0 127 0" result="hardAlpha"/>
<feOffset dy="-4"/>
<feGaussianBlur stdDeviation="2.5"/>
<feComposite in2="hardAlpha" operator="arithmetic" k2="-1" k3="1"/>
<feColorMatrix type="matrix" values="0 0 0 0 0.39749 0 0 0 0 0.386628 0 0 0 0 0.929729 0 0 0 1 0"/>
<feBlend mode="normal" in2="shape" result="effect1_innerShadow_257_63"/>
</filter>
<filter id="filter1_d_257_63" x="111.11" y="146.5" width="39.89" height="66.7938" filterUnits="userSpaceOnUse" color-interpolation-filters="sRGB">
<feFlood flood-opacity="0" result="BackgroundImageFix"/>
<feColorMatrix in="SourceAlpha" type="matrix" values="0 0 0 0 0 0 0 0 0 0 0 0 0 0 0 0 0 0 127 0" result="hardAlpha"/>
<feOffset dy="2"/>
<feGaussianBlur stdDeviation="1"/>
<feComposite in2="hardAlpha" operator="out"/>
<feColorMatrix type="matrix" values="0 0 0 0 0.396078 0 0 0 0 0.388235 0 0 0 0 0.929412 0 0 0 1 0"/>
<feBlend mode="normal" in2="BackgroundImageFix" result="effect1_dropShadow_257_63"/>
<feBlend mode="normal" in="SourceGraphic" in2="effect1_dropShadow_257_63" result="shape"/>
</filter>
<clipPath id="clip0_257_63">
<rect width="400" height="400" fill="white"/>
</clipPath>
</defs>
</svg>
