<svg width="100%" height="100%" viewBox="0 0 400 400" fill="none" xmlns="http://www.w3.org/2000/svg">
<g id="pinguin">
<path id="Left_leg" d="M129.259 331.489C127.176 335.493 124.148 338.5 120.957 340.136C117.765 341.772 114.454 342.021 111.735 340.607C109.016 339.192 107.318 336.338 106.825 332.785C106.333 329.234 107.056 325.028 109.138 321.024C111.221 317.02 114.249 314.014 117.44 312.378C120.632 310.742 123.943 310.493 126.662 311.907C129.381 313.321 131.079 316.175 131.571 319.728C132.064 323.28 131.341 327.486 129.259 331.489Z" fill="#F29426" stroke="black"/>
<path id="Righ_leg" d="M276.517 323.483C278.663 327.336 279.496 331.417 279.132 334.889C278.767 338.363 277.213 341.179 274.629 342.618C272.045 344.057 268.833 343.895 265.688 342.376C262.544 340.858 259.513 338.001 257.367 334.148C255.221 330.295 254.388 326.213 254.752 322.741C255.117 319.268 256.671 316.452 259.255 315.013C261.839 313.574 265.051 313.735 268.196 315.254C271.34 316.772 274.371 319.63 276.517 323.483Z" fill="#F29426" stroke="black"/>
<g id="Body">
<g filter="url(#filter0_i_197_105)">
<path d="M300.5 221C312.77 310.664 262.646 347.289 191.3 347.098C119.953 346.908 76.2688 302.773 85.4999 217.5C35.9999 249 34.9999 209.5 98.4999 162.5C91.9999 93 111.989 51 191.3 51C268.218 51 297.5 96.5 291.5 162.5C354 217.5 361.079 244.996 300.5 221Z" fill="white"/>
</g>
<path d="M300.684 220.535L299.888 220.22L300.004 221.068C306.126 265.802 296.673 297.199 276.899 317.395C257.113 337.602 226.901 346.693 191.301 346.598C155.729 346.503 127.128 335.456 108.562 313.879C89.9947 292.299 81.391 260.102 85.997 217.554L86.1089 216.52L85.2314 217.078C72.872 224.943 63.6312 228.312 57.7193 228.305C54.7774 228.301 52.7313 227.463 51.4984 226.01C50.2622 224.552 49.7561 222.373 50.1209 219.5C50.8527 213.737 55.0596 205.468 63.1051 195.669C71.1363 185.887 82.9481 174.633 98.7974 162.902L99.024 162.734L98.9977 162.453C95.7507 127.735 99.1376 100.018 113.124 80.9836C127.089 61.9774 151.723 51.5 191.3 51.5C229.661 51.5 256.047 62.8431 272.108 82.3181C288.179 101.804 293.995 129.528 291.002 162.455L290.979 162.708L291.17 162.875C306.785 176.617 318.927 188.631 327.412 198.543C331.655 203.5 334.977 207.924 337.361 211.77C339.749 215.623 341.177 218.866 341.663 221.465C342.148 224.056 341.687 225.931 340.405 227.179C339.097 228.452 336.826 229.186 333.435 229.217C326.661 229.279 315.823 226.532 300.684 220.535Z" stroke="black"/>
</g>
<g id="Black_body">
<g filter="url(#filter1_i_197_105)">
<path d="M77.5001 222.212C36.0962 244.466 38.625 206.817 98.5002 162.5C92.0002 93 111.989 51 191.3 51C268.218 51 297.5 96.5 291.5 162.5C347.819 212.061 359.137 239.288 316.5 226.632C311.821 225.243 306.491 223.373 300.5 221L316.5 226.632C311.727 200.421 298.845 186.532 266.5 162.5C270.61 87.8324 246.859 75.2266 191.3 110C128.149 82.8393 122.53 111.199 113 162.5C91.0265 183.291 81.975 195.967 77.5001 222.212Z" fill="black"/>
</g>
<path d="M330.028 229.045C326.475 228.686 322.119 227.764 316.936 226.239C314.524 213.207 310.086 203.183 302.229 193.435C294.361 183.673 283.075 174.202 267.014 162.259C268.021 143.698 267.304 128.946 264.785 117.796C262.254 106.597 257.888 98.9619 251.55 94.7919C245.205 90.6168 236.994 89.9877 226.943 92.5485C216.948 95.0949 205.07 100.81 191.257 109.437C175.563 102.707 163.38 99.3916 153.783 99.0308C144.115 98.6674 137.054 101.303 131.695 106.467C126.358 111.609 122.758 119.214 119.896 128.69C117.045 138.131 114.908 149.496 112.538 162.249C101.606 172.6 93.8466 180.975 88.2623 190.049C82.6862 199.109 79.2942 208.839 77.0486 221.887C71.9866 224.592 67.6062 226.384 63.9296 227.37C60.1948 228.373 57.2218 228.536 55.0085 228.016C52.8168 227.501 51.3713 226.32 50.6211 224.585C49.8597 222.824 49.7848 220.424 50.5065 217.438C51.95 211.464 56.5274 203.37 64.5175 193.98C72.4983 184.6 83.8533 173.963 98.7976 162.902L99.0242 162.734L98.998 162.453C95.7509 127.735 99.1378 100.018 113.124 80.9836C127.089 61.9774 151.723 51.5 191.3 51.5C229.662 51.5 256.047 62.8431 272.109 82.3181C288.179 101.804 293.995 129.528 291.002 162.455L290.979 162.708L291.17 162.875C305.24 175.257 316.492 186.237 324.789 195.542C333.095 204.857 338.408 212.457 340.644 218.082C341.763 220.897 342.085 223.152 341.69 224.857C341.303 226.521 340.217 227.73 338.323 228.453C336.401 229.186 333.655 229.412 330.028 229.045Z" stroke="black"/>
</g>
<g id="eyes">
<circle id="eye" cx="150" cy="139" r="8" fill="black"/>
<g id="eye_reflection">
<circle id="big" cx="146.479" cy="137.439" r="2.5" fill="white"/>
<path id="small" d="M150.979 139.939C150.979 140.491 150.532 140.939 149.979 140.939C149.427 140.939 148.979 140.491 148.979 139.939C148.979 139.387 149.427 138.939 149.979 138.939C150.532 138.939 150.979 139.387 150.979 139.939Z" fill="white"/>
</g>
<g id="eye_reflection_2">
<circle id="eye_2" cx="241" cy="139" r="8" fill="black"/>
<g id="eye_reflection_3">
<circle id="big_2" cx="237.479" cy="137.439" r="2.5" fill="white"/>
<path id="small_2" d="M241.979 139.939C241.979 140.491 241.532 140.939 240.979 140.939C240.427 140.939 239.979 140.491 239.979 139.939C239.979 139.387 240.427 138.939 240.979 138.939C241.532 138.939 241.979 139.387 241.979 139.939Z" fill="white"/>
</g>
</g>
</g>
<path id="nose" d="M206.315 155.641L197.921 168.698L185.228 155.535L194.461 147.628L206.315 155.641Z" fill="#F29426" stroke="black"/>
</g>
<defs>
<filter id="filter0_i_197_105" x="49.5051" y="46" width="292.846" height="301.099" filterUnits="userSpaceOnUse" color-interpolation-filters="sRGB">
<feFlood flood-opacity="0" result="BackgroundImageFix"/>
<feBlend mode="normal" in="SourceGraphic" in2="BackgroundImageFix" result="shape"/>
<feColorMatrix in="SourceAlpha" type="matrix" values="0 0 0 0 0 0 0 0 0 0 0 0 0 0 0 0 0 0 127 0" result="hardAlpha"/>
<feOffset dy="-5"/>
<feGaussianBlur stdDeviation="3"/>
<feComposite in2="hardAlpha" operator="arithmetic" k2="-1" k3="1"/>
<feColorMatrix type="matrix" values="0 0 0 0 0 0 0 0 0 0 0 0 0 0 0 0 0 0 0.25 0"/>
<feBlend mode="normal" in2="shape" result="effect1_innerShadow_197_105"/>
</filter>
<filter id="filter1_i_197_105" x="49.5054" y="46" width="292.846" height="183.718" filterUnits="userSpaceOnUse" color-interpolation-filters="sRGB">
<feFlood flood-opacity="0" result="BackgroundImageFix"/>
<feBlend mode="normal" in="SourceGraphic" in2="BackgroundImageFix" result="shape"/>
<feColorMatrix in="SourceAlpha" type="matrix" values="0 0 0 0 0 0 0 0 0 0 0 0 0 0 0 0 0 0 127 0" result="hardAlpha"/>
<feOffset dy="-5"/>
<feGaussianBlur stdDeviation="3"/>
<feComposite in2="hardAlpha" operator="arithmetic" k2="-1" k3="1"/>
<feColorMatrix type="matrix" values="0 0 0 0 0 0 0 0 0 0 0 0 0 0 0 0 0 0 0.25 0"/>
<feBlend mode="normal" in2="shape" result="effect1_innerShadow_197_105"/>
</filter>
</defs>
</svg>
