<svg width="100%" height="100%" viewBox="0 0 400 400" fill="none" xmlns="http://www.w3.org/2000/svg">
<g id="Sloth">
<g id="Body_back_arm">
<g filter="url(#filter0_i_253_39)">
<path d="M351 192.907C345.122 209.53 343.377 218.262 334.363 242.47C331.246 249.742 304.15 364.298 261.824 376.881C258.331 377.919 255.866 374.213 257.004 370.751C268.095 337.02 248.943 303.382 238.679 303.382C238.679 303.382 229.678 307.642 186.336 307.223C118.759 300.301 88.5024 279.522 76.5613 237.173C57.2481 168.68 99.4087 65.2814 149.014 42.4508C153.274 40.4901 156.284 45.4269 153.568 49.2499C116.209 101.833 139.738 158.706 150.495 153.27C159.179 148.882 168.601 136.882 168.601 136.882C157.679 150.568 152.179 142.882 168.601 123.382C167.681 99.8409 170.39 76.2636 195.961 52.8802C214.745 35.7041 235.2 28.9899 246.564 29.9347C249.72 30.197 250.469 33.7566 248.238 36.0026C239.609 44.6863 233.53 47.7545 225.844 60.4646C211.257 98.1745 214.735 125.794 225.969 132.854C276.12 66.7903 373.642 128.881 351 192.907Z" fill="#A57E63"/>
<path d="M351 192.907C345.122 209.53 343.377 218.262 334.363 242.47C331.246 249.742 304.15 364.298 261.824 376.881C258.331 377.919 255.866 374.213 257.004 370.751C268.095 337.02 248.943 303.382 238.679 303.382C238.679 303.382 229.678 307.642 186.336 307.223C118.759 300.301 88.5024 279.522 76.5613 237.173C57.2481 168.68 99.4087 65.2814 149.014 42.4508C153.274 40.4901 156.284 45.4269 153.568 49.2499C116.209 101.833 139.738 158.706 150.495 153.27C159.179 148.882 168.601 136.882 168.601 136.882C157.679 150.568 152.179 142.882 168.601 123.382C167.681 99.8409 170.39 76.2636 195.961 52.8802C214.745 35.7041 235.2 28.9899 246.564 29.9347C249.72 30.197 250.469 33.7566 248.238 36.0026C239.609 44.6863 233.53 47.7545 225.844 60.4646C211.257 98.1745 214.735 125.794 225.969 132.854C276.12 66.7903 373.642 128.881 351 192.907Z" fill="#A57E63"/>
</g>
<path d="M76.5613 237.173C88.5024 279.522 118.759 300.301 186.336 307.223C229.678 307.642 238.679 303.382 238.679 303.382M76.5613 237.173C57.2481 168.68 99.4087 65.2814 149.014 42.4508C153.274 40.4901 156.284 45.4269 153.568 49.2499C116.209 101.833 139.738 158.706 150.495 153.27M76.5613 237.173C57.2481 168.68 99.4087 65.2814 149.014 42.4508C153.274 40.4901 156.284 45.4269 153.568 49.2499C116.209 101.833 139.738 158.706 150.495 153.27M150.495 153.27C159.179 148.882 168.601 136.882 168.601 136.882M168.601 136.882C157.679 150.568 152.179 142.882 168.601 123.382C167.681 99.8409 170.39 76.2636 195.961 52.8802M168.601 136.882C162.274 144.33 158.652 152.206 159.5 154.5C160.517 157.253 167.303 153.456 170 149.5C168.601 151.552 165.883 153.577 166.5 157.5C166.8 159.411 168.922 160 173 158.5M225.844 60.4646C233.53 47.7545 239.609 44.6863 248.238 36.0026C250.469 33.7566 249.72 30.197 246.564 29.9347C235.2 28.9899 214.745 35.7041 195.961 52.8802M225.844 60.4646C211.257 98.1745 214.735 125.794 225.969 132.854C276.12 66.7903 373.642 128.881 351 192.907C345.122 209.53 343.377 218.262 334.363 242.47M225.844 60.4646C233.53 47.7545 239.609 44.6863 248.238 36.0026C250.469 33.7566 249.72 30.197 246.564 29.9347C235.2 28.9899 214.745 35.7041 195.961 52.8802M334.363 242.47C331.246 249.742 304.15 364.298 261.824 376.881C258.331 377.919 255.866 374.213 257.004 370.751C268.095 337.02 248.943 303.382 238.679 303.382M334.363 242.47C326.015 268.465 322.163 280.582 322.5 262.5M334.363 242.47L334.184 243.03C325.96 268.638 322.166 280.451 322.5 262.5M334.363 242.47C331.246 249.742 304.15 364.298 261.824 376.881C258.331 377.919 255.866 374.213 257.004 370.751C268.095 337.02 248.943 303.382 238.679 303.382M238.679 303.382L264.5 296C269.922 311.685 274.501 308.461 284.5 288.5C289.881 300.5 294.752 294.494 304.5 276.5C305.699 298.533 309.737 294.975 322.5 262.5" stroke="#58493E"/>
</g>
<g id="Body_front_arms">
<g filter="url(#filter1_i_253_39)">
<path d="M76.5613 237.173C88.5024 279.522 118.759 300.301 186.336 307.223C229.678 307.642 238.679 303.382 238.679 303.382L264.5 296C269.922 311.685 274.501 308.461 284.5 288.5C289.881 300.5 294.752 294.494 304.5 276.5C305.699 298.533 309.737 294.975 322.5 262.5C322.187 279.329 325.501 269.998 332.693 247.666C333.173 246.177 333.67 244.63 334.184 243.029L334.363 242.47C343.377 218.262 345.122 209.53 351 192.907C373.642 128.881 276.12 66.7903 225.969 132.854C214.735 125.794 211.257 98.1745 225.844 60.4646C231.309 51.4273 235.961 47.2647 241.296 42.492C243.464 40.5523 245.744 38.5119 248.238 36.0026C250.469 33.7566 249.72 30.197 246.564 29.9347C235.2 28.9899 214.745 35.7041 195.961 52.8802C170.39 76.2636 167.681 99.8409 168.601 123.382C152.716 142.245 157.343 150.053 167.549 138.155C167.89 137.73 168.241 137.305 168.601 136.882C168.601 136.882 168.14 137.469 167.327 138.432C161.794 145.394 158.711 152.365 159.5 154.5C160.458 157.092 166.531 153.876 169.489 150.189C169.671 149.958 169.844 149.729 170 149.5C169.843 149.731 169.672 149.961 169.489 150.189C166.531 153.876 160.458 157.092 159.5 154.5C158.711 152.365 161.794 145.394 167.327 138.432C164.467 141.82 157.257 149.853 150.495 153.27C139.738 158.706 116.209 101.833 153.568 49.2499C156.284 45.4269 153.274 40.4901 149.014 42.4508C99.4087 65.2814 57.2481 168.68 76.5613 237.173Z" fill="#B99C87"/>
<path d="M186.336 307.223C118.759 300.301 88.5024 279.522 76.5613 237.173C57.2481 168.68 99.4087 65.2814 149.014 42.4508C153.274 40.4901 156.284 45.4269 153.568 49.2499C116.209 101.833 139.738 158.706 150.495 153.27C157.257 149.853 164.467 141.82 167.327 138.432C167.4 138.34 167.474 138.247 167.549 138.155C157.343 150.053 152.716 142.245 168.601 123.382C167.681 99.8409 170.39 76.2636 195.961 52.8802C214.745 35.7041 235.2 28.9899 246.564 29.9347C249.72 30.197 250.469 33.7566 248.238 36.0026C245.744 38.5119 243.464 40.5523 241.296 42.492C235.961 47.2647 231.309 51.4273 225.844 60.4646C211.257 98.1745 214.735 125.794 225.969 132.854C276.12 66.7903 373.642 128.881 351 192.907C345.122 209.53 343.377 218.262 334.363 242.47L334.184 243.029L334.184 243.03C333.67 244.63 333.173 246.177 332.693 247.666C325.501 269.998 322.187 279.329 322.5 262.5C309.737 294.975 305.699 298.533 304.5 276.5C294.752 294.494 289.881 300.5 284.5 288.5C274.501 308.461 269.922 311.685 264.5 296L238.679 303.382C238.679 303.382 229.678 307.642 186.336 307.223Z" fill="#B99C87"/>
</g>
<path d="M76.5613 237.173C88.5024 279.522 118.759 300.301 186.336 307.223C229.678 307.642 238.679 303.382 238.679 303.382L264.5 296C269.922 311.685 274.501 308.461 284.5 288.5C289.881 300.5 294.752 294.494 304.5 276.5C305.699 298.533 309.737 294.975 322.5 262.5M76.5613 237.173C57.2481 168.68 99.4087 65.2814 149.014 42.4508C153.274 40.4901 156.284 45.4269 153.568 49.2499C116.209 101.833 139.738 158.706 150.495 153.27M76.5613 237.173C57.2481 168.68 99.4087 65.2814 149.014 42.4508C153.274 40.4901 156.284 45.4269 153.568 49.2499C116.209 101.833 139.738 158.706 150.495 153.27M150.495 153.27C159.179 148.882 168.601 136.882 168.601 136.882M168.601 136.882C157.679 150.568 152.179 142.882 168.601 123.382C167.681 99.8409 170.39 76.2636 195.961 52.8802M168.601 136.882C162.274 144.33 158.652 152.206 159.5 154.5C160.517 157.253 167.303 153.456 170 149.5C168.601 151.552 165.883 153.577 166.5 157.5C166.8 159.411 168.922 160 173 158.5M225.844 60.4646C233.53 47.7545 239.609 44.6863 248.238 36.0026C250.469 33.7566 249.72 30.197 246.564 29.9347C235.2 28.9899 214.745 35.7041 195.961 52.8802M225.844 60.4646C211.257 98.1745 214.735 125.794 225.969 132.854C276.12 66.7903 373.642 128.881 351 192.907C345.122 209.53 343.377 218.262 334.363 242.47M225.844 60.4646C233.53 47.7545 239.609 44.6863 248.238 36.0026C250.469 33.7566 249.72 30.197 246.564 29.9347C235.2 28.9899 214.745 35.7041 195.961 52.8802M334.363 242.47C326.015 268.465 322.163 280.582 322.5 262.5M334.363 242.47L334.184 243.03C325.96 268.638 322.166 280.451 322.5 262.5" stroke="#58493E"/>
</g>
<path id="Fur" d="M173 284C185.108 287.514 191.894 287.637 204 284M225.969 284C239.293 285.914 245.922 283.605 257 276.5M145.5 265.5C157.997 269.79 165.003 269.534 177.5 265.5M201 265.5C211.852 270.772 221.633 267.515 231.5 262.5M250.5 260.5C263.789 262.113 271.341 261.959 279.5 255M173 243.03C185.616 247.314 192.37 247.026 204 243.03M225.844 243.03C237.36 244.874 243.206 243.675 252.432 237.173" stroke="#82583A" stroke-opacity="0.7" stroke-width="3" stroke-linecap="round"/>
<g id="Nails">
<path d="M265.545 375.5C263.364 374.551 261.973 373.346 260.949 371.5C260.008 369.805 259.376 367.571 258.725 364.5C258.261 366.578 257.69 368.665 257.004 370.751L257.003 370.756L257.002 370.759C256.509 372.263 256.697 373.814 257.354 375C258.205 376.537 259.843 377.462 261.808 376.886C261.812 376.884 261.817 376.883 261.822 376.882L261.824 376.881C261.819 376.883 261.813 376.884 261.808 376.886C258.323 377.909 255.867 374.215 257.002 370.759L257.003 370.756L257.004 370.751C257.69 368.665 258.261 366.578 258.725 364.5C259.376 367.571 260.008 369.805 260.949 371.5C261.973 373.346 263.364 374.551 265.545 375.5Z" fill="white"/>
<path d="M248.245 35.9951C248.243 35.9976 248.24 36.0001 248.238 36.0026C245.744 38.5119 243.464 40.5523 241.296 42.4919C241.029 42.7307 240.764 42.968 240.5 43.2044C241.282 39.2836 241.169 36.7491 239.974 35C238.786 33.262 236.53 32.2995 233.024 31.5231C237.594 30.3009 241.715 29.7671 245.14 29.8577C245.629 29.8707 246.104 29.8964 246.564 29.9347C246.904 29.9629 247.954 30.0406 248.238 30.1397C249.667 30.6394 249.63 31.955 249.509 33.3688C249.433 34.2733 249.02 35.2133 248.245 35.9951Z" fill="white"/>
<path d="M257.004 370.751C256.509 372.258 256.696 373.812 257.354 375C258.207 376.541 259.852 377.467 261.824 376.881C263.078 376.508 264.318 376.046 265.545 375.5C263.364 374.551 261.973 373.346 260.949 371.5C260.008 369.805 259.376 367.571 258.725 364.5C258.261 366.578 257.69 368.665 257.004 370.751Z" fill="white"/>
<path d="M153.568 49.2499C151.936 51.5474 150.42 53.8531 149.014 56.1614C147.018 50.9525 145.024 49.0754 140 47.5229C142.783 45.6713 145.601 44.0619 148.445 42.7164C148.63 42.6289 148.815 42.5425 149 42.4573L149.001 42.4567L149.01 42.4526L149.014 42.4508L149.016 42.4497V42.4497C153.271 40.4918 156.286 45.4248 153.573 49.2426V49.2426L153.57 49.2472L153.568 49.2499Z" fill="white"/>
<path d="M261.824 376.881C263.078 376.508 264.318 376.046 265.545 375.5M261.824 376.881L261.822 376.882M261.824 376.881C261.819 376.883 261.813 376.884 261.808 376.886M261.824 376.881C259.852 377.467 258.207 376.541 257.354 375M257.004 370.751C257.69 368.665 258.261 366.578 258.725 364.5M257.004 370.751L257.003 370.756M257.004 370.751C256.509 372.258 256.696 373.812 257.354 375M149.014 56.1614C150.42 53.8531 151.936 51.5474 153.568 49.2499L153.57 49.2472M149.014 56.1614C147.018 50.9525 145.024 49.0754 140 47.5229C142.783 45.6713 145.601 44.0619 148.445 42.7164C148.63 42.6289 148.815 42.5425 149 42.4573L149.001 42.4567M149.014 56.1614C150.42 53.8522 151.937 51.5456 153.57 49.2472M258.725 364.5C258.261 366.58 257.69 368.668 257.003 370.756M258.725 364.5C259.376 367.571 260.008 369.805 260.949 371.5M265.545 375.5C264.317 376.046 263.076 376.509 261.822 376.882M265.545 375.5C263.364 374.551 261.973 373.346 260.949 371.5M261.808 376.886C261.812 376.884 261.817 376.883 261.822 376.882M261.808 376.886C258.323 377.909 255.867 374.215 257.002 370.759M261.808 376.886V376.886C258.321 377.92 255.865 374.214 257.002 370.759V370.759M261.808 376.886C259.843 377.462 258.205 376.537 257.354 375M257.003 370.756L257.002 370.759M257.002 370.759C256.509 372.263 256.697 373.814 257.354 375M154.452 44.9314C154.799 46.2469 154.584 47.8209 153.573 49.2426M154.452 44.9314C154.796 46.2476 154.58 47.8216 153.573 49.2426M154.452 44.9314C153.871 42.7082 151.69 41.2207 149.016 42.4497M153.573 49.2426V49.2426C156.286 45.4248 153.271 40.4918 149.016 42.4497V42.4497M153.573 49.2426L153.57 49.2472M149.001 42.4567L149.01 42.4526M149.001 42.4567C149.004 42.4553 149.007 42.454 149.01 42.4526M248.245 35.9951C248.243 35.9976 248.24 36.0001 248.238 36.0026C245.744 38.5119 243.464 40.5523 241.296 42.4919M248.245 35.9951C249.02 35.2133 249.433 34.2733 249.509 33.3688M248.245 35.9951C249.019 35.2132 249.432 34.2732 249.509 33.3688M248.245 35.9951V35.9951C250.474 33.7511 249.716 30.1965 246.563 29.9346C246.103 29.8964 245.629 29.8707 245.14 29.8577M248.245 35.9951C245.749 38.5078 243.466 40.5503 241.296 42.4919M241.296 42.4919C241.029 42.7307 240.764 42.968 240.5 43.2044C241.282 39.2836 241.169 36.7491 239.974 35M245.14 29.8577C241.715 29.7671 237.594 30.3009 233.024 31.5231C236.53 32.2995 238.786 33.262 239.974 35M245.14 29.8577C245.629 29.8707 246.104 29.8964 246.564 29.9347C246.904 29.9629 247.954 30.0406 248.238 30.1397M249.509 33.3688C249.63 31.955 249.667 30.6394 248.238 30.1397M149.01 42.4526L149.014 42.4508L149.016 42.4497M149.01 42.4526C149.012 42.4517 149.014 42.4507 149.016 42.4497M239.974 35C240.917 31.7535 243.891 31.0943 248.238 30.1397M257.354 375C259.447 374.325 260.2 373.525 260.949 371.5" stroke="#58493E"/>
</g>
<path id="face" d="M338 154C341.83 170.755 318.183 182.903 281 161C244.5 139.5 247.944 124.099 257.5 117.5C278.5 110.5 274.5 125.875 294 134C312 141.5 334 136.5 338 154Z" fill="#DCC3B1"/>
<g id="Left_eye">
<circle id="eye" cx="267.5" cy="130.5" r="5.5" fill="black"/>
<g id="eye_reflection">
<circle id="big" cx="265.079" cy="129.427" r="1.71875" fill="white"/>
<path id="small" d="M268.173 131.146C268.173 131.525 267.865 131.833 267.486 131.833C267.106 131.833 266.798 131.525 266.798 131.146C266.798 130.766 267.106 130.458 267.486 130.458C267.865 130.458 268.173 130.766 268.173 131.146Z" fill="white"/>
</g>
</g>
<g id="Right_eye">
<circle id="eye_2" cx="320.5" cy="154.5" r="5.5" fill="black"/>
<g id="eye_reflection_2">
<circle id="big_2" cx="318.079" cy="153.427" r="1.71875" fill="white"/>
<path id="small_2" d="M321.173 155.146C321.173 155.525 320.865 155.833 320.486 155.833C320.106 155.833 319.798 155.525 319.798 155.146C319.798 154.766 320.106 154.458 320.486 154.458C320.865 154.458 321.173 154.766 321.173 155.146Z" fill="white"/>
</g>
</g>
<ellipse id="Nose" cx="291.655" cy="145.631" rx="4.13721" ry="2.15917" transform="rotate(23.5202 291.655 145.631)" fill="#58493E"/>
<path id="Mouth " d="M291.534 145.163L290.165 148.811M290.165 148.811C293.098 154.966 298.591 151.974 298.591 151.974M290.165 148.811C283.906 151.516 281.739 145.648 281.739 145.648" stroke="#58493E" stroke-linecap="round"/>
</g>
<defs>
<filter id="filter0_i_253_39" x="71.2759" y="23.348" width="283.582" height="354.211" filterUnits="userSpaceOnUse" color-interpolation-filters="sRGB">
<feFlood flood-opacity="0" result="BackgroundImageFix"/>
<feBlend mode="normal" in="SourceGraphic" in2="BackgroundImageFix" result="shape"/>
<feColorMatrix in="SourceAlpha" type="matrix" values="0 0 0 0 0 0 0 0 0 0 0 0 0 0 0 0 0 0 127 0" result="hardAlpha"/>
<feOffset dy="-7"/>
<feGaussianBlur stdDeviation="3"/>
<feComposite in2="hardAlpha" operator="arithmetic" k2="-1" k3="1"/>
<feColorMatrix type="matrix" values="0 0 0 0 0.508896 0 0 0 0 0.344457 0 0 0 0 0.228602 0 0 0 0.9 0"/>
<feBlend mode="normal" in2="shape" result="effect1_innerShadow_253_39"/>
</filter>
<filter id="filter1_i_253_39" x="71.2759" y="23.348" width="283.582" height="284.404" filterUnits="userSpaceOnUse" color-interpolation-filters="sRGB">
<feFlood flood-opacity="0" result="BackgroundImageFix"/>
<feBlend mode="normal" in="SourceGraphic" in2="BackgroundImageFix" result="shape"/>
<feColorMatrix in="SourceAlpha" type="matrix" values="0 0 0 0 0 0 0 0 0 0 0 0 0 0 0 0 0 0 127 0" result="hardAlpha"/>
<feOffset dy="-7"/>
<feGaussianBlur stdDeviation="3"/>
<feComposite in2="hardAlpha" operator="arithmetic" k2="-1" k3="1"/>
<feColorMatrix type="matrix" values="0 0 0 0 0.508896 0 0 0 0 0.344457 0 0 0 0 0.228602 0 0 0 0.9 0"/>
<feBlend mode="normal" in2="shape" result="effect1_innerShadow_253_39"/>
</filter>
</defs>
</svg>
