<svg  width="497" height="590" viewBox="0 0 497 590" fill="none"
    xmlns="http://www.w3.org/2000/svg">
    <g class="Secondbird">
        <rect width="497" height="590" fill="white" />
        <g class="Component 1">
            <g class="ShadowRightLeg" filter="url(#filter0_f_4_2)">
                <path d="M347.483 508.72L388.724 521.495" stroke-width="5" stroke-linecap="square" />
            </g>
            <g class="ShadowLeftLeg" filter="url(#filter1_f_4_2)">
                <path d="M267.258 523.592L299.485 533.775" stroke-width="5" stroke-linecap="square" />
            </g>
            <path class="HairSmall"
                d="M331.247 235.038L331.318 234.574L330.894 234.774C327.61 236.317 325.125 237.79 322.813 239.781C320.503 241.77 318.376 244.269 315.797 247.854L315.486 248.287L316.018 248.249L337.018 246.764L337.761 246.711L337.136 246.305C334.513 244.597 332.84 243.167 331.92 241.484C331.006 239.811 330.815 237.852 331.247 235.038Z"
                fill="#F3C729" stroke="black" stroke-width="0.5" />
            <path class="HairBig"
                d="M351.748 228.969L351.705 228.625L351.392 228.774C349.731 229.568 348.08 230.295 346.479 231.001C345.775 231.311 345.081 231.616 344.399 231.922C342.172 232.92 340.085 233.913 338.282 235.025C334.673 237.252 332.165 239.983 331.956 244.238L331.945 244.471L332.177 244.498L351.471 246.748L352.24 246.838L351.669 246.316C349.906 244.703 349.152 243.523 348.942 242.507C348.733 241.5 349.048 240.602 349.573 239.507C349.681 239.283 349.797 239.051 349.917 238.81C350.382 237.882 350.919 236.811 351.314 235.486C351.815 233.809 352.092 231.725 351.748 228.969Z"
                fill="#F3C729" stroke="black" stroke-width="0.5" />
            <g class="RoundShadow" filter="url(#filter2_f_4_2)">
                <ellipse cx="261.983" cy="496.302" rx="89" ry="29.3545"
                    transform="rotate(7.2168 261.983 496.302)" />
            </g>
            <path class="LeftLeg" d="M286 483V528" stroke="black" stroke-width="5"
                stroke-linecap="round" />
            <path class="RightWing"
                d="M440.5 402C440.5 420.751 438.711 437.711 435.827 449.969C434.384 456.102 432.673 461.03 430.791 464.413C428.885 467.839 426.908 469.5 425 469.5C423.092 469.5 421.115 467.839 419.209 464.413C417.327 461.03 415.616 456.102 414.173 449.969C411.289 437.711 409.5 420.751 409.5 402C409.5 383.249 411.289 366.289 414.173 354.031C415.616 347.898 417.327 342.97 419.209 339.587C421.115 336.161 423.092 334.5 425 334.5C426.908 334.5 428.885 336.161 430.791 339.587C432.673 342.97 434.384 347.898 435.827 354.031C438.711 366.289 440.5 383.249 440.5 402Z"
                fill="#F3C729" stroke="black" />
            <line class="RightLeg" x1="390.5" y1="482.5" x2="390.5" y2="521.5" stroke="black"
                stroke-width="5"
                stroke-linecap="round" />
            <path class="Body"
                d="M440.5 382.5C440.5 417.343 430.402 453.249 409.633 475.66C389.685 497.187 359.598 506 329.5 506C302.82 506 273.952 496.532 254.837 479.13C229.996 456.516 218.5 421.114 218.5 382.5C218.5 350.591 221.697 315.988 239.409 290.788C259.717 261.894 296.769 244.5 329.5 244.5C360.541 244.5 395.488 257.379 415.602 283.803C435.254 309.619 440.5 348.684 440.5 382.5Z"
                fill="url(#paint0_linear_4_2)" stroke="black" />
            <g class="LeftWing">
                <path class="wing"
                    d="M281 394.56C274 438 267.121 483 250 483C232.879 483 222.5 438.44 219 395C219 387.89 218.318 380.558 219 374C219.052 373.498 219.444 371.998 219.5 371.5C223.226 338.292 240.361 344.5 254.5 344.5C271.621 344.5 281 350.62 281 394.56Z"
                    fill="#F8F044" />
                <g class="Stroke">
                    <path
                        d="M218.115 374C218.068 375.785 218 392.685 218 394.5L219.115 394.56C219.115 392.745 219.068 375.785 219.115 374H218.115Z"
                        fill="black" />
                    <path fill-rule="evenodd" clip-rule="evenodd"
                        d="M270.257 455.343C272.395 447.813 274.274 439.187 276.014 430L275.09 429.5C269.487 459.196 262.452 483 250 483C232.879 483 222.615 438 219.115 394.56L218 394.5C219.753 416.257 223.234 438.588 228.437 455.366C231.036 463.748 234.085 470.844 237.607 475.864C241.115 480.866 245.236 484 250 484C254.784 484 258.688 480.843 261.922 475.832C265.165 470.809 267.881 463.713 270.257 455.343Z"
                        fill="black" />
                </g>
            </g>
            <line class="RightFoot" x1="390.094" y1="522.288" x2="404.75" y2="526.503"
                stroke="black"
                stroke-width="5" stroke-linecap="round" />
            <line class="LeftFoot" x1="285.21" y1="528.518" x2="299.518" y2="533.79" stroke="black"
                stroke-width="5"
                stroke-linecap="round" />
            <g class="Face">
                <path class="Mouth"
                    d="M361.58 390.528L362.025 391.378L362.467 390.527L374.09 368.15L374.349 367.652L373.824 367.452L362.201 363.033L362.023 362.965L361.845 363.033L350.152 367.488L349.627 367.689L349.888 368.187L361.58 390.528Z"
                    fill="#FB8904" stroke="black" />
                <g class="LeftEye">
                    <circle class="LeftEyeBlack" cx="313" cy="360" r="10" fill="black" />
                    <circle class="LeftEyeBigLight" cx="308.5" cy="358.5" r="2.5" fill="white" />
                    <circle class="LeftEyeSmallLight" cx="311" cy="355" r="1" fill="white" />
                </g>
                <g class="RightEye">
                    <circle class="RightEyeBlack" cx="407" cy="360" r="10" fill="black" />
                    <circle class="RightEyeBigLight" cx="402.5" cy="358.5" r="2.5" fill="white" />
                    <circle class="RightEyeSmallLight" cx="405" cy="355" r="1" fill="white" />
                </g>
                <animateMotion dur="5s" values="10,0; -10,0;  10,0" repeatCount="indefinite" />
            </g>
        </g>
    </g>

</svg>